<svg version="1.1" id="prefix__Layer_1" xmlns="http://www.w3.org/2000/svg" x="0" y="0" viewBox="0 0 128 128" xml:space="preserve"><style>.prefix__st2{fill:#283037}</style><switch><g><linearGradient id="prefix__SVGID_1_" gradientUnits="userSpaceOnUse" x1="493.347" y1="0" x2="494.054" y2=".707"><stop offset="0" stop-color="#e6e6ea"/><stop offset=".172" stop-color="#e2e2e6"/><stop offset=".348" stop-color="#d7d6da"/><stop offset=".526" stop-color="#c4c2c5"/><stop offset=".706" stop-color="#a9a7a8"/><stop offset=".885" stop-color="#878484"/><stop offset="1" stop-color="#6d6968"/></linearGradient><path fill="none" d="M.3 0h128v128H.3z"/><path d="M112.5 26.1l-40.4-24C69.7.7 67 0 64.3 0s-5.4.7-7.8 2.1l-40.4 24C11.3 29 8.3 34.3 8.3 40v48c0 5.7 3 11 7.8 13.9l40.4 24c2.4 1.4 5.1 2.1 7.8 2.1s5.4-.7 7.8-2.1l40.4-24c4.8-2.9 7.8-8.2 7.8-13.9V40c0-5.7-2.9-11-7.8-13.9zm-54.6 97.3l-40.4-24c-4-2.3-6.4-6.7-6.4-11.4V40c0-4.7 2.5-9.1 6.4-11.4l40.4-24c1.9-1.2 4.1-1.8 6.4-1.8 2.2 0 4.4.6 6.4 1.8l40.4 24c3.3 2 5.6 5.4 6.2 9.2-1.3-2.9-4.4-3.6-7.9-1.6L71.2 59.9c-4.8 2.8-8.3 5.9-8.3 11.7v47.1c0 3.4 1.4 5.7 3.5 6.3-.7.1-1.4.2-2.1.2-2.2 0-4.4-.7-6.4-1.8z" fill="#fff"/><path class="prefix__st2" d="M101.9 92.6l-10.1 6c-.3.2-.5.3-.5.7v2.6c0 .3.2.5.5.3L102 96c.3-.2.3-.5.3-.8v-2.3c.1-.3-.1-.4-.4-.3zM80.5 70.5c.3-.2.6 0 .6.5v3.5c1.5-.6 2.7-.7 3.9-.5.2.1.4.4.3.8l-.8 3.1c-.1.2-.2.5-.3.6-.1.1-.1.1-.2.1-.1.1-.2.1-.3 0-.5-.1-1.8-.4-3.7.6-2.1 1-2.8 2.8-2.8 4.1 0 1.6.8 2.1 3.6 2.1 3.7.1 5.3 1.7 5.4 5.5 0 3.7-1.9 7.7-4.9 10.1l.1 3.4c0 .4-.3.9-.6 1.1l-2 1.2c-.3.2-.6 0-.6-.5v-3.4c-1.7.7-3.5.9-4.7.4-.2-.1-.3-.4-.2-.8l.7-3.1c.1-.2.2-.5.4-.6.1-.1.1-.1.2-.1.1-.1.2-.1.3 0 1.2.4 2.8.2 4.3-.5 1.9-1 3.2-2.9 3.2-4.8 0-1.8-1-2.5-3.3-2.5-2.9 0-5.7-.6-5.7-4.9 0-3.6 1.8-7.3 4.7-9.6v-3.5c0-.4.3-.9.6-1.1l1.8-1.2z"/></g></switch></svg>