<svg
    id="svg"
    version="1.1"
    xmlns="http://www.w3.org/2000/svg"
    xmlns:xlink="http://www.w3.org/1999/xlink"
    width="400"
    height="398.92183288409706"
    viewBox="0, 0, 400,398.92183288409706"
>
    <g id="svgg">
    <path
        id="path0"
        d="M196.841 56.154 C 194.576 56.639,192.058 58.889,190.531 61.793 C 190.179 62.463,190.034 66.454,190.004 76.269 L 189.963 89.820 188.395 90.071 C 187.532 90.209,186.826 90.478,186.826 90.670 C 186.826 90.861,186.377 91.018,185.828 91.018 C 185.207 91.018,184.830 91.244,184.830 91.617 C 184.830 91.946,184.561 92.216,184.232 92.216 C 183.902 92.216,183.633 92.392,183.633 92.607 C 183.633 92.823,183.184 93.111,182.635 93.249 C 182.086 93.387,181.637 93.660,181.637 93.856 C 181.637 94.051,181.367 94.212,181.038 94.212 C 180.709 94.212,180.439 94.385,180.439 94.597 C 180.439 95.119,178.175 97.405,177.658 97.405 C 177.431 97.405,177.246 97.675,177.246 98.004 C 177.246 98.333,176.976 98.603,176.647 98.603 C 176.317 98.603,176.048 98.872,176.048 99.202 C 176.048 99.531,175.901 99.800,175.722 99.800 C 175.543 99.800,174.993 100.519,174.499 101.397 C 174.005 102.275,173.433 102.994,173.228 102.994 C 173.022 102.994,172.854 103.443,172.854 103.992 C 172.854 104.541,172.675 104.990,172.455 104.990 C 172.236 104.990,172.056 105.405,172.056 105.912 C 172.056 106.419,171.792 107.182,171.470 107.608 C 171.147 108.035,170.878 108.973,170.871 109.693 C 170.863 110.480,170.619 111.095,170.259 111.233 C 169.761 111.424,169.661 112.559,169.661 118.019 C 169.661 123.479,169.761 124.614,170.259 124.806 C 170.650 124.956,170.858 125.576,170.858 126.590 C 170.858 127.444,171.036 128.144,171.253 128.144 C 171.470 128.144,171.762 128.862,171.903 129.741 C 172.043 130.619,172.315 131.337,172.506 131.337 C 172.698 131.337,172.854 131.987,172.854 132.780 C 172.854 134.257,172.407 135.243,163.183 154.092 C 160.765 159.032,158.279 164.152,157.657 165.469 C 155.821 169.360,147.917 185.624,143.818 193.944 C 141.728 198.189,139.796 201.746,139.526 201.850 C 138.993 202.054,134.736 199.282,131.543 196.650 C 130.449 195.748,129.101 194.651,128.549 194.212 C 125.290 191.620,112.974 178.572,112.974 177.710 C 112.974 177.491,112.805 177.252,112.599 177.179 C 112.201 177.038,107.387 170.503,107.383 170.098 C 107.366 168.557,103.242 168.149,101.266 169.492 C 87.252 179.015,79.892 185.250,79.851 187.633 C 79.791 191.104,99.949 214.046,109.581 221.469 C 109.800 221.638,111.148 222.664,112.575 223.749 C 114.002 224.834,115.230 225.862,115.303 226.034 C 115.376 226.207,115.675 226.347,115.968 226.347 C 116.261 226.347,116.560 226.494,116.633 226.673 C 116.707 226.852,118.598 228.201,120.836 229.671 L 124.906 232.343 124.396 233.637 C 123.246 236.551,122.763 237.525,122.467 237.525 C 122.296 237.525,122.156 237.812,122.156 238.163 C 122.156 238.513,121.466 240.175,120.624 241.855 C 117.856 247.375,112.093 259.238,111.091 261.477 C 110.551 262.685,109.944 263.986,109.744 264.368 C 108.982 265.818,106.855 270.116,106.235 271.457 C 105.880 272.226,105.499 272.944,105.389 273.054 C 105.279 273.164,104.900 273.882,104.547 274.651 C 104.193 275.419,103.323 277.305,102.613 278.842 C 99.566 285.437,99.406 286.176,99.371 293.784 C 99.354 297.422,99.207 302.555,99.044 305.190 C 98.619 312.066,99.074 313.609,101.940 314.994 C 104.828 316.389,105.651 316.048,112.011 310.822 C 114.446 308.822,117.218 306.557,118.171 305.788 C 126.387 299.167,126.434 299.104,132.506 286.627 C 133.201 285.200,133.924 283.762,134.113 283.433 C 134.301 283.104,135.057 281.577,135.791 280.040 C 136.525 278.503,137.260 277.186,137.425 277.112 C 137.590 277.039,137.725 276.704,137.725 276.368 C 137.725 276.032,139.769 271.600,142.268 266.521 C 144.768 261.441,147.475 255.848,148.285 254.092 C 149.096 252.335,150.114 250.269,150.548 249.501 C 150.983 248.733,151.526 247.610,151.756 247.006 C 152.204 245.828,153.266 245.588,154.971 246.280 C 155.476 246.485,156.966 246.943,158.283 247.298 C 159.601 247.653,161.218 248.133,161.876 248.366 C 162.535 248.598,163.792 248.941,164.671 249.127 C 165.549 249.313,167.525 249.755,169.062 250.109 C 170.599 250.464,173.024 250.919,174.451 251.121 C 175.878 251.324,177.315 251.605,177.645 251.746 C 177.974 251.887,179.950 252.147,182.036 252.322 C 184.122 252.498,187.355 252.832,189.222 253.064 C 193.494 253.597,206.176 253.599,211.178 253.069 C 213.263 252.848,216.497 252.516,218.363 252.331 C 220.230 252.146,222.026 251.881,222.355 251.742 C 222.685 251.603,224.122 251.324,225.549 251.121 C 226.976 250.919,229.401 250.464,230.938 250.109 C 232.475 249.755,234.451 249.304,235.329 249.106 C 237.509 248.616,240.433 247.752,240.918 247.455 C 241.138 247.321,242.036 247.081,242.914 246.923 C 243.792 246.765,244.726 246.458,244.988 246.241 C 246.221 245.222,247.283 246.063,248.856 249.301 C 252.334 256.468,258.203 268.511,261.694 275.649 C 266.025 284.503,269.860 292.568,269.860 292.822 C 269.860 294.424,275.139 300.710,279.241 303.992 C 280.338 304.870,281.432 305.768,281.670 305.988 C 281.909 306.208,282.886 307.016,283.842 307.784 C 285.990 309.511,288.956 311.984,290.020 312.935 C 293.925 316.424,297.081 316.513,299.604 313.205 L 300.599 311.901 300.599 302.409 C 300.599 293.405,299.980 285.894,299.051 283.633 C 298.610 282.559,296.670 278.414,294.614 274.151 C 293.687 272.229,293.030 270.394,293.154 270.072 C 293.277 269.750,293.220 269.389,293.027 269.269 C 292.834 269.150,291.334 266.315,289.693 262.969 C 281.535 246.326,277.796 238.636,276.449 235.729 C 275.108 232.833,272.320 227.096,263.062 208.184 C 260.016 201.961,255.065 191.734,250.208 181.637 C 244.933 170.670,240.125 161.071,239.844 160.949 C 239.682 160.879,239.193 160.070,238.758 159.153 C 238.323 158.236,235.827 153.084,233.211 147.705 C 230.595 142.325,228.061 137.116,227.581 136.128 C 227.100 135.140,226.491 134.006,226.228 133.609 C 225.836 133.019,225.876 132.792,226.447 132.368 C 226.831 132.082,227.146 131.385,227.146 130.818 C 227.146 130.251,227.325 129.677,227.545 129.541 C 227.764 129.405,227.944 128.958,227.944 128.548 C 227.944 128.137,228.214 127.532,228.543 127.203 C 228.914 126.832,229.142 125.852,229.142 124.628 C 229.142 123.359,229.356 122.475,229.741 122.156 C 230.186 121.786,230.339 120.797,230.339 118.286 C 230.339 115.820,230.178 114.752,229.741 114.314 C 229.368 113.942,229.142 112.961,229.142 111.719 C 229.142 110.477,228.916 109.497,228.543 109.125 C 228.214 108.795,227.944 108.000,227.944 107.357 C 227.944 106.714,227.764 106.188,227.545 106.188 C 227.325 106.188,227.146 105.733,227.146 105.177 C 227.146 104.621,226.876 104.063,226.547 103.937 C 226.218 103.810,225.948 103.277,225.948 102.752 C 225.948 102.169,225.715 101.796,225.349 101.796 C 225.020 101.796,224.750 101.527,224.750 101.198 C 224.750 100.868,224.610 100.599,224.437 100.599 C 224.265 100.599,223.832 100.105,223.474 99.501 C 223.117 98.897,222.287 97.892,221.630 97.268 C 218.743 94.524,218.385 94.212,218.128 94.212 C 217.978 94.212,217.440 93.762,216.931 93.214 C 216.422 92.665,215.633 92.216,215.176 92.216 C 214.720 92.216,214.243 91.946,214.116 91.617 C 213.990 91.287,213.457 91.018,212.931 91.018 C 212.406 91.018,211.976 90.858,211.976 90.662 C 211.976 90.466,211.527 90.193,210.978 90.056 L 209.980 89.805 209.980 77.509 C 209.980 63.216,209.593 61.235,206.184 58.084 C 204.487 56.516,199.736 55.534,196.841 56.154 M203.593 100.399 C 203.866 100.729,204.506 100.998,205.015 100.998 C 207.517 100.998,215.170 106.998,215.170 108.960 C 215.170 109.411,215.349 109.780,215.569 109.780 C 215.788 109.780,215.968 110.210,215.968 110.736 C 215.968 111.261,216.238 111.794,216.567 111.921 C 216.999 112.087,217.166 112.764,217.166 114.359 C 217.166 115.573,217.345 116.567,217.565 116.567 C 217.784 116.567,217.964 117.275,217.964 118.140 C 217.964 119.005,217.784 119.824,217.565 119.960 C 217.345 120.096,217.166 121.100,217.166 122.192 C 217.166 123.588,216.988 124.245,216.567 124.407 C 216.238 124.533,215.968 125.046,215.968 125.546 C 215.968 127.465,210.849 133.333,209.174 133.333 C 208.739 133.333,208.383 133.513,208.383 133.733 C 208.383 133.952,207.934 134.132,207.385 134.132 C 206.764 134.132,206.387 134.358,206.387 134.731 C 206.387 135.165,205.940 135.329,204.762 135.329 C 203.849 135.329,202.874 135.592,202.538 135.928 C 202.156 136.310,201.171 136.527,199.821 136.527 C 198.425 136.527,197.533 136.323,197.206 135.928 C 196.891 135.549,196.010 135.329,194.804 135.329 C 193.480 135.329,192.830 135.147,192.670 134.731 C 192.544 134.401,192.068 134.132,191.612 134.132 C 190.746 134.132,190.297 133.844,188.348 132.036 C 187.697 131.432,187.032 130.938,186.871 130.938 C 186.482 130.938,184.830 128.690,184.830 128.160 C 184.830 127.931,184.651 127.745,184.431 127.745 C 184.212 127.745,184.032 127.315,184.032 126.789 C 184.032 126.264,183.762 125.731,183.433 125.604 C 183.104 125.478,182.834 124.907,182.834 124.335 C 182.834 123.764,182.565 123.027,182.236 122.697 C 181.780 122.242,181.637 121.107,181.637 117.964 C 181.637 114.821,181.780 113.686,182.236 113.231 C 182.565 112.901,182.834 112.192,182.834 111.654 C 182.834 111.117,183.104 110.453,183.433 110.180 C 183.762 109.906,184.032 109.435,184.032 109.133 C 184.032 108.830,184.212 108.583,184.431 108.583 C 184.651 108.583,184.830 108.325,184.830 108.010 C 184.830 107.695,185.830 106.438,187.052 105.216 C 188.274 103.994,189.531 102.994,189.846 102.994 C 190.161 102.994,190.419 102.814,190.419 102.595 C 190.419 102.375,190.849 102.196,191.374 102.196 C 191.900 102.196,192.433 101.926,192.560 101.597 C 192.710 101.205,193.332 100.998,194.356 100.998 C 195.380 100.998,196.002 100.791,196.152 100.399 C 196.331 99.933,197.123 99.800,199.739 99.800 C 202.236 99.800,203.223 99.954,203.593 100.399 M200.399 148.954 C 200.399 149.525,202.064 153.001,215.768 181.038 C 218.129 185.868,220.563 190.898,221.176 192.216 C 221.790 193.533,224.040 198.204,226.176 202.595 C 231.979 214.523,232.040 214.657,231.872 215.163 C 231.683 215.728,227.756 217.134,226.314 217.153 C 225.747 217.160,225.148 217.300,224.984 217.465 C 224.615 217.834,220.364 218.671,216.367 219.161 C 214.721 219.363,212.206 219.712,210.778 219.936 C 207.437 220.460,192.598 220.464,189.222 219.941 C 187.794 219.721,185.279 219.366,183.633 219.153 C 180.926 218.803,179.139 218.469,173.148 217.193 C 172.102 216.971,170.901 216.604,170.480 216.378 C 170.058 216.153,169.354 215.968,168.915 215.968 C 167.147 215.968,167.502 214.495,170.968 207.456 C 172.825 203.684,175.068 199.072,175.953 197.206 C 177.469 194.010,179.025 190.803,189.319 169.661 C 191.618 164.940,194.075 159.820,194.780 158.283 C 195.485 156.747,196.222 155.220,196.417 154.890 C 196.612 154.561,197.274 153.310,197.887 152.111 C 199.568 148.823,199.764 148.503,200.095 148.503 C 200.262 148.503,200.399 148.706,200.399 148.954 "
        stroke="none"
        fill="#217be6"
        fill-rule="evenodd"
    ></path>
    <path
        id="path1"
        d="M308.084 151.329 C 307.700 151.553,307.385 151.975,307.385 152.266 C 307.385 152.558,307.116 153.020,306.787 153.293 C 306.098 153.865,302.994 158.428,302.994 158.869 C 302.994 159.032,302.590 159.611,302.096 160.157 C 301.602 160.703,300.852 161.762,300.429 162.511 C 300.007 163.260,299.548 163.962,299.410 164.072 C 299.272 164.182,298.749 164.947,298.247 165.774 C 296.915 167.965,294.212 168.632,294.212 166.770 C 294.212 166.603,293.955 166.467,293.641 166.467 C 293.328 166.467,292.833 166.243,292.543 165.968 C 292.098 165.547,289.285 164.100,283.700 161.421 C 283.079 161.122,282.260 160.878,281.880 160.878 C 281.501 160.878,280.842 160.614,280.416 160.292 C 279.989 159.970,279.144 159.700,278.537 159.693 C 277.931 159.686,277.122 159.520,276.741 159.324 C 273.862 157.841,255.831 157.078,251.821 158.269 C 250.685 158.606,249.170 158.882,248.454 158.882 C 247.738 158.882,247.042 159.062,246.906 159.281 C 246.770 159.501,246.176 159.687,245.585 159.695 C 244.994 159.703,244.062 159.966,243.513 160.279 C 242.964 160.593,242.121 160.856,241.640 160.864 C 240.119 160.889,240.268 161.391,244.079 169.100 C 246.131 173.251,248.889 178.892,250.209 181.637 C 254.937 191.471,259.989 201.904,263.062 208.184 C 272.320 227.096,275.108 232.833,276.449 235.729 C 277.263 237.485,279.905 242.964,282.320 247.904 C 294.244 272.292,292.928 270.176,295.128 268.498 C 295.873 267.930,296.589 267.465,296.720 267.465 C 296.850 267.465,297.552 266.913,298.279 266.239 C 299.006 265.565,300.050 264.773,300.599 264.479 C 305.349 261.937,315.137 248.217,318.262 239.721 C 319.626 236.009,319.861 235.270,320.033 234.132 C 320.133 233.473,320.365 232.575,320.550 232.136 C 320.735 231.697,321.081 229.990,321.319 228.343 C 322.469 220.369,322.081 220.909,326.246 221.482 C 331.029 222.141,342.164 222.677,343.214 222.299 C 345.042 221.641,344.225 219.167,342.173 219.149 C 341.373 219.142,338.922 218.876,336.727 218.558 C 334.531 218.240,330.556 217.976,327.893 217.972 C 322.319 217.963,322.369 217.992,322.011 214.571 C 321.873 213.253,321.482 210.649,321.143 208.782 C 320.804 206.916,320.421 204.671,320.293 203.792 C 320.165 202.914,319.813 201.841,319.511 201.408 C 319.209 200.975,318.962 200.132,318.962 199.536 C 318.962 198.939,318.796 198.348,318.594 198.223 C 318.391 198.097,318.108 197.460,317.964 196.807 C 317.571 195.015,313.718 187.606,311.416 184.213 C 310.297 182.563,309.381 181.123,309.381 181.012 C 309.381 180.901,307.270 178.647,304.691 176.003 C 299.522 170.707,299.308 170.308,300.781 168.719 C 301.339 168.117,301.796 167.538,301.796 167.433 C 301.796 167.328,302.784 165.800,303.992 164.037 C 305.200 162.274,306.188 160.688,306.188 160.514 C 306.188 160.339,306.592 159.750,307.086 159.204 C 307.580 158.658,308.327 157.554,308.745 156.751 C 309.164 155.947,309.617 155.289,309.753 155.289 C 309.888 155.289,310.337 154.661,310.750 153.893 C 311.894 151.769,310.172 150.113,308.084 151.329 M277.843 177.092 C 281.418 180.322,279.293 185.743,274.452 185.743 C 271.168 185.743,269.455 184.062,269.474 180.860 C 269.503 176.064,274.310 173.900,277.843 177.092 M301.313 226.633 C 305.042 229.051,304.965 233.253,301.150 235.504 C 296.263 238.388,291.167 231.948,294.862 227.557 C 295.421 226.892,296.212 226.347,296.619 226.347 C 297.025 226.347,297.469 226.168,297.605 225.948 C 298.045 225.236,299.602 225.524,301.313 226.633 "
        stroke="none"
        fill="#04e37c"
        fill-rule="evenodd"
    ></path>
    <path
        id="path2"
        d="M194.311 3.868 C 193.927 3.968,193.613 4.217,193.613 4.420 C 193.613 4.624,192.709 4.790,191.604 4.790 C 190.187 4.790,189.528 4.967,189.366 5.389 C 189.240 5.719,188.706 5.988,188.181 5.988 C 187.598 5.988,187.226 6.221,187.226 6.587 C 187.226 7.019,186.782 7.186,185.629 7.186 C 184.750 7.186,184.032 7.365,184.032 7.585 C 184.032 7.804,183.577 7.984,183.021 7.984 C 182.466 7.984,181.907 8.253,181.781 8.583 C 181.655 8.912,181.301 9.182,180.995 9.182 C 180.689 9.182,180.439 9.451,180.439 9.780 C 180.439 10.153,180.062 10.379,179.441 10.379 C 178.892 10.379,178.443 10.559,178.443 10.778 C 178.443 10.998,177.994 11.178,177.445 11.178 C 176.824 11.178,176.447 11.404,176.447 11.776 C 176.447 12.106,176.178 12.375,175.848 12.375 C 175.519 12.375,175.250 12.645,175.250 12.974 C 175.250 13.340,174.877 13.573,174.294 13.573 C 173.769 13.573,173.236 13.842,173.109 14.172 C 172.983 14.501,172.425 14.770,171.869 14.770 C 171.313 14.770,170.858 14.950,170.858 15.170 C 170.858 15.389,170.589 15.569,170.259 15.569 C 169.930 15.569,169.661 15.838,169.661 16.168 C 169.661 16.540,169.284 16.766,168.663 16.766 C 168.042 16.766,167.665 16.993,167.665 17.365 C 167.665 17.738,167.288 17.964,166.667 17.964 C 166.118 17.964,165.669 18.144,165.669 18.363 C 165.669 18.583,165.034 18.762,164.259 18.762 C 163.374 18.762,162.764 18.985,162.619 19.361 C 162.471 19.748,161.853 19.960,160.878 19.960 C 159.903 19.960,159.285 20.173,159.137 20.559 C 158.985 20.954,158.360 21.158,157.298 21.158 C 156.413 21.158,155.689 21.337,155.689 21.557 C 155.689 21.788,154.420 21.956,152.682 21.956 C 150.378 21.956,149.622 22.096,149.446 22.555 C 149.246 23.074,146.945 23.154,132.093 23.154 C 117.139 23.154,114.970 23.230,114.970 23.752 C 114.970 24.185,114.527 24.351,113.373 24.351 C 112.220 24.351,111.776 24.518,111.776 24.950 C 111.776 25.349,111.377 25.549,110.579 25.549 C 109.920 25.549,109.381 25.729,109.381 25.948 C 109.381 26.168,108.932 26.347,108.383 26.347 C 107.762 26.347,107.385 26.574,107.385 26.946 C 107.385 27.309,107.014 27.545,106.443 27.545 C 105.904 27.545,105.180 27.972,104.752 28.543 C 104.339 29.092,103.775 29.541,103.498 29.541 C 103.221 29.541,102.994 29.810,102.994 30.140 C 102.994 30.512,102.617 30.739,101.996 30.739 C 101.375 30.739,100.998 30.965,100.998 31.337 C 100.998 31.667,100.815 31.936,100.592 31.936 C 99.971 31.936,97.405 34.719,97.405 35.392 C 97.405 36.081,96.460 37.126,95.837 37.126 C 95.602 37.126,95.409 37.665,95.409 38.323 C 95.409 38.982,95.217 39.521,94.981 39.521 C 94.220 39.521,93.413 40.635,93.413 41.688 C 93.413 42.334,93.191 42.715,92.814 42.715 C 92.442 42.715,92.216 43.092,92.216 43.713 C 92.216 44.334,91.989 44.711,91.617 44.711 C 91.287 44.711,91.018 44.980,91.018 45.309 C 91.018 45.639,90.838 45.908,90.619 45.908 C 90.399 45.908,90.220 46.357,90.220 46.906 C 90.220 47.527,89.993 47.904,89.621 47.904 C 89.222 47.904,89.022 48.303,89.022 49.102 C 89.022 49.760,88.818 50.299,88.570 50.299 C 87.899 50.299,86.627 51.908,86.627 52.756 C 86.627 53.161,86.447 53.493,86.228 53.493 C 86.008 53.493,85.828 53.762,85.828 54.092 C 85.828 54.421,85.635 54.691,85.398 54.691 C 84.840 54.691,82.635 56.896,82.635 57.454 C 82.635 57.691,82.441 57.884,82.205 57.884 C 81.646 57.884,79.441 60.089,79.441 60.648 C 79.441 60.884,79.247 61.078,79.010 61.078 C 78.450 61.078,75.050 64.477,75.050 65.038 C 75.050 65.275,74.646 65.475,74.152 65.482 C 73.122 65.496,71.856 66.339,71.856 67.010 C 71.856 67.260,71.432 67.465,70.914 67.465 C 70.375 67.465,69.651 67.892,69.223 68.463 C 68.805 69.020,68.068 69.461,67.557 69.461 C 67.054 69.461,66.538 69.731,66.412 70.060 C 66.285 70.389,65.932 70.659,65.626 70.659 C 65.320 70.659,65.070 70.928,65.070 71.257 C 65.070 71.630,64.693 71.856,64.072 71.856 C 63.523 71.856,63.074 72.036,63.074 72.255 C 63.074 72.475,62.625 72.655,62.076 72.655 C 61.455 72.655,61.078 72.881,61.078 73.253 C 61.078 73.653,60.679 73.852,59.880 73.852 C 59.082 73.852,58.683 74.052,58.683 74.451 C 58.683 74.884,58.239 75.050,57.086 75.050 C 55.933 75.050,55.489 75.216,55.489 75.649 C 55.489 76.021,55.112 76.248,54.491 76.248 C 53.942 76.248,53.493 76.427,53.493 76.647 C 53.493 76.866,53.038 77.046,52.482 77.046 C 51.927 77.046,51.369 77.315,51.242 77.645 C 51.116 77.974,50.583 78.244,50.057 78.244 C 49.474 78.244,49.102 78.477,49.102 78.842 C 49.102 79.215,48.725 79.441,48.104 79.441 C 47.555 79.441,47.106 79.621,47.106 79.840 C 47.106 80.060,46.836 80.240,46.507 80.240 C 46.178 80.240,45.908 80.509,45.908 80.838 C 45.908 81.171,45.553 81.437,45.110 81.437 C 44.278 81.437,42.715 82.740,42.715 83.433 C 42.715 83.653,42.521 83.832,42.285 83.832 C 41.532 83.832,39.521 86.134,39.521 86.995 C 39.521 87.466,39.262 87.824,38.922 87.824 C 38.593 87.824,38.323 88.094,38.323 88.423 C 38.323 88.752,38.054 89.022,37.725 89.022 C 37.352 89.022,37.126 89.399,37.126 90.020 C 37.126 90.569,36.960 91.018,36.758 91.018 C 36.556 91.018,36.272 91.557,36.128 92.216 C 35.983 92.874,35.699 93.413,35.497 93.413 C 35.295 93.413,35.130 94.132,35.130 95.010 C 35.130 96.163,34.963 96.607,34.531 96.607 C 34.110 96.607,33.932 97.031,33.932 98.033 C 33.932 98.817,33.663 99.728,33.333 100.057 C 32.916 100.474,32.735 101.495,32.735 103.422 C 32.735 105.000,32.563 106.188,32.335 106.188 C 32.089 106.188,31.936 108.250,31.936 111.577 C 31.936 116.101,31.840 116.966,31.337 116.966 C 30.847 116.966,30.739 117.654,30.739 120.758 C 30.739 123.863,30.630 124.551,30.140 124.551 C 29.680 124.551,29.541 125.061,29.541 126.747 C 29.541 127.954,29.361 128.942,29.142 128.942 C 28.922 128.942,28.743 129.930,28.743 131.138 C 28.743 132.823,28.603 133.333,28.144 133.333 C 27.711 133.333,27.545 133.777,27.545 134.930 C 27.545 136.083,27.379 136.527,26.946 136.527 C 26.574 136.527,26.347 136.904,26.347 137.525 C 26.347 138.074,26.170 138.523,25.953 138.523 C 25.736 138.523,25.443 139.242,25.303 140.120 C 25.163 140.998,24.891 141.717,24.699 141.717 C 24.508 141.717,24.351 141.986,24.351 142.315 C 24.351 142.645,24.082 142.914,23.752 142.914 C 23.353 142.914,23.154 143.313,23.154 144.112 C 23.154 144.910,22.954 145.309,22.555 145.309 C 22.182 145.309,21.956 145.686,21.956 146.307 C 21.956 146.856,21.776 147.305,21.557 147.305 C 21.337 147.305,21.158 147.575,21.158 147.904 C 21.158 148.234,20.888 148.503,20.559 148.503 C 20.186 148.503,19.960 148.880,19.960 149.501 C 19.960 150.122,19.734 150.499,19.361 150.499 C 19.032 150.499,18.762 150.768,18.762 151.098 C 18.762 151.427,18.583 151.697,18.363 151.697 C 18.144 151.697,17.964 152.146,17.964 152.695 C 17.964 153.316,17.738 153.693,17.365 153.693 C 17.036 153.693,16.766 153.962,16.766 154.291 C 16.766 154.621,16.497 154.890,16.168 154.890 C 15.838 154.890,15.569 155.083,15.569 155.318 C 15.569 155.871,14.553 156.886,14.001 156.886 C 13.765 156.886,13.573 157.425,13.573 158.084 C 13.573 158.743,13.395 159.281,13.178 159.281 C 12.398 159.281,11.178 160.675,11.178 161.566 C 11.178 162.066,10.998 162.475,10.778 162.475 C 10.559 162.475,10.379 162.745,10.379 163.074 C 10.379 163.403,10.110 163.673,9.780 163.673 C 9.408 163.673,9.182 164.050,9.182 164.671 C 9.182 165.292,8.955 165.669,8.583 165.669 C 8.210 165.669,7.984 166.046,7.984 166.667 C 7.984 167.216,7.804 167.665,7.585 167.665 C 7.365 167.665,7.186 168.204,7.186 168.862 C 7.186 169.661,6.986 170.060,6.587 170.060 C 6.154 170.060,5.988 170.503,5.988 171.657 C 5.988 172.810,5.822 173.253,5.389 173.253 C 4.919 173.253,4.790 173.805,4.790 175.825 C 4.790 177.239,4.611 178.507,4.391 178.643 C 3.893 178.950,3.858 183.633,4.354 183.633 C 4.553 183.633,4.844 184.576,5.001 185.729 C 5.158 186.881,5.470 187.941,5.694 188.083 C 5.919 188.225,6.237 189.123,6.402 190.079 C 6.698 191.803,7.224 193.449,8.249 195.869 C 8.543 196.561,8.782 197.245,8.782 197.390 C 8.782 197.660,10.537 201.654,11.187 202.864 C 13.795 207.721,17.169 219.110,17.167 223.054 C 17.166 224.207,17.345 225.150,17.565 225.150 C 18.223 225.150,18.016 226.420,17.265 226.989 C 16.600 227.494,16.600 227.520,17.265 227.532 C 18.221 227.550,18.313 232.515,17.365 232.879 C 16.877 233.066,16.766 234.034,16.766 238.124 C 16.766 242.213,16.656 243.181,16.168 243.369 C 15.723 243.539,15.569 244.247,15.569 246.117 C 15.569 247.701,15.394 248.694,15.097 248.793 C 14.797 248.893,14.560 250.290,14.449 252.619 C 14.353 254.637,14.107 256.287,13.904 256.287 C 13.697 256.287,13.564 258.034,13.602 260.248 C 13.657 263.430,13.778 264.168,14.220 263.998 C 14.640 263.837,14.773 264.246,14.783 265.726 C 14.790 266.794,15.059 268.013,15.382 268.440 C 15.704 268.866,15.968 269.596,15.968 270.062 C 15.968 274.720,23.516 283.619,35.181 292.714 C 42.094 298.104,47.319 303.991,51.035 310.579 C 52.237 312.708,54.691 317.683,54.704 318.014 C 54.712 318.206,55.065 319.082,55.489 319.960 C 55.913 320.838,56.266 321.784,56.274 322.061 C 56.281 322.339,56.449 322.878,56.646 323.259 C 57.264 324.455,58.183 327.054,58.868 329.541 C 59.231 330.858,59.697 332.248,59.904 332.629 C 60.110 333.011,60.279 333.571,60.279 333.875 C 60.279 334.621,62.618 339.959,63.755 341.808 C 64.259 342.627,64.671 343.410,64.671 343.547 C 64.671 343.995,67.171 347.066,68.927 348.776 C 71.817 351.588,78.001 355.273,81.238 356.110 C 81.896 356.280,83.693 356.771,85.230 357.201 C 86.766 357.631,89.731 358.296,91.816 358.680 C 110.368 362.094,118.548 366.332,132.434 379.723 C 139.096 386.147,139.105 386.156,142.557 388.706 C 150.580 394.633,162.238 396.005,173.453 392.342 C 189.327 387.157,201.543 385.833,211.881 388.178 C 215.839 389.075,220.732 390.412,223.891 391.458 C 242.122 397.497,251.830 395.083,266.467 380.871 C 275.640 371.965,279.952 368.671,286.862 365.296 C 293.880 361.869,298.070 360.584,308.383 358.697 C 312.368 357.968,314.378 357.477,316.780 356.645 C 317.665 356.339,318.596 356.088,318.848 356.088 C 319.588 356.088,324.575 353.690,326.858 352.236 C 332.296 348.772,336.032 343.740,339.112 335.729 C 339.492 334.741,339.951 333.640,340.133 333.283 C 340.315 332.925,340.590 331.937,340.743 331.087 C 340.897 330.237,341.141 329.361,341.286 329.142 C 341.431 328.922,341.877 327.665,342.278 326.347 C 342.679 325.030,343.156 323.593,343.338 323.154 C 343.521 322.715,344.063 321.367,344.543 320.160 C 349.363 308.043,356.479 298.852,367.265 290.810 C 374.555 285.375,382.834 276.105,382.834 273.377 C 382.834 273.006,383.000 272.599,383.203 272.474 C 383.405 272.349,383.692 271.697,383.839 271.026 C 383.987 270.355,384.359 269.325,384.666 268.736 C 384.973 268.147,385.226 267.075,385.227 266.355 C 385.229 265.560,385.465 264.954,385.828 264.815 C 386.543 264.541,386.737 255.090,386.028 255.090 C 385.800 255.090,385.629 253.902,385.629 252.324 C 385.629 250.398,385.447 249.376,385.030 248.959 C 384.603 248.532,384.431 247.492,384.431 245.338 C 384.431 242.917,384.312 242.315,383.832 242.315 C 383.329 242.315,383.233 241.437,383.228 236.826 C 383.222 231.036,382.979 229.070,382.386 230.006 C 382.141 230.392,382.046 230.300,382.042 229.674 C 382.039 229.198,382.260 228.734,382.535 228.642 C 382.892 228.522,383.039 227.234,383.052 224.118 C 383.063 221.515,383.322 218.796,383.695 217.365 C 384.540 214.119,386.701 207.829,387.809 205.389 C 388.709 203.407,391.424 196.938,391.997 195.409 C 393.101 192.461,393.342 191.655,393.507 190.335 C 393.610 189.520,393.945 188.644,394.252 188.390 C 394.559 188.135,394.810 187.236,394.810 186.392 C 394.810 185.234,395.019 184.747,395.663 184.402 C 396.598 183.902,396.572 178.032,395.633 177.719 C 395.393 177.639,395.210 176.462,395.210 175.004 C 395.210 173.084,395.057 172.372,394.611 172.200 C 394.281 172.074,394.012 171.541,394.012 171.015 C 394.012 170.432,393.779 170.060,393.413 170.060 C 392.981 170.060,392.814 169.616,392.814 168.463 C 392.814 167.585,392.635 166.866,392.415 166.866 C 392.196 166.866,392.016 166.597,392.016 166.267 C 392.016 165.938,391.747 165.669,391.417 165.669 C 391.043 165.669,390.818 165.290,390.818 164.658 C 390.818 164.102,390.549 163.544,390.220 163.418 C 389.890 163.291,389.621 162.834,389.621 162.402 C 389.621 161.573,387.591 159.281,386.857 159.281 C 386.621 159.281,386.427 158.773,386.427 158.151 C 386.427 157.354,386.133 156.864,385.429 156.487 C 384.880 156.193,384.431 155.714,384.431 155.422 C 384.431 155.129,384.162 154.890,383.832 154.890 C 383.460 154.890,383.234 154.513,383.234 153.892 C 383.234 153.271,383.007 152.894,382.635 152.894 C 382.305 152.894,382.036 152.625,382.036 152.295 C 382.036 151.966,381.856 151.697,381.637 151.697 C 381.417 151.697,381.238 151.427,381.238 151.098 C 381.238 150.768,380.968 150.499,380.639 150.499 C 380.266 150.499,380.040 150.122,380.040 149.501 C 380.040 148.880,379.814 148.503,379.441 148.503 C 379.064 148.503,378.842 148.123,378.842 147.476 C 378.842 146.424,378.036 145.309,377.274 145.309 C 377.039 145.309,376.846 144.770,376.846 144.112 C 376.846 143.313,376.647 142.914,376.248 142.914 C 375.875 142.914,375.649 142.537,375.649 141.916 C 375.649 141.367,375.469 140.918,375.250 140.918 C 375.030 140.918,374.850 140.572,374.850 140.148 C 374.850 139.725,374.581 139.109,374.251 138.780 C 373.922 138.450,373.653 137.623,373.653 136.942 C 373.653 136.209,373.408 135.610,373.054 135.474 C 372.664 135.324,372.455 134.703,372.455 133.690 C 372.455 132.575,372.286 132.136,371.856 132.136 C 371.424 132.136,371.257 131.692,371.257 130.539 C 371.257 129.661,371.078 128.942,370.858 128.942 C 370.633 128.942,370.459 127.811,370.459 126.347 C 370.459 124.307,370.331 123.752,369.860 123.752 C 369.370 123.752,369.261 123.065,369.261 119.960 C 369.261 116.855,369.153 116.168,368.663 116.168 C 368.160 116.168,368.064 115.303,368.064 110.778 C 368.064 107.452,367.911 105.389,367.665 105.389 C 367.435 105.389,367.265 104.141,367.265 102.444 C 367.265 100.313,367.100 99.362,366.667 99.002 C 366.323 98.717,366.068 97.846,366.068 96.957 C 366.068 95.847,365.898 95.409,365.469 95.409 C 365.039 95.409,364.870 94.970,364.870 93.855 C 364.870 92.842,364.662 92.221,364.271 92.071 C 363.942 91.945,363.673 91.477,363.673 91.030 C 363.673 90.584,363.493 90.220,363.273 90.220 C 363.054 90.220,362.874 89.950,362.874 89.621 C 362.874 89.291,362.605 89.022,362.275 89.022 C 361.903 89.022,361.677 88.645,361.677 88.024 C 361.677 87.403,361.450 87.026,361.078 87.026 C 360.749 87.026,360.479 86.832,360.479 86.596 C 360.479 86.037,358.274 83.832,357.715 83.832 C 357.479 83.832,357.285 83.563,357.285 83.234 C 357.285 82.861,356.908 82.635,356.287 82.635 C 355.666 82.635,355.289 82.409,355.289 82.036 C 355.289 81.707,355.039 81.437,354.733 81.437 C 354.427 81.437,354.074 81.168,353.947 80.838 C 353.821 80.509,353.353 80.240,352.907 80.240 C 352.461 80.240,352.096 80.060,352.096 79.840 C 352.096 79.621,351.826 79.441,351.497 79.441 C 351.168 79.441,350.898 79.172,350.898 78.842 C 350.898 78.477,350.526 78.244,349.943 78.244 C 349.417 78.244,348.884 77.974,348.758 77.645 C 348.631 77.315,348.073 77.046,347.518 77.046 C 346.962 77.046,346.507 76.866,346.507 76.647 C 346.507 76.427,346.058 76.248,345.509 76.248 C 344.888 76.248,344.511 76.021,344.511 75.649 C 344.511 75.216,344.067 75.050,342.914 75.050 C 341.761 75.050,341.317 74.884,341.317 74.451 C 341.317 74.052,340.918 73.852,340.120 73.852 C 339.321 73.852,338.922 73.653,338.922 73.253 C 338.922 72.881,338.545 72.655,337.924 72.655 C 337.375 72.655,336.926 72.475,336.926 72.255 C 336.926 72.036,336.477 71.856,335.928 71.856 C 335.307 71.856,334.930 71.630,334.930 71.257 C 334.930 70.928,334.680 70.659,334.374 70.659 C 334.068 70.659,333.715 70.389,333.588 70.060 C 333.462 69.731,332.904 69.461,332.348 69.461 C 331.792 69.461,331.337 69.281,331.337 69.062 C 331.337 68.842,330.888 68.663,330.339 68.663 C 329.718 68.663,329.341 68.436,329.341 68.064 C 329.341 67.735,329.072 67.465,328.743 67.465 C 328.413 67.465,328.144 67.273,328.144 67.037 C 328.144 66.276,327.029 65.469,325.977 65.469 C 325.330 65.469,324.950 65.247,324.950 64.870 C 324.950 64.541,324.770 64.271,324.551 64.271 C 324.331 64.271,324.152 64.002,324.152 63.673 C 324.152 63.343,323.963 63.074,323.733 63.074 C 323.503 63.074,322.899 62.625,322.390 62.076 C 321.882 61.527,321.261 61.078,321.012 61.078 C 320.763 61.078,320.559 60.884,320.559 60.648 C 320.559 60.089,318.354 57.884,317.795 57.884 C 317.559 57.884,317.365 57.615,317.365 57.285 C 317.365 56.956,317.186 56.687,316.966 56.687 C 316.747 56.687,316.567 56.417,316.567 56.088 C 316.567 55.758,316.297 55.489,315.968 55.489 C 315.639 55.489,315.369 55.309,315.369 55.090 C 315.369 54.870,315.100 54.691,314.770 54.691 C 314.390 54.691,314.172 54.308,314.172 53.639 C 314.172 53.029,313.752 52.197,313.174 51.662 C 312.625 51.153,312.176 50.453,312.176 50.106 C 312.176 49.760,311.906 49.373,311.577 49.246 C 311.248 49.120,310.978 48.766,310.978 48.460 C 310.978 48.154,310.709 47.904,310.379 47.904 C 310.007 47.904,309.780 47.527,309.780 46.906 C 309.780 46.357,309.601 45.908,309.381 45.908 C 309.162 45.908,308.982 45.459,308.982 44.910 C 308.982 44.289,308.756 43.912,308.383 43.912 C 308.054 43.912,307.784 43.643,307.784 43.313 C 307.784 42.984,307.515 42.715,307.186 42.715 C 306.809 42.715,306.587 42.334,306.587 41.688 C 306.587 40.635,305.780 39.521,305.019 39.521 C 304.783 39.521,304.591 39.097,304.591 38.579 C 304.591 38.040,304.164 37.316,303.593 36.887 C 303.044 36.475,302.595 35.911,302.595 35.634 C 302.595 35.357,302.325 35.130,301.996 35.130 C 301.623 35.130,301.397 34.753,301.397 34.132 C 301.397 33.511,301.171 33.134,300.798 33.134 C 300.469 33.134,300.200 32.864,300.200 32.535 C 300.200 32.206,299.930 31.936,299.601 31.936 C 299.271 31.936,299.002 31.759,299.002 31.541 C 299.002 30.828,297.642 29.541,296.889 29.541 C 296.079 29.541,295.010 28.648,295.010 27.973 C 295.010 27.737,294.741 27.545,294.411 27.545 C 294.082 27.545,293.812 27.275,293.812 26.946 C 293.812 26.577,293.438 26.347,292.838 26.347 C 292.302 26.347,291.752 26.168,291.617 25.948 C 291.481 25.729,290.932 25.549,290.396 25.549 C 289.796 25.549,289.421 25.319,289.421 24.950 C 289.421 24.490,288.911 24.351,287.226 24.351 C 285.540 24.351,285.030 24.212,285.030 23.752 C 285.030 23.230,282.861 23.154,267.907 23.154 C 253.055 23.154,250.754 23.074,250.554 22.555 C 250.378 22.096,249.622 21.956,247.318 21.956 C 245.580 21.956,244.311 21.788,244.311 21.557 C 244.311 21.337,243.612 21.158,242.757 21.158 C 241.744 21.158,241.123 20.949,240.973 20.559 C 240.822 20.164,240.197 19.960,239.134 19.960 C 237.970 19.960,237.525 19.795,237.525 19.361 C 237.525 18.929,237.081 18.762,235.928 18.762 C 235.050 18.762,234.331 18.583,234.331 18.363 C 234.331 18.144,233.882 17.964,233.333 17.964 C 232.712 17.964,232.335 17.738,232.335 17.365 C 232.335 16.993,231.958 16.766,231.337 16.766 C 230.716 16.766,230.339 16.540,230.339 16.168 C 230.339 15.838,230.070 15.569,229.741 15.569 C 229.411 15.569,229.142 15.389,229.142 15.170 C 229.142 14.950,228.687 14.770,228.131 14.770 C 227.575 14.770,227.017 14.501,226.891 14.172 C 226.764 13.842,226.231 13.573,225.706 13.573 C 225.123 13.573,224.750 13.340,224.750 12.974 C 224.750 12.645,224.481 12.375,224.152 12.375 C 223.822 12.375,223.553 12.106,223.553 11.776 C 223.553 11.404,223.176 11.178,222.555 11.178 C 222.006 11.178,221.557 10.998,221.557 10.778 C 221.557 10.559,221.108 10.379,220.559 10.379 C 219.938 10.379,219.561 10.153,219.561 9.780 C 219.561 9.451,219.311 9.182,219.005 9.182 C 218.699 9.182,218.345 8.912,218.219 8.583 C 218.093 8.253,217.534 7.984,216.979 7.984 C 216.423 7.984,215.968 7.804,215.968 7.585 C 215.968 7.365,215.250 7.186,214.371 7.186 C 213.218 7.186,212.774 7.019,212.774 6.587 C 212.774 6.214,212.397 5.988,211.776 5.988 C 211.155 5.988,210.778 5.762,210.778 5.389 C 210.778 4.936,210.287 4.790,208.754 4.790 C 207.487 4.790,206.505 4.566,206.131 4.192 C 205.549 3.610,196.271 3.356,194.311 3.868 M204.206 56.130 C 206.594 57.238,207.978 58.599,209.360 61.199 L 210.379 63.116 210.379 75.624 L 210.379 88.133 211.876 88.806 C 214.635 90.048,215.968 90.798,215.968 91.109 C 215.968 91.278,216.333 91.417,216.779 91.417 C 217.225 91.417,217.693 91.687,217.820 92.016 C 217.946 92.345,218.227 92.615,218.445 92.615 C 220.613 92.615,229.940 105.568,229.940 108.579 C 229.940 108.967,230.210 109.929,230.539 110.717 C 231.390 112.754,231.388 123.861,230.536 125.495 C 230.208 126.124,229.940 127.135,229.940 127.741 C 229.940 128.348,229.671 129.068,229.341 129.341 C 229.012 129.615,228.743 130.161,228.743 130.555 C 228.743 130.950,228.434 131.811,228.056 132.469 C 227.397 133.617,227.403 133.734,228.214 135.395 C 228.679 136.347,229.731 138.563,230.553 140.319 C 231.374 142.076,233.712 146.926,235.749 151.098 C 237.785 155.269,239.553 159.001,239.677 159.390 C 239.981 160.346,241.062 160.706,241.956 160.148 C 242.727 159.666,244.911 159.054,247.904 158.482 C 248.892 158.293,250.240 157.962,250.898 157.745 C 255.978 156.074,273.477 156.850,277.539 158.927 C 277.921 159.122,278.650 159.281,279.160 159.281 C 279.670 159.281,280.436 159.545,280.862 159.868 C 281.288 160.190,281.945 160.459,282.322 160.466 C 283.808 160.494,293.528 165.328,294.944 166.743 C 295.363 167.162,297.087 167.143,297.221 166.717 C 297.457 165.971,298.870 163.673,299.093 163.673 C 299.262 163.673,299.401 163.474,299.401 163.231 C 299.401 162.988,299.940 162.109,300.599 161.277 C 301.257 160.446,301.796 159.648,301.796 159.504 C 301.796 159.206,304.931 154.591,305.689 153.775 C 305.963 153.479,306.188 153.083,306.188 152.896 C 306.188 152.296,308.622 150.100,309.286 150.100 C 311.804 150.100,312.398 153.722,310.203 155.689 C 309.722 156.119,307.385 159.723,307.385 160.033 C 307.385 160.214,306.981 160.809,306.487 161.355 C 305.993 161.900,305.243 162.959,304.820 163.708 C 304.398 164.457,303.949 165.160,303.822 165.269 C 303.297 165.726,300.599 169.950,300.599 170.316 C 300.599 170.534,301.992 172.138,303.695 173.880 C 305.398 175.621,307.193 177.539,307.683 178.142 C 309.352 180.194,312.974 185.186,312.974 185.435 C 312.974 185.571,313.423 186.271,313.972 186.990 C 314.521 187.710,314.970 188.574,314.970 188.911 C 314.970 189.248,315.240 189.747,315.569 190.020 C 315.898 190.293,316.168 190.738,316.168 191.007 C 316.168 191.277,316.585 192.288,317.095 193.254 C 317.605 194.220,318.346 195.998,318.740 197.206 C 319.135 198.413,319.623 199.724,319.824 200.120 C 320.026 200.515,320.377 201.682,320.604 202.714 C 321.905 208.623,322.223 210.492,322.426 213.425 L 322.650 216.670 325.497 217.103 C 327.062 217.341,330.768 217.630,333.733 217.744 C 340.093 217.989,343.683 218.580,344.380 219.496 C 345.911 221.509,343.878 223.791,340.918 223.382 C 336.856 222.821,331.671 222.402,327.345 222.285 L 322.754 222.161 322.508 224.554 C 322.158 227.954,320.683 234.871,319.743 237.525 C 317.888 242.761,316.881 245.110,316.490 245.110 C 316.313 245.110,316.168 245.373,316.168 245.694 C 316.168 246.310,312.780 252.116,311.891 253.025 C 311.605 253.317,311.179 253.916,310.943 254.357 C 309.154 257.700,300.012 266.133,293.897 270.082 C 293.738 270.185,294.427 271.796,296.620 276.447 C 301.133 286.021,300.936 284.971,301.077 300.154 L 301.198 313.059 299.450 314.613 C 296.425 317.303,292.834 316.793,289.227 313.163 C 288.785 312.717,288.035 312.089,287.560 311.765 C 286.646 311.143,281.906 307.319,278.244 304.249 C 275.542 301.985,271.968 298.305,271.332 297.131 C 270.809 296.167,269.927 294.383,264.467 283.234 C 262.424 279.062,259.907 273.852,258.874 271.657 C 257.840 269.461,254.860 263.331,252.250 258.035 C 249.640 252.739,247.505 248.225,247.505 248.004 C 247.505 246.832,246.372 246.690,243.657 247.522 C 242.151 247.984,239.930 248.635,238.723 248.968 C 237.515 249.302,235.979 249.736,235.308 249.934 C 233.472 250.476,230.407 251.113,227.884 251.475 C 226.644 251.654,225.422 251.927,225.170 252.083 C 224.917 252.240,223.238 252.531,221.437 252.732 C 219.637 252.932,217.086 253.260,215.768 253.461 C 212.497 253.958,187.648 253.972,184.431 253.478 C 183.004 253.259,180.938 252.985,179.840 252.870 C 178.743 252.755,176.497 252.392,174.850 252.064 C 173.204 251.735,170.868 251.275,169.661 251.041 C 168.453 250.807,166.567 250.380,165.469 250.093 C 160.554 248.809,158.125 248.129,156.001 247.443 C 152.800 246.410,152.842 246.391,151.364 249.603 C 150.632 251.194,148.181 256.267,145.918 260.878 C 143.656 265.489,141.132 270.699,140.311 272.455 C 128.506 297.695,127.637 299.046,118.315 306.641 C 115.522 308.917,112.055 311.767,110.611 312.976 C 105.053 317.625,100.821 317.480,98.531 312.562 C 97.388 310.107,98.134 287.922,99.490 284.032 C 100.233 281.901,102.624 276.889,113.772 254.092 C 116.134 249.261,118.644 244.052,119.351 242.515 C 120.057 240.978,121.336 238.337,122.194 236.647 C 123.729 233.620,124.089 232.335,123.404 232.335 C 122.907 232.335,111.553 224.163,108.896 221.893 C 108.394 221.464,107.188 220.450,106.215 219.639 C 103.767 217.598,92.379 206.226,90.346 203.792 C 89.429 202.695,88.082 201.045,87.353 200.128 C 86.624 199.210,85.619 197.952,85.119 197.333 C 78.200 188.760,77.769 185.433,83.109 181.809 C 84.056 181.167,84.920 180.533,85.030 180.400 C 85.140 180.268,88.954 177.438,93.505 174.112 C 104.751 165.894,105.147 165.871,110.420 173.146 C 116.562 181.618,124.530 190.236,130.140 194.472 C 130.908 195.053,131.896 195.860,132.336 196.267 C 134.049 197.853,137.690 200.375,138.594 200.602 C 139.536 200.839,142.452 195.596,147.591 184.431 C 149.797 179.637,151.112 177.040,151.397 176.913 C 151.562 176.840,151.697 176.457,151.697 176.064 C 151.697 175.670,151.966 175.124,152.295 174.850 C 152.625 174.577,152.894 174.157,152.894 173.918 C 152.894 173.679,153.632 171.949,154.533 170.075 C 155.434 168.200,156.467 166.038,156.829 165.269 C 157.190 164.501,157.620 163.812,157.784 163.739 C 157.949 163.666,158.081 163.397,158.078 163.140 C 158.074 162.884,159.620 159.531,161.512 155.689 C 163.404 151.846,165.404 147.715,165.955 146.507 C 166.884 144.471,168.762 140.644,169.630 139.019 C 169.834 138.636,170.103 138.054,170.228 137.725 C 170.352 137.395,170.614 136.856,170.809 136.527 C 172.206 134.175,172.229 133.816,171.124 131.633 C 170.539 130.476,170.060 129.328,170.060 129.082 C 170.060 128.836,169.792 128.120,169.464 127.491 C 169.136 126.862,168.866 125.710,168.865 124.930 C 168.863 124.151,168.672 123.322,168.439 123.089 C 167.342 121.993,168.438 111.186,170.072 106.986 C 170.541 105.778,171.021 104.476,171.138 104.092 C 171.255 103.708,171.490 103.393,171.660 103.393 C 171.830 103.393,172.082 102.944,172.220 102.395 C 172.358 101.846,172.647 101.397,172.862 101.397 C 173.077 101.397,173.253 101.191,173.253 100.939 C 173.253 99.872,179.878 92.847,181.315 92.391 C 181.711 92.265,182.036 91.994,182.036 91.789 C 182.036 91.585,182.305 91.417,182.635 91.417 C 182.964 91.417,183.234 91.282,183.234 91.118 C 183.234 90.953,184.491 90.215,186.028 89.477 L 188.822 88.136 188.822 76.833 C 188.822 60.486,189.900 57.545,196.607 55.578 C 199.953 54.597,201.076 54.678,204.206 56.130 M197.405 101.708 C 192.413 102.005,187.767 105.382,184.749 110.906 C 183.238 113.673,182.884 121.612,184.168 123.952 C 184.530 124.611,184.827 125.374,184.828 125.649 C 184.829 125.923,185.010 126.148,185.230 126.148 C 185.449 126.148,185.629 126.395,185.629 126.698 C 185.629 128.218,190.833 132.449,194.404 133.832 C 196.418 134.612,203.756 134.837,204.192 134.132 C 204.327 133.912,204.722 133.733,205.070 133.733 C 207.273 133.733,213.093 128.766,214.529 125.660 C 216.239 121.960,217.116 115.081,215.968 114.371 C 215.749 114.236,215.569 113.854,215.569 113.524 C 215.569 112.634,213.785 108.923,212.839 107.847 C 212.388 107.333,211.964 106.793,211.897 106.647 C 210.621 103.841,203.325 101.354,197.405 101.708 M199.323 150.998 C 198.704 151.821,195.210 159.160,195.210 159.638 C 195.210 159.881,195.030 160.080,194.810 160.080 C 194.591 160.080,194.411 160.323,194.411 160.620 C 194.411 160.917,192.734 164.555,190.684 168.704 C 185.930 178.325,184.431 181.519,184.431 182.028 C 184.431 182.252,184.251 182.435,184.032 182.435 C 183.812 182.435,183.633 182.772,183.633 183.185 C 183.633 183.597,183.363 184.158,183.034 184.431 C 182.705 184.704,182.435 185.149,182.435 185.419 C 182.435 185.688,181.968 186.789,181.398 187.865 C 180.827 188.940,180.124 190.269,179.836 190.818 C 179.547 191.367,178.558 193.433,177.637 195.409 C 176.717 197.385,174.276 202.422,172.213 206.603 C 168.026 215.089,168.033 215.068,169.561 215.376 C 170.165 215.497,171.287 215.802,172.056 216.053 C 172.824 216.303,174.172 216.648,175.050 216.819 C 175.928 216.990,178.084 217.411,179.840 217.755 C 193.024 220.337,212.668 219.830,225.549 216.577 C 226.976 216.216,228.728 215.822,229.441 215.701 C 231.000 215.437,231.152 214.419,229.979 212.088 C 228.974 210.091,216.009 183.438,211.574 174.251 C 210.726 172.495,208.332 167.555,206.253 163.273 C 204.175 158.992,201.962 154.371,201.337 153.004 C 200.143 150.395,199.934 150.186,199.323 150.998 M272.255 176.767 C 270.450 177.993,269.887 178.960,269.874 180.860 C 269.844 184.896,274.933 186.885,277.797 183.956 C 281.398 180.272,276.483 173.897,272.255 176.767 M296.356 227.154 C 294.570 228.048,293.893 229.867,294.460 232.243 C 295.379 236.089,300.840 236.657,302.754 233.105 C 304.968 228.998,300.664 224.995,296.356 227.154 "
        stroke="none"
        fill="#fbfbfb"
        fill-rule="evenodd"
    ></path>
    <path
        id="path3"
        d="M199.002 54.962 C 190.176 56.593,188.822 59.488,188.822 76.733 C 188.822 86.922,188.759 87.987,188.124 88.498 C 187.618 88.906,187.783 88.887,188.723 88.432 L 190.020 87.804 190.020 75.285 C 190.020 62.101,189.996 62.293,191.959 59.553 C 194.848 55.519,202.653 54.714,206.196 58.084 C 209.452 61.181,209.736 62.538,209.986 76.248 L 210.207 88.423 210.293 75.770 L 210.379 63.116 209.360 61.199 C 207.227 57.186,202.470 54.322,199.002 54.962 M179.042 94.080 C 178.164 94.867,177.804 95.325,178.244 95.098 C 178.983 94.714,181.188 92.594,180.808 92.631 C 180.715 92.641,179.920 93.292,179.042 94.080 M221.956 96.008 C 222.701 96.776,223.400 97.405,223.510 97.405 C 223.620 97.405,223.100 96.776,222.355 96.008 C 221.610 95.240,220.911 94.611,220.801 94.611 C 220.692 94.611,221.211 95.240,221.956 96.008 M175.424 97.904 L 174.251 99.202 175.549 98.029 C 176.758 96.936,177.030 96.607,176.721 96.607 C 176.653 96.607,176.069 97.191,175.424 97.904 M196.707 101.679 C 197.201 101.774,198.009 101.774,198.503 101.679 C 198.997 101.584,198.593 101.506,197.605 101.506 C 196.617 101.506,196.213 101.584,196.707 101.679 M201.098 101.679 C 201.592 101.774,202.400 101.774,202.894 101.679 C 203.388 101.584,202.984 101.506,201.996 101.506 C 201.008 101.506,200.604 101.584,201.098 101.679 M170.524 105.606 C 169.855 107.074,169.983 107.387,170.706 106.053 C 171.044 105.429,171.245 104.845,171.154 104.753 C 171.063 104.662,170.779 105.046,170.524 105.606 M229.066 106.786 C 229.268 107.226,229.533 107.854,229.655 108.184 C 229.847 108.701,229.881 108.698,229.909 108.160 C 229.926 107.818,229.661 107.189,229.319 106.763 C 228.708 106.000,228.704 106.001,229.066 106.786 M214.371 110.257 C 214.371 110.384,214.640 111.002,214.968 111.631 C 215.296 112.260,215.559 112.505,215.554 112.176 C 215.548 111.846,215.280 111.228,214.957 110.802 C 214.635 110.376,214.371 110.131,214.371 110.257 M230.853 113.573 C 230.856 114.671,230.933 115.072,231.025 114.466 C 231.117 113.859,231.114 112.961,231.020 112.470 C 230.925 111.979,230.850 112.475,230.853 113.573 M168.313 113.189 C 168.176 113.546,168.085 114.497,168.111 115.302 C 168.154 116.650,168.184 116.609,168.489 114.783 C 168.830 112.745,168.753 112.043,168.313 113.189 M183.326 114.970 C 183.326 115.739,183.408 116.053,183.509 115.669 C 183.609 115.284,183.609 114.656,183.509 114.271 C 183.408 113.887,183.326 114.202,183.326 114.970 M182.943 118.164 C 182.943 119.152,183.021 119.556,183.116 119.062 C 183.211 118.568,183.211 117.759,183.116 117.265 C 183.021 116.771,182.943 117.176,182.943 118.164 M216.468 117.964 C 216.472 118.842,216.554 119.155,216.650 118.658 C 216.745 118.161,216.741 117.443,216.642 117.061 C 216.542 116.680,216.464 117.086,216.468 117.964 M168.064 121.267 C 168.064 122.169,168.226 123.007,168.425 123.130 C 168.631 123.258,168.693 122.625,168.570 121.657 C 168.283 119.409,168.064 119.240,168.064 121.267 M183.326 121.357 C 183.326 122.126,183.408 122.440,183.509 122.056 C 183.609 121.672,183.609 121.043,183.509 120.659 C 183.408 120.274,183.326 120.589,183.326 121.357 M230.853 122.754 C 230.856 123.852,230.933 124.254,231.025 123.647 C 231.117 123.040,231.114 122.142,231.020 121.651 C 230.925 121.160,230.850 121.657,230.853 122.754 M211.598 129.457 C 210.182 131.040,209.636 131.796,210.385 131.138 C 211.891 129.814,212.396 129.267,213.606 127.645 C 214.950 125.844,214.324 126.409,211.598 129.457 M170.075 129.341 C 170.081 129.671,170.349 130.289,170.671 130.715 C 171.425 131.711,171.420 131.342,170.661 129.886 C 170.333 129.257,170.069 129.012,170.075 129.341 M190.220 131.943 C 190.659 132.301,191.377 132.770,191.816 132.985 L 192.615 133.377 191.816 132.727 C 191.377 132.370,190.659 131.901,190.220 131.685 L 189.421 131.293 190.220 131.943 M171.731 134.610 C 171.442 135.335,171.037 136.198,170.830 136.527 C 170.623 136.856,170.352 137.395,170.228 137.725 C 170.103 138.054,169.834 138.636,169.630 139.019 C 168.762 140.644,166.884 144.471,165.955 146.507 C 165.404 147.715,163.404 151.846,161.512 155.689 C 159.620 159.531,158.074 162.884,158.078 163.140 C 158.081 163.397,157.949 163.666,157.784 163.739 C 157.620 163.812,157.190 164.501,156.829 165.269 C 156.467 166.038,155.434 168.200,154.533 170.075 C 153.632 171.949,152.894 173.679,152.894 173.918 C 152.894 174.157,152.625 174.577,152.295 174.850 C 151.966 175.124,151.697 175.670,151.697 176.064 C 151.697 176.457,151.562 176.840,151.397 176.913 C 151.112 177.040,149.797 179.637,147.591 184.431 C 142.452 195.596,139.536 200.839,138.594 200.602 C 137.690 200.375,134.049 197.853,132.336 196.267 C 131.896 195.860,130.908 195.053,130.140 194.472 C 124.530 190.236,116.562 181.618,110.420 173.146 C 105.147 165.871,104.751 165.894,93.505 174.112 C 88.954 177.438,85.140 180.268,85.030 180.400 C 84.920 180.533,84.056 181.167,83.109 181.809 C 77.769 185.433,78.200 188.760,85.119 197.333 C 85.619 197.952,86.624 199.210,87.353 200.128 C 88.082 201.045,89.429 202.695,90.346 203.792 C 92.379 206.226,103.767 217.598,106.215 219.639 C 107.188 220.450,108.394 221.464,108.896 221.893 C 111.553 224.163,122.907 232.335,123.404 232.335 C 124.089 232.335,123.729 233.620,122.194 236.647 C 121.336 238.337,120.057 240.978,119.351 242.515 C 118.644 244.052,116.134 249.261,113.772 254.092 C 102.624 276.889,100.233 281.901,99.490 284.032 C 98.134 287.922,97.388 310.107,98.531 312.562 C 100.821 317.480,105.053 317.625,110.611 312.976 C 112.055 311.767,115.522 308.917,118.315 306.641 C 127.637 299.046,128.506 297.695,140.311 272.455 C 141.132 270.699,143.656 265.489,145.918 260.878 C 148.181 256.267,150.632 251.194,151.364 249.603 C 152.842 246.391,152.800 246.410,156.001 247.443 C 158.125 248.129,160.554 248.809,165.469 250.093 C 166.567 250.380,168.453 250.807,169.661 251.041 C 170.868 251.275,173.204 251.735,174.850 252.064 C 176.497 252.392,178.743 252.755,179.840 252.870 C 180.938 252.985,183.004 253.259,184.431 253.478 C 187.648 253.972,212.497 253.958,215.768 253.461 C 217.086 253.260,219.637 252.932,221.437 252.732 C 223.238 252.531,224.917 252.240,225.170 252.083 C 225.422 251.927,226.644 251.654,227.884 251.475 C 230.407 251.113,233.472 250.476,235.308 249.934 C 235.979 249.736,237.515 249.302,238.723 248.968 C 239.930 248.635,242.151 247.984,243.657 247.522 C 246.372 246.690,247.505 246.832,247.505 248.004 C 247.505 248.225,249.640 252.739,252.250 258.035 C 254.860 263.331,257.840 269.461,258.874 271.657 C 259.907 273.852,262.424 279.062,264.467 283.234 C 269.927 294.383,270.809 296.167,271.332 297.131 C 271.968 298.305,275.542 301.985,278.244 304.249 C 281.906 307.319,286.646 311.143,287.560 311.765 C 288.035 312.089,288.785 312.717,289.227 313.163 C 292.834 316.793,296.425 317.303,299.450 314.613 L 301.198 313.059 301.077 300.154 C 300.936 284.971,301.133 286.021,296.620 276.447 C 294.427 271.796,293.738 270.185,293.897 270.082 C 300.012 266.133,309.154 257.700,310.943 254.357 C 311.179 253.916,311.605 253.317,311.891 253.025 C 312.694 252.204,316.168 246.338,316.168 245.803 C 316.168 245.540,315.333 246.759,314.314 248.511 C 309.788 256.287,302.541 263.904,295.110 268.696 C 292.597 270.316,292.622 270.015,294.657 274.237 C 296.686 278.446,298.616 282.573,299.051 283.633 C 299.980 285.894,300.599 293.405,300.599 302.409 L 300.599 311.901 299.604 313.205 C 297.081 316.513,293.925 316.424,290.020 312.935 C 288.956 311.984,285.990 309.511,283.842 307.784 C 282.886 307.016,281.909 306.208,281.670 305.988 C 281.432 305.768,280.338 304.870,279.241 303.992 C 275.139 300.710,269.860 294.424,269.860 292.822 C 269.860 292.566,266.012 284.475,261.644 275.549 C 258.187 268.482,252.661 257.142,248.856 249.301 C 247.283 246.063,246.221 245.222,244.988 246.241 C 244.726 246.458,243.792 246.765,242.914 246.923 C 242.036 247.081,241.138 247.321,240.918 247.455 C 240.433 247.752,237.509 248.616,235.329 249.106 C 234.451 249.304,232.475 249.755,230.938 250.109 C 229.401 250.464,226.976 250.919,225.549 251.121 C 224.122 251.324,222.685 251.603,222.355 251.742 C 222.026 251.881,220.230 252.146,218.363 252.331 C 216.497 252.516,213.263 252.848,211.178 253.069 C 206.176 253.599,193.494 253.597,189.222 253.064 C 187.355 252.832,184.122 252.498,182.036 252.322 C 179.950 252.147,177.974 251.887,177.645 251.746 C 177.315 251.605,175.878 251.324,174.451 251.121 C 173.024 250.919,170.599 250.464,169.062 250.109 C 167.525 249.755,165.549 249.313,164.671 249.127 C 163.792 248.941,162.535 248.598,161.876 248.366 C 161.218 248.133,159.601 247.653,158.283 247.298 C 156.966 246.943,155.476 246.485,154.971 246.280 C 153.266 245.588,152.204 245.828,151.756 247.006 C 151.526 247.610,150.983 248.733,150.548 249.501 C 150.114 250.269,149.096 252.335,148.285 254.092 C 147.475 255.848,144.768 261.441,142.268 266.521 C 139.769 271.600,137.725 276.032,137.725 276.368 C 137.725 276.704,137.590 277.039,137.425 277.112 C 137.260 277.186,136.525 278.503,135.791 280.040 C 135.057 281.577,134.301 283.104,134.113 283.433 C 133.924 283.762,133.201 285.200,132.506 286.627 C 126.434 299.104,126.387 299.167,118.171 305.788 C 117.218 306.557,114.446 308.822,112.011 310.822 C 105.651 316.048,104.828 316.389,101.940 314.994 C 99.074 313.609,98.619 312.066,99.044 305.190 C 99.207 302.555,99.354 297.422,99.371 293.784 C 99.406 286.176,99.566 285.437,102.613 278.842 C 103.323 277.305,104.193 275.419,104.547 274.651 C 104.900 273.882,105.279 273.164,105.389 273.054 C 105.499 272.944,105.880 272.226,106.235 271.457 C 106.855 270.116,108.982 265.818,109.744 264.368 C 109.944 263.986,110.551 262.685,111.091 261.477 C 112.093 259.238,117.856 247.375,120.624 241.855 C 121.466 240.175,122.156 238.513,122.156 238.163 C 122.156 237.812,122.296 237.525,122.467 237.525 C 122.763 237.525,123.246 236.551,124.396 233.637 L 124.906 232.343 120.836 229.671 C 118.598 228.201,116.707 226.852,116.633 226.673 C 116.560 226.494,116.261 226.347,115.968 226.347 C 115.675 226.347,115.376 226.207,115.303 226.034 C 115.230 225.862,114.002 224.834,112.575 223.749 C 111.148 222.664,109.800 221.638,109.581 221.469 C 99.949 214.046,79.791 191.104,79.851 187.633 C 79.892 185.250,87.252 179.015,101.266 169.492 C 103.242 168.149,107.366 168.557,107.383 170.098 C 107.387 170.503,112.201 177.038,112.599 177.179 C 112.805 177.252,112.974 177.491,112.974 177.710 C 112.974 178.572,125.290 191.620,128.549 194.212 C 129.101 194.651,130.449 195.748,131.543 196.650 C 134.736 199.282,138.993 202.054,139.526 201.850 C 140.052 201.648,147.448 186.816,157.468 165.868 C 158.386 163.948,165.799 148.719,170.331 139.440 C 171.533 136.981,172.457 134.591,172.386 134.130 C 172.276 133.426,172.171 133.503,171.731 134.610 M227.025 133.870 C 226.904 134.186,227.133 135.138,227.534 135.985 C 227.936 136.832,230.447 142.016,233.115 147.505 C 235.784 152.994,238.329 158.249,238.772 159.182 C 239.674 161.084,240.407 161.281,243.006 160.324 C 243.834 160.019,245.409 159.477,246.507 159.120 C 247.605 158.763,247.964 158.549,247.305 158.644 C 245.339 158.928,242.737 159.660,241.956 160.148 C 241.062 160.706,239.981 160.346,239.677 159.390 C 239.553 159.001,237.786 155.269,235.751 151.098 C 233.716 146.926,231.503 142.345,230.833 140.918 C 230.163 139.491,229.082 137.192,228.431 135.809 C 227.704 134.266,227.161 133.517,227.025 133.870 M198.503 134.822 C 199.326 134.908,200.674 134.908,201.497 134.822 C 202.320 134.736,201.647 134.665,200.000 134.665 C 198.353 134.665,197.680 134.736,198.503 134.822 M199.155 150.103 C 198.801 150.309,198.123 151.337,197.650 152.385 C 197.176 153.434,196.626 154.561,196.426 154.890 C 196.226 155.220,195.485 156.747,194.780 158.283 C 194.075 159.820,191.618 164.940,189.319 169.661 C 179.025 190.803,177.469 194.010,175.953 197.206 C 175.068 199.072,172.825 203.684,170.968 207.456 C 167.502 214.495,167.147 215.968,168.915 215.968 C 169.354 215.968,170.058 216.153,170.480 216.378 C 170.901 216.604,172.102 216.971,173.148 217.193 C 179.139 218.469,180.926 218.803,183.633 219.153 C 185.279 219.366,187.794 219.721,189.222 219.941 C 192.598 220.464,207.437 220.460,210.778 219.936 C 212.206 219.712,214.721 219.363,216.367 219.161 C 220.364 218.671,224.615 217.834,224.984 217.465 C 225.148 217.300,225.747 217.160,226.314 217.153 C 227.756 217.134,231.683 215.728,231.872 215.163 C 232.040 214.657,231.979 214.523,226.176 202.595 C 224.040 198.204,221.790 193.533,221.176 192.216 C 220.563 190.898,218.129 185.868,215.768 181.038 C 213.407 176.208,209.771 168.752,207.687 164.471 C 199.760 148.182,200.452 149.347,199.155 150.103 M307.416 151.328 C 306.740 152.004,306.188 152.709,306.188 152.896 C 306.188 153.083,305.963 153.479,305.689 153.775 C 304.931 154.591,301.796 159.206,301.796 159.504 C 301.796 159.648,301.257 160.446,300.599 161.277 C 299.940 162.109,299.401 162.988,299.401 163.231 C 299.401 163.474,299.266 163.674,299.102 163.675 C 298.782 163.678,297.300 166.096,297.498 166.293 C 297.630 166.426,302.708 159.015,302.954 158.329 C 303.042 158.084,303.222 157.794,303.353 157.685 C 303.485 157.575,304.491 156.138,305.589 154.491 C 307.959 150.935,308.045 150.860,309.574 150.994 C 312.000 151.206,311.822 152.650,308.834 156.996 C 307.378 159.113,306.188 161.017,306.188 161.228 C 306.188 161.438,306.003 161.701,305.778 161.813 C 305.553 161.925,305.582 161.975,305.842 161.925 C 306.102 161.875,306.606 161.304,306.961 160.657 C 307.714 159.287,309.869 155.979,310.199 155.689 C 311.873 154.213,312.153 152.190,310.853 150.968 C 309.606 149.797,308.870 149.874,307.416 151.328 M201.337 153.004 C 201.962 154.371,204.175 158.992,206.253 163.273 C 208.332 167.555,210.726 172.495,211.574 174.251 C 216.009 183.438,228.974 210.091,229.979 212.088 C 231.152 214.419,231.000 215.437,229.441 215.701 C 228.728 215.822,226.976 216.216,225.549 216.577 C 212.668 219.830,193.024 220.337,179.840 217.755 C 178.084 217.411,175.928 216.990,175.050 216.819 C 174.172 216.648,172.824 216.303,172.056 216.053 C 171.287 215.802,170.165 215.497,169.561 215.376 C 168.033 215.068,168.026 215.089,172.213 206.603 C 174.276 202.422,176.717 197.385,177.637 195.409 C 178.558 193.433,179.547 191.367,179.836 190.818 C 180.124 190.269,180.827 188.940,181.398 187.865 C 181.968 186.789,182.435 185.688,182.435 185.419 C 182.435 185.149,182.705 184.704,183.034 184.431 C 183.363 184.158,183.633 183.597,183.633 183.185 C 183.633 182.772,183.812 182.435,184.032 182.435 C 184.251 182.435,184.431 182.252,184.431 182.028 C 184.431 181.519,185.930 178.325,190.684 168.704 C 192.734 164.555,194.411 160.917,194.411 160.620 C 194.411 160.323,194.591 160.080,194.810 160.080 C 195.030 160.080,195.210 159.881,195.210 159.638 C 195.210 159.160,198.704 151.821,199.323 150.998 C 199.934 150.186,200.143 150.395,201.337 153.004 M258.683 156.886 C 257.471 157.075,258.510 157.168,261.876 157.172 C 265.682 157.177,266.393 157.105,264.870 156.868 C 262.520 156.502,261.129 156.506,258.683 156.886 M250.299 157.919 L 248.902 158.491 250.699 158.225 C 251.687 158.079,253.483 157.834,254.691 157.681 L 256.886 157.403 254.291 157.374 C 252.864 157.359,251.068 157.604,250.299 157.919 M269.461 157.725 C 270.888 157.898,272.774 158.140,273.653 158.263 L 275.250 158.487 273.453 157.892 C 272.465 157.565,270.579 157.323,269.261 157.354 L 266.866 157.411 269.461 157.725 M277.246 159.141 C 278.343 159.476,279.831 160.004,280.552 160.314 C 281.273 160.625,282.129 160.878,282.454 160.878 C 282.779 160.878,283.357 161.046,283.738 161.250 C 284.119 161.454,285.689 162.205,287.226 162.917 C 288.762 163.630,291.384 165.053,293.050 166.079 C 295.814 167.782,296.148 167.894,296.843 167.359 C 297.560 166.806,297.542 166.786,296.536 167.019 C 295.874 167.172,295.263 167.062,294.931 166.730 C 293.527 165.326,283.799 160.494,282.322 160.466 C 281.945 160.459,281.288 160.190,280.862 159.868 C 280.436 159.545,279.593 159.281,278.989 159.281 C 278.385 159.281,277.780 159.102,277.645 158.882 C 277.509 158.663,276.915 158.494,276.324 158.508 C 275.524 158.526,275.759 158.688,277.246 159.141 M302.590 166.350 C 301.165 168.451,299.953 170.285,299.896 170.426 C 299.839 170.567,301.815 172.744,304.287 175.263 C 308.293 179.344,312.469 184.815,314.151 188.185 C 314.469 188.822,314.801 189.131,314.887 188.871 C 314.974 188.610,314.579 187.786,314.010 187.040 C 313.440 186.293,312.974 185.571,312.974 185.435 C 312.974 185.186,309.352 180.194,307.683 178.142 C 307.193 177.539,305.398 175.621,303.695 173.880 C 301.992 172.138,300.599 170.534,300.599 170.316 C 300.599 169.969,303.241 165.805,303.802 165.269 C 304.259 164.832,305.444 162.796,305.316 162.668 C 305.241 162.593,304.014 164.250,302.590 166.350 M270.887 177.392 C 269.629 178.579,269.461 178.967,269.461 180.695 C 269.461 185.850,275.637 187.692,278.642 183.433 C 278.952 182.994,278.608 183.219,277.879 183.932 C 274.865 186.879,269.860 184.931,269.860 180.811 C 269.860 179.008,270.442 178.073,272.455 176.641 C 272.894 176.329,273.042 176.068,272.783 176.061 C 272.524 176.054,271.671 176.653,270.887 177.392 M276.447 176.641 C 276.886 176.954,277.650 177.618,278.144 178.117 C 278.638 178.617,279.042 178.813,279.042 178.555 C 279.042 178.046,276.603 176.040,276.010 176.061 C 275.811 176.068,276.008 176.329,276.447 176.641 M279.151 180.838 C 279.151 181.826,279.228 182.231,279.324 181.737 C 279.419 181.243,279.419 180.434,279.324 179.940 C 279.228 179.446,279.151 179.850,279.151 180.838 M4.850 187.126 C 4.807 188.357,4.947 188.822,5.360 188.822 C 5.673 188.822,6.012 189.137,6.112 189.521 C 6.275 190.143,6.300 190.146,6.341 189.549 C 6.366 189.181,6.132 188.624,5.821 188.313 C 5.509 188.001,5.177 187.225,5.082 186.588 C 4.950 185.700,4.896 185.825,4.850 187.126 M394.810 187.376 C 394.810 187.679,394.541 188.150,394.212 188.423 C 393.882 188.696,393.634 189.302,393.659 189.769 C 393.701 190.543,393.723 190.550,393.902 189.849 C 394.010 189.425,394.348 188.828,394.654 188.523 C 395.185 187.992,395.429 186.826,395.010 186.826 C 394.900 186.826,394.810 187.074,394.810 187.376 M314.970 189.691 C 314.970 189.783,315.657 191.287,316.496 193.033 C 317.336 194.779,318.271 196.995,318.574 197.958 C 318.877 198.921,319.194 199.505,319.277 199.256 C 319.459 198.709,318.348 195.665,317.087 193.254 C 316.581 192.288,316.168 191.277,316.168 191.007 C 316.168 190.738,315.898 190.293,315.569 190.020 C 315.240 189.747,314.970 189.599,314.970 189.691 M319.544 200.599 C 320.436 202.975,321.607 209.281,322.008 213.867 C 322.336 217.624,322.228 217.567,329.819 217.992 C 333.399 218.192,337.764 218.441,339.521 218.543 C 342.009 218.689,342.362 218.651,341.118 218.371 C 340.240 218.173,337.006 217.904,333.932 217.774 C 330.858 217.643,327.062 217.342,325.497 217.103 L 322.650 216.670 322.426 213.425 C 322.223 210.482,321.934 208.784,320.585 202.611 C 320.347 201.522,319.948 200.445,319.698 200.216 C 319.365 199.911,319.324 200.014,319.544 200.599 M15.974 217.598 C 15.978 218.129,16.157 218.832,16.373 219.162 C 16.649 219.583,16.689 219.346,16.509 218.363 C 16.193 216.642,15.966 216.317,15.974 217.598 M383.534 218.164 C 382.840 221.456,382.829 221.692,383.443 220.033 C 383.793 219.085,384.014 218.007,383.933 217.638 C 383.842 217.221,383.691 217.421,383.534 218.164 M343.713 219.561 C 344.677 220.526,344.691 220.724,343.870 221.895 C 343.245 222.788,343.100 222.806,338.181 222.610 C 334.696 222.471,333.937 222.506,335.729 222.723 C 337.156 222.895,339.313 223.168,340.522 223.329 C 343.031 223.662,344.921 222.668,344.897 221.029 C 344.883 220.024,344.032 218.762,343.369 218.762 C 343.119 218.762,343.273 219.122,343.713 219.561 M322.407 222.419 C 321.843 225.331,321.363 228.758,321.403 229.587 C 321.468 230.927,322.115 227.993,322.470 224.750 L 322.754 222.156 326.747 222.295 C 331.772 222.471,331.597 222.143,326.464 221.768 C 322.619 221.487,322.587 221.492,322.407 222.419 M382.927 224.750 C 382.927 225.519,383.009 225.833,383.110 225.449 C 383.210 225.065,383.210 224.436,383.110 224.052 C 383.009 223.668,382.927 223.982,382.927 224.750 M16.813 225.437 C 16.776 226.781,16.887 227.074,17.365 226.891 C 18.010 226.643,18.206 225.150,17.594 225.150 C 17.391 225.150,17.142 224.835,17.042 224.451 C 16.941 224.067,16.838 224.510,16.813 225.437 M296.702 226.362 C 292.698 227.970,292.853 233.627,296.957 235.652 C 301.418 237.853,305.882 231.755,302.611 227.929 C 301.961 227.169,301.422 226.654,301.413 226.785 C 301.405 226.916,301.753 227.433,302.187 227.934 C 305.314 231.539,301.267 237.143,297.020 235.091 C 292.002 232.667,294.186 225.644,299.675 226.554 C 300.805 226.741,301.043 226.697,300.599 226.383 C 299.877 225.874,297.943 225.863,296.702 226.362 M16.766 228.942 C 16.766 229.918,16.947 230.339,17.365 230.339 C 17.783 230.339,17.964 229.918,17.964 228.942 C 17.964 227.966,17.783 227.545,17.365 227.545 C 16.947 227.545,16.766 227.966,16.766 228.942 M382.535 228.608 C 382.260 228.718,382.039 229.198,382.042 229.674 C 382.047 230.330,382.133 230.404,382.401 229.982 C 382.684 229.534,382.792 229.574,382.947 230.182 C 383.065 230.641,383.159 230.429,383.187 229.641 C 383.213 228.927,383.189 228.357,383.134 228.375 C 383.079 228.392,382.809 228.497,382.535 228.608 M17.198 231.667 C 16.577 232.836,16.701 233.269,17.512 232.767 C 17.799 232.590,17.973 232.030,17.899 231.523 C 17.765 230.606,17.762 230.607,17.198 231.667 M320.483 233.134 C 320.113 234.561,319.697 236.178,319.560 236.727 L 319.311 237.725 319.921 236.727 C 320.256 236.178,320.537 235.313,320.545 234.804 C 320.553 234.296,320.750 233.523,320.983 233.087 C 321.216 232.651,321.351 231.899,321.283 231.417 C 321.207 230.888,320.889 231.572,320.483 233.134 M318.604 239.393 C 318.095 240.834,316.679 244.160,316.296 244.810 C 316.200 244.975,316.276 245.110,316.466 245.110 C 316.657 245.110,317.129 244.346,317.517 243.413 C 317.904 242.480,318.498 241.059,318.836 240.254 C 319.174 239.450,319.382 238.584,319.297 238.330 C 319.212 238.076,318.900 238.554,318.604 239.393 M14.770 268.596 C 14.770 268.999,15.030 269.328,15.348 269.328 C 15.784 269.328,15.829 269.149,15.533 268.596 C 15.318 268.194,15.058 267.864,14.956 267.864 C 14.854 267.864,14.770 268.194,14.770 268.596 M375.434 283.932 L 373.453 286.028 375.549 284.047 C 377.496 282.206,377.828 281.836,377.530 281.836 C 377.467 281.836,376.524 282.779,375.434 283.932 M26.747 285.953 C 26.747 286.022,27.330 286.606,28.044 287.251 L 29.341 288.423 28.169 287.126 C 27.076 285.916,26.747 285.645,26.747 285.953 M38.323 295.609 C 39.068 296.377,39.767 297.006,39.877 297.006 C 39.987 297.006,39.467 296.377,38.723 295.609 C 37.978 294.840,37.279 294.212,37.169 294.212 C 37.059 294.212,37.579 294.840,38.323 295.609 M358.475 298.503 L 354.691 302.395 358.583 298.611 C 362.198 295.096,362.657 294.611,362.367 294.611 C 362.308 294.611,360.557 296.362,358.475 298.503 M128.942 376.647 C 129.687 377.415,130.386 378.044,130.496 378.044 C 130.606 378.044,130.086 377.415,129.341 376.647 C 128.596 375.878,127.897 375.250,127.787 375.250 C 127.678 375.250,128.197 375.878,128.942 376.647 M266.068 381.238 C 263.440 383.872,261.380 386.028,261.490 386.028 C 261.599 386.028,263.839 383.872,266.467 381.238 C 269.095 378.603,271.155 376.447,271.045 376.447 C 270.936 376.447,268.696 378.603,266.068 381.238 M193.114 387.507 C 193.608 387.602,194.416 387.602,194.910 387.507 C 195.404 387.412,195.000 387.334,194.012 387.334 C 193.024 387.334,192.620 387.412,193.114 387.507 M205.289 387.501 C 205.674 387.601,206.302 387.601,206.687 387.501 C 207.071 387.400,206.756 387.318,205.988 387.318 C 205.220 387.318,204.905 387.400,205.289 387.501 M189.222 388.024 C 188.419 388.281,188.380 388.346,189.022 388.355 C 189.461 388.362,190.180 388.213,190.619 388.024 C 191.636 387.587,190.586 387.587,189.222 388.024 M235.529 394.440 C 236.494 394.721,244.120 394.888,243.313 394.610 C 243.094 394.534,241.028 394.400,238.723 394.311 C 236.417 394.222,234.980 394.280,235.529 394.440 M158.583 394.705 C 159.626 394.787,161.332 394.787,162.375 394.705 C 163.418 394.622,162.565 394.555,160.479 394.555 C 158.393 394.555,157.540 394.622,158.583 394.705 "
        stroke="none"
        fill="#9ac8f8"
        fill-rule="evenodd"
    ></path>
    <path
        id="path4"
        d="M186.775 89.395 C 182.935 91.339,180.338 93.178,177.674 95.840 C 173.983 99.527,172.075 102.618,169.656 108.828 C 169.476 109.293,169.028 111.583,168.662 113.918 C 167.742 119.784,168.523 125.195,171.106 130.848 C 171.435 131.567,171.956 132.735,172.263 133.443 L 172.823 134.731 172.839 133.034 C 172.847 132.101,172.698 131.337,172.506 131.337 C 172.315 131.337,172.043 130.619,171.903 129.741 C 171.762 128.862,171.470 128.144,171.253 128.144 C 171.036 128.144,170.858 127.444,170.858 126.590 C 170.858 125.576,170.650 124.956,170.259 124.806 C 169.761 124.614,169.661 123.479,169.661 118.019 C 169.661 112.559,169.761 111.424,170.259 111.233 C 170.619 111.095,170.863 110.480,170.871 109.693 C 170.878 108.973,171.147 108.035,171.470 107.608 C 171.792 107.182,172.056 106.419,172.056 105.912 C 172.056 105.405,172.236 104.990,172.455 104.990 C 172.675 104.990,172.854 104.541,172.854 103.992 C 172.854 103.443,173.022 102.994,173.228 102.994 C 173.433 102.994,174.005 102.275,174.499 101.397 C 174.993 100.519,175.543 99.800,175.722 99.800 C 175.901 99.800,176.048 99.531,176.048 99.202 C 176.048 98.872,176.317 98.603,176.647 98.603 C 176.976 98.603,177.246 98.333,177.246 98.004 C 177.246 97.675,177.431 97.405,177.658 97.405 C 178.175 97.405,180.439 95.119,180.439 94.597 C 180.439 94.385,180.709 94.212,181.038 94.212 C 181.367 94.212,181.637 94.051,181.637 93.856 C 181.637 93.660,182.086 93.387,182.635 93.249 C 183.184 93.111,183.633 92.823,183.633 92.607 C 183.633 92.392,183.902 92.216,184.232 92.216 C 184.561 92.216,184.830 91.946,184.830 91.617 C 184.830 91.244,185.207 91.018,185.828 91.018 C 186.377 91.018,186.826 90.861,186.826 90.670 C 186.826 90.478,187.557 90.205,188.451 90.062 C 189.667 89.867,190.043 89.637,189.948 89.146 C 189.750 88.125,189.196 88.169,186.775 89.395 M209.980 89.014 C 209.980 89.525,210.334 89.894,210.978 90.056 C 211.527 90.193,211.976 90.466,211.976 90.662 C 211.976 90.858,212.406 91.018,212.931 91.018 C 213.457 91.018,213.990 91.287,214.116 91.617 C 214.243 91.946,214.720 92.216,215.176 92.216 C 215.633 92.216,216.422 92.665,216.931 93.214 C 217.440 93.762,217.978 94.212,218.128 94.212 C 218.277 94.212,218.830 94.616,219.355 95.110 C 222.279 97.858,222.883 98.502,223.474 99.501 C 223.832 100.105,224.265 100.599,224.437 100.599 C 224.610 100.599,224.750 100.868,224.750 101.198 C 224.750 101.527,225.020 101.796,225.349 101.796 C 225.715 101.796,225.948 102.169,225.948 102.752 C 225.948 103.277,226.218 103.810,226.547 103.937 C 226.876 104.063,227.146 104.621,227.146 105.177 C 227.146 105.733,227.325 106.188,227.545 106.188 C 227.764 106.188,227.944 106.714,227.944 107.357 C 227.944 108.000,228.214 108.795,228.543 109.125 C 228.916 109.497,229.142 110.477,229.142 111.719 C 229.142 112.961,229.368 113.942,229.741 114.314 C 230.178 114.752,230.339 115.820,230.339 118.286 C 230.339 120.797,230.186 121.786,229.741 122.156 C 229.356 122.475,229.142 123.359,229.142 124.628 C 229.142 125.852,228.914 126.832,228.543 127.203 C 228.214 127.532,227.944 128.137,227.944 128.548 C 227.944 128.958,227.764 129.405,227.545 129.541 C 227.325 129.677,227.146 130.251,227.146 130.818 C 227.146 131.385,226.847 132.066,226.482 132.333 C 226.089 132.621,225.921 133.086,226.070 133.475 C 226.597 134.848,226.800 134.560,229.299 128.882 C 229.651 128.080,229.940 126.968,229.940 126.410 C 229.940 125.853,230.102 125.296,230.301 125.173 C 231.369 124.513,231.136 114.033,229.951 109.384 C 227.969 101.615,217.339 89.587,212.324 89.440 C 211.967 89.430,211.451 89.152,211.178 88.822 C 210.489 87.993,209.980 88.074,209.980 89.014 M196.152 100.399 C 196.002 100.791,195.380 100.998,194.356 100.998 C 193.332 100.998,192.710 101.205,192.560 101.597 C 192.433 101.926,191.900 102.196,191.374 102.196 C 190.849 102.196,190.419 102.375,190.419 102.595 C 190.419 102.814,190.161 102.994,189.846 102.994 C 189.531 102.994,188.274 103.994,187.052 105.216 C 185.830 106.438,184.830 107.695,184.830 108.010 C 184.830 108.325,184.651 108.583,184.431 108.583 C 184.212 108.583,184.032 108.830,184.032 109.133 C 184.032 109.435,183.762 109.906,183.433 110.180 C 183.104 110.453,182.834 111.117,182.834 111.654 C 182.834 112.192,182.565 112.901,182.236 113.231 C 181.780 113.686,181.637 114.821,181.637 117.964 C 181.637 121.107,181.780 122.242,182.236 122.697 C 182.565 123.027,182.834 123.764,182.834 124.335 C 182.834 124.907,183.104 125.478,183.433 125.604 C 183.762 125.731,184.032 126.264,184.032 126.789 C 184.032 127.315,184.212 127.745,184.431 127.745 C 184.651 127.745,184.830 127.931,184.830 128.160 C 184.830 128.690,186.482 130.938,186.871 130.938 C 187.032 130.938,187.697 131.432,188.348 132.036 C 190.297 133.844,190.746 134.132,191.612 134.132 C 192.068 134.132,192.544 134.401,192.670 134.731 C 192.830 135.147,193.480 135.329,194.804 135.329 C 196.010 135.329,196.891 135.549,197.206 135.928 C 197.533 136.323,198.425 136.527,199.821 136.527 C 201.171 136.527,202.156 136.310,202.538 135.928 C 202.874 135.592,203.849 135.329,204.762 135.329 C 205.940 135.329,206.387 135.165,206.387 134.731 C 206.387 134.358,206.764 134.132,207.385 134.132 C 207.934 134.132,208.383 133.952,208.383 133.733 C 208.383 133.513,208.739 133.333,209.174 133.333 C 210.849 133.333,215.968 127.465,215.968 125.546 C 215.968 125.046,216.238 124.533,216.567 124.407 C 216.988 124.245,217.166 123.588,217.166 122.192 C 217.166 121.100,217.345 120.096,217.565 119.960 C 217.784 119.824,217.964 119.005,217.964 118.140 C 217.964 117.275,217.784 116.567,217.565 116.567 C 217.345 116.567,217.166 115.573,217.166 114.359 C 217.166 112.764,216.999 112.087,216.567 111.921 C 216.238 111.794,215.968 111.261,215.968 110.736 C 215.968 110.210,215.788 109.780,215.569 109.780 C 215.349 109.780,215.170 109.411,215.170 108.960 C 215.170 106.998,207.517 100.998,205.015 100.998 C 204.506 100.998,203.866 100.729,203.593 100.399 C 203.223 99.954,202.236 99.800,199.739 99.800 C 197.123 99.800,196.331 99.933,196.152 100.399 M207.130 102.953 C 217.683 108.255,219.798 121.897,211.356 130.216 C 199.952 141.452,180.734 131.306,183.208 115.356 C 183.606 112.797,183.869 111.988,184.895 110.180 C 185.082 109.850,185.352 109.311,185.496 108.982 C 188.263 102.649,200.010 99.375,207.130 102.953 M199.508 149.216 C 199.383 149.694,199.545 149.929,200.000 149.929 C 200.455 149.929,200.617 149.694,200.492 149.216 C 200.390 148.824,200.168 148.503,200.000 148.503 C 199.832 148.503,199.610 148.824,199.508 149.216 M259.182 157.581 C 260.664 157.658,263.089 157.658,264.571 157.581 C 266.053 157.505,264.840 157.442,261.876 157.442 C 258.912 157.442,257.700 157.505,259.182 157.581 M303.792 175.050 C 305.649 176.916,307.258 178.443,307.368 178.443 C 307.477 178.443,306.048 176.916,304.192 175.050 C 302.335 173.184,300.726 171.657,300.616 171.657 C 300.507 171.657,301.936 173.184,303.792 175.050 M3.992 185.605 C 3.992 186.690,4.172 187.689,4.391 187.824 C 4.639 187.978,4.790 187.230,4.790 185.852 C 4.790 184.631,4.611 183.633,4.391 183.633 C 4.172 183.633,3.992 184.520,3.992 185.605 M395.071 185.317 C 394.944 185.805,394.936 186.587,395.053 187.056 C 395.177 187.548,395.006 188.171,394.651 188.526 C 394.312 188.865,393.916 189.883,393.771 190.788 C 393.626 191.693,393.352 192.529,393.161 192.647 C 392.970 192.765,392.813 193.165,392.812 193.537 C 392.811 193.908,392.541 194.726,392.213 195.355 C 391.885 195.984,391.617 196.675,391.617 196.891 C 391.617 197.108,391.323 197.940,390.965 198.742 C 390.607 199.544,389.978 200.963,389.568 201.896 C 389.158 202.829,388.482 204.356,388.067 205.289 C 387.651 206.223,387.007 207.884,386.634 208.982 C 386.262 210.080,385.793 211.290,385.593 211.671 C 385.393 212.052,385.228 212.681,385.227 213.068 C 385.226 213.456,384.956 214.287,384.628 214.916 C 384.300 215.545,384.029 216.623,384.026 217.311 C 384.023 218.000,383.749 219.341,383.418 220.292 C 383.009 221.466,382.900 222.658,383.078 224.000 C 383.401 226.435,384.188 226.386,384.341 223.921 C 384.401 222.950,384.611 221.796,384.808 221.357 C 385.005 220.918,385.266 219.842,385.388 218.965 C 385.510 218.089,385.794 217.310,386.019 217.235 C 386.243 217.160,386.427 216.396,386.427 215.536 C 386.427 214.412,386.596 213.972,387.026 213.972 C 387.399 213.972,387.625 213.595,387.625 212.974 C 387.625 212.425,387.802 211.976,388.019 211.976 C 388.236 211.976,388.529 211.257,388.669 210.379 C 388.809 209.501,389.081 208.782,389.273 208.782 C 389.464 208.782,389.621 208.244,389.621 207.585 C 389.621 206.786,389.820 206.387,390.220 206.387 C 390.559 206.387,390.818 206.029,390.818 205.560 C 390.818 205.106,391.088 204.464,391.417 204.135 C 391.747 203.805,392.016 203.010,392.016 202.367 C 392.016 201.724,392.196 201.198,392.415 201.198 C 392.635 201.198,392.814 200.678,392.814 200.043 C 392.814 199.384,393.072 198.789,393.413 198.658 C 393.821 198.502,394.012 197.864,394.012 196.662 C 394.012 195.460,394.203 194.822,394.611 194.666 C 395.058 194.495,395.210 193.781,395.210 191.852 C 395.210 190.431,395.389 189.158,395.609 189.022 C 396.101 188.718,396.144 184.431,395.655 184.431 C 395.461 184.431,395.198 184.830,395.071 185.317 M4.790 191.189 C 4.790 192.761,4.992 193.757,5.389 194.155 C 5.725 194.491,5.988 195.466,5.988 196.379 C 5.988 197.557,6.153 198.004,6.587 198.004 C 7.019 198.004,7.186 198.448,7.186 199.601 C 7.186 200.479,7.365 201.198,7.585 201.198 C 7.804 201.198,7.984 201.612,7.984 202.119 C 7.984 202.626,8.248 203.390,8.570 203.816 C 8.892 204.242,9.162 204.911,9.169 205.302 C 9.176 205.693,9.451 206.116,9.780 206.243 C 10.122 206.374,10.379 206.969,10.379 207.628 C 10.379 208.263,10.559 208.782,10.778 208.782 C 10.998 208.782,11.179 209.097,11.180 209.481 C 11.181 209.865,11.451 210.694,11.779 211.323 C 12.107 211.952,12.375 212.805,12.375 213.219 C 12.375 213.633,12.645 213.972,12.974 213.972 C 13.381 213.972,13.577 214.388,13.586 215.269 C 13.593 215.983,13.862 216.916,14.184 217.342 C 14.507 217.768,14.770 218.611,14.770 219.214 C 14.770 219.818,14.950 220.423,15.170 220.559 C 15.389 220.695,15.569 221.659,15.569 222.702 C 15.569 223.745,15.820 224.942,16.128 225.362 C 17.061 226.639,17.465 222.056,16.615 219.831 C 16.259 218.899,15.968 217.728,15.968 217.227 C 15.968 216.238,14.938 212.597,14.342 211.482 C 14.139 211.101,13.972 210.462,13.972 210.062 C 13.972 209.662,13.708 208.986,13.386 208.559 C 13.064 208.133,12.794 207.572,12.787 207.313 C 12.776 206.882,11.978 205.022,9.350 199.290 C 8.818 198.132,8.383 196.930,8.383 196.619 C 8.383 196.309,8.204 195.944,7.984 195.808 C 7.764 195.673,7.585 195.285,7.585 194.947 C 7.585 194.609,7.331 193.766,7.021 193.074 C 6.711 192.382,6.344 191.143,6.205 190.319 C 5.775 187.774,4.790 188.379,4.790 191.189 M318.994 200.024 C 318.976 200.366,319.241 200.995,319.583 201.421 C 320.194 202.183,320.198 202.183,319.836 201.397 C 319.634 200.958,319.369 200.329,319.247 200.000 C 319.055 199.483,319.021 199.486,318.994 200.024 M322.504 217.265 C 322.868 217.730,323.538 217.943,324.500 217.900 L 325.948 217.836 324.553 217.668 C 323.785 217.575,322.887 217.290,322.556 217.033 C 322.034 216.627,322.027 216.657,322.504 217.265 M340.419 219.044 C 340.913 219.139,341.722 219.139,342.216 219.044 C 342.710 218.949,342.305 218.871,341.317 218.871 C 340.329 218.871,339.925 218.949,340.419 219.044 M323.258 221.440 C 323.755 221.536,324.473 221.532,324.855 221.432 C 325.237 221.332,324.830 221.254,323.952 221.258 C 323.074 221.263,322.762 221.345,323.258 221.440 M331.637 222.245 C 332.350 222.333,333.518 222.333,334.232 222.245 C 334.945 222.156,334.361 222.084,332.934 222.084 C 331.507 222.084,330.923 222.156,331.637 222.245 M339.421 222.630 C 339.805 222.731,340.434 222.731,340.818 222.630 C 341.203 222.530,340.888 222.448,340.120 222.448 C 339.351 222.448,339.037 222.530,339.421 222.630 M303.885 231.138 C 303.885 231.906,303.967 232.221,304.068 231.836 C 304.168 231.452,304.168 230.823,304.068 230.439 C 303.967 230.055,303.885 230.369,303.885 231.138 M16.766 231.138 C 16.766 231.577,16.850 231.936,16.952 231.936 C 17.054 231.936,17.330 231.577,17.565 231.138 C 17.906 230.500,17.868 230.339,17.379 230.339 C 17.033 230.339,16.766 230.686,16.766 231.138 M13.828 264.548 C 13.437 264.940,13.525 268.586,13.931 268.837 C 14.129 268.959,14.416 270.317,14.571 271.855 C 14.725 273.393,15.013 274.651,15.210 274.651 C 15.407 274.651,15.569 275.285,15.569 276.060 C 15.569 276.945,15.792 277.556,16.168 277.700 C 16.497 277.826,16.766 278.360,16.766 278.885 C 16.766 279.468,17.000 279.840,17.365 279.840 C 17.716 279.840,17.969 280.212,17.977 280.739 C 17.991 281.768,18.834 283.034,19.505 283.034 C 19.755 283.034,19.960 283.393,19.960 283.832 C 19.960 284.271,20.679 285.349,21.557 286.228 C 22.435 287.106,23.154 288.004,23.154 288.224 C 23.154 288.443,23.316 288.623,23.515 288.623 C 23.714 288.623,25.085 289.790,26.562 291.218 C 28.039 292.645,29.583 293.812,29.993 293.812 C 30.403 293.812,30.739 294.082,30.739 294.411 C 30.739 294.741,30.927 295.010,31.157 295.010 C 31.387 295.010,31.971 295.434,32.454 295.953 C 32.938 296.471,33.738 297.022,34.232 297.177 C 34.726 297.332,35.130 297.627,35.130 297.831 C 35.130 298.036,35.399 298.204,35.729 298.204 C 36.058 298.204,36.327 298.473,36.327 298.802 C 36.327 299.132,36.482 299.401,36.671 299.401 C 37.049 299.401,43.912 306.097,43.912 306.466 C 43.912 306.592,44.361 307.111,44.910 307.620 C 45.459 308.128,45.908 308.690,45.908 308.867 C 45.908 309.045,46.357 309.674,46.906 310.266 C 47.455 310.858,47.904 311.530,47.904 311.759 C 47.904 311.988,48.174 312.176,48.503 312.176 C 48.878 312.176,49.102 312.554,49.102 313.186 C 49.102 313.742,49.371 314.300,49.701 314.426 C 50.030 314.553,50.299 314.846,50.299 315.078 C 50.299 315.791,51.631 318.563,51.973 318.563 C 52.150 318.563,52.295 318.900,52.295 319.312 C 52.295 319.725,52.565 320.286,52.894 320.559 C 53.224 320.832,53.493 321.483,53.493 322.005 C 53.493 322.527,53.673 322.954,53.892 322.954 C 54.112 322.954,54.293 323.268,54.294 323.653 C 54.295 324.037,54.565 324.866,54.893 325.495 C 55.221 326.124,55.489 326.983,55.489 327.403 C 55.489 327.824,55.758 328.272,56.088 328.399 C 56.478 328.548,56.687 329.169,56.687 330.182 C 56.687 331.298,56.856 331.737,57.285 331.737 C 57.718 331.737,57.884 332.180,57.884 333.333 C 57.884 334.212,58.064 334.930,58.283 334.930 C 58.503 334.930,58.683 335.636,58.683 336.498 C 58.683 337.361,58.952 338.336,59.281 338.666 C 59.611 338.995,59.880 339.726,59.880 340.291 C 59.880 340.937,60.102 341.317,60.479 341.317 C 60.861 341.317,61.078 341.702,61.078 342.381 C 61.078 343.587,62.262 346.507,62.751 346.507 C 62.929 346.507,63.074 346.757,63.074 347.063 C 63.074 347.369,63.343 347.723,63.673 347.849 C 64.002 347.975,64.271 348.444,64.271 348.890 C 64.271 349.336,64.441 349.701,64.648 349.701 C 64.855 349.701,65.343 350.240,65.732 350.898 C 66.121 351.557,66.670 352.096,66.952 352.096 C 67.234 352.096,67.465 352.365,67.465 352.695 C 67.465 353.024,67.735 353.293,68.064 353.293 C 68.393 353.293,68.663 353.486,68.663 353.721 C 68.663 354.254,69.670 355.289,70.188 355.289 C 70.400 355.289,70.677 355.559,70.803 355.888 C 70.929 356.218,71.299 356.487,71.624 356.487 C 71.949 356.487,72.704 356.940,73.302 357.495 C 73.900 358.049,74.807 358.607,75.318 358.736 C 75.829 358.864,76.248 359.129,76.248 359.325 C 76.248 359.520,76.966 359.681,77.844 359.681 C 78.998 359.681,79.441 359.847,79.441 360.279 C 79.441 360.631,79.813 360.883,80.339 360.891 C 80.833 360.898,81.586 361.167,82.012 361.490 C 82.439 361.812,83.472 362.076,84.308 362.076 C 85.144 362.076,85.828 362.255,85.828 362.475 C 85.828 362.703,87.012 362.874,88.580 362.874 C 90.658 362.874,91.388 363.021,91.562 363.473 C 91.730 363.912,92.422 364.072,94.156 364.072 C 95.890 364.072,96.583 364.232,96.751 364.671 C 96.913 365.093,97.572 365.269,98.989 365.269 C 100.094 365.269,100.998 365.449,100.998 365.669 C 100.998 365.888,101.402 366.069,101.896 366.070 C 102.390 366.072,103.309 366.341,103.938 366.669 C 104.567 366.997,105.580 367.265,106.191 367.265 C 106.808 367.265,107.402 367.531,107.530 367.864 C 107.672 368.235,108.280 368.463,109.126 368.463 C 109.973 368.463,110.581 368.691,110.723 369.062 C 110.850 369.391,111.318 369.661,111.764 369.661 C 112.210 369.661,112.575 369.840,112.575 370.060 C 112.575 370.279,113.114 370.459,113.772 370.459 C 114.571 370.459,114.970 370.659,114.970 371.058 C 114.970 371.387,115.240 371.657,115.569 371.657 C 115.898 371.657,116.168 371.833,116.168 372.048 C 116.168 372.264,116.617 372.553,117.166 372.690 C 117.715 372.828,118.164 373.101,118.164 373.297 C 118.164 373.493,118.613 373.653,119.162 373.653 C 119.783 373.653,120.160 373.879,120.160 374.251 C 120.160 374.581,120.429 374.850,120.758 374.850 C 121.088 374.850,121.357 375.120,121.357 375.449 C 121.357 375.778,121.627 376.048,121.956 376.048 C 122.285 376.048,122.555 376.208,122.555 376.404 C 122.555 376.600,123.004 376.872,123.553 377.010 C 124.102 377.148,124.551 377.437,124.551 377.652 C 124.551 377.868,124.820 378.044,125.150 378.044 C 125.479 378.044,125.749 378.237,125.749 378.474 C 125.749 379.033,127.953 381.238,128.512 381.238 C 128.749 381.238,128.942 381.507,128.942 381.836 C 128.942 382.166,129.108 382.435,129.311 382.435 C 129.790 382.435,132.136 384.781,132.136 385.260 C 132.136 385.463,132.405 385.629,132.735 385.629 C 133.064 385.629,133.333 385.868,133.333 386.160 C 133.333 386.452,133.782 386.932,134.331 387.226 C 134.880 387.519,135.329 387.999,135.329 388.291 C 135.329 388.583,135.503 388.822,135.715 388.822 C 135.927 388.822,136.652 389.361,137.325 390.020 C 137.999 390.679,138.814 391.218,139.136 391.218 C 139.457 391.218,139.721 391.397,139.721 391.617 C 139.721 391.836,139.990 392.016,140.319 392.016 C 140.649 392.016,140.918 392.212,140.918 392.451 C 140.918 393.021,142.560 394.381,143.268 394.398 C 143.572 394.405,144.237 394.860,144.746 395.409 C 145.328 396.038,146.105 396.407,146.844 396.407 C 147.520 396.407,148.116 396.662,148.248 397.006 C 148.375 397.335,148.815 397.605,149.228 397.605 C 149.640 397.605,150.589 397.917,151.336 398.299 C 152.493 398.890,153.880 398.994,160.679 398.994 C 167.477 398.994,168.864 398.890,170.021 398.299 C 170.769 397.917,171.968 397.605,172.688 397.605 C 173.407 397.605,174.264 397.335,174.594 397.006 C 174.923 396.677,175.699 396.401,176.319 396.394 C 176.938 396.388,177.794 396.118,178.220 395.796 C 178.646 395.473,179.589 395.210,180.316 395.210 C 181.042 395.210,181.637 395.030,181.637 394.810 C 181.637 394.591,182.342 394.411,183.205 394.411 C 184.068 394.411,185.043 394.142,185.372 393.812 C 185.759 393.425,186.747 393.214,188.167 393.214 C 189.586 393.214,190.574 393.002,190.961 392.615 C 191.455 392.120,193.030 392.016,200.000 392.016 C 206.970 392.016,208.545 392.120,209.039 392.615 C 209.426 393.002,210.414 393.214,211.833 393.214 C 213.253 393.214,214.241 393.425,214.628 393.812 C 214.957 394.142,215.932 394.411,216.795 394.411 C 217.658 394.411,218.363 394.591,218.363 394.810 C 218.363 395.030,218.970 395.210,219.712 395.210 C 220.453 395.210,221.284 395.479,221.557 395.808 C 221.830 396.138,222.673 396.407,223.431 396.407 C 224.188 396.407,225.077 396.677,225.406 397.006 C 225.736 397.335,226.593 397.605,227.312 397.605 C 228.032 397.605,229.141 397.863,229.779 398.178 C 232.329 399.440,248.995 399.322,249.423 398.038 C 249.502 397.800,250.079 397.605,250.703 397.605 C 251.328 397.605,252.109 397.335,252.438 397.006 C 252.767 396.677,253.276 396.407,253.568 396.407 C 253.861 396.407,254.584 395.958,255.176 395.409 C 255.768 394.860,256.580 394.411,256.980 394.411 C 257.724 394.411,259.082 393.119,259.082 392.411 C 259.082 392.194,259.450 392.016,259.899 392.016 C 260.349 392.016,261.133 391.567,261.642 391.018 C 262.150 390.469,262.771 390.020,263.020 390.020 C 263.269 390.020,263.473 389.750,263.473 389.421 C 263.473 389.092,263.647 388.822,263.858 388.822 C 264.380 388.822,266.667 386.558,266.667 386.041 C 266.667 385.814,266.936 385.629,267.265 385.629 C 267.595 385.629,267.864 385.359,267.864 385.030 C 267.864 384.701,268.057 384.431,268.292 384.431 C 268.845 384.431,269.860 383.416,269.860 382.863 C 269.860 382.628,270.130 382.435,270.459 382.435 C 270.788 382.435,271.058 382.166,271.058 381.836 C 271.058 381.507,271.251 381.238,271.488 381.238 C 271.724 381.238,272.443 380.712,273.085 380.071 C 273.726 379.429,274.251 378.710,274.251 378.474 C 274.251 378.237,274.568 378.044,274.954 378.044 C 275.341 378.044,276.141 377.595,276.733 377.046 C 277.325 376.497,277.997 376.048,278.226 376.048 C 278.455 376.048,278.643 375.778,278.643 375.449 C 278.643 375.113,278.999 374.850,279.454 374.850 C 279.900 374.850,280.368 374.581,280.494 374.251 C 280.621 373.922,280.974 373.653,281.280 373.653 C 281.586 373.653,281.836 373.493,281.836 373.297 C 281.836 373.101,282.285 372.828,282.834 372.690 C 283.383 372.553,283.832 372.264,283.832 372.048 C 283.832 371.833,284.102 371.657,284.431 371.657 C 284.760 371.657,285.030 371.387,285.030 371.058 C 285.030 370.659,285.429 370.459,286.228 370.459 C 286.886 370.459,287.425 370.299,287.425 370.104 C 287.425 369.909,288.054 369.632,288.822 369.487 C 289.591 369.343,290.220 369.054,290.220 368.844 C 290.220 368.635,290.557 368.463,290.969 368.463 C 291.381 368.463,291.942 368.194,292.216 367.864 C 292.489 367.535,293.209 367.265,293.816 367.265 C 294.422 367.265,295.433 366.997,296.062 366.669 C 296.691 366.341,297.610 366.072,298.104 366.070 C 298.598 366.069,299.002 365.888,299.002 365.669 C 299.002 365.449,299.906 365.269,301.011 365.269 C 302.428 365.269,303.087 365.093,303.249 364.671 C 303.419 364.226,304.126 364.072,305.988 364.072 C 307.850 364.072,308.557 363.917,308.727 363.473 C 308.899 363.025,309.615 362.874,311.564 362.874 C 313.036 362.874,314.172 362.700,314.172 362.475 C 314.172 362.255,314.856 362.076,315.692 362.076 C 316.528 362.076,317.561 361.812,317.988 361.490 C 318.414 361.167,319.234 360.898,319.811 360.891 C 320.388 360.884,321.084 360.609,321.357 360.279 C 321.631 359.950,322.281 359.681,322.803 359.681 C 323.325 359.681,323.754 359.546,323.757 359.381 C 323.759 359.217,324.747 358.643,325.952 358.107 C 327.158 357.571,328.144 356.988,328.144 356.810 C 328.144 356.632,328.413 356.487,328.743 356.487 C 329.072 356.487,329.341 356.218,329.341 355.888 C 329.341 355.559,329.534 355.289,329.769 355.289 C 330.322 355.289,331.337 354.274,331.337 353.721 C 331.337 353.486,331.607 353.293,331.936 353.293 C 332.265 353.293,332.535 353.024,332.535 352.695 C 332.535 352.365,332.736 352.096,332.981 352.096 C 333.597 352.096,335.713 349.637,335.729 348.902 C 335.736 348.573,336.190 347.879,336.737 347.360 C 337.285 346.841,337.840 345.987,337.971 345.463 C 338.103 344.940,338.370 344.511,338.566 344.511 C 338.762 344.511,338.922 343.792,338.922 342.914 C 338.922 341.761,339.088 341.317,339.521 341.317 C 339.861 341.317,340.120 340.959,340.120 340.490 C 340.120 340.036,340.389 339.394,340.719 339.065 C 341.048 338.735,341.317 337.850,341.317 337.097 C 341.317 336.344,341.497 335.729,341.717 335.729 C 341.936 335.729,342.116 334.830,342.116 333.733 C 342.116 332.224,342.262 331.737,342.715 331.737 C 343.147 331.737,343.313 331.293,343.313 330.140 C 343.313 328.986,343.480 328.543,343.912 328.543 C 344.311 328.543,344.511 328.144,344.511 327.345 C 344.511 326.687,344.675 326.148,344.875 326.148 C 345.075 326.148,345.361 325.429,345.509 324.551 C 345.657 323.673,345.943 322.954,346.143 322.954 C 346.343 322.954,346.507 322.524,346.507 321.999 C 346.507 321.473,346.776 320.940,347.106 320.814 C 347.435 320.687,347.705 320.129,347.705 319.573 C 347.705 319.018,347.881 318.563,348.096 318.563 C 348.312 318.563,348.601 318.114,348.738 317.565 C 348.876 317.016,349.149 316.567,349.345 316.567 C 349.540 316.567,349.701 316.118,349.701 315.569 C 349.701 315.020,349.925 314.569,350.200 314.566 C 350.474 314.564,351.050 313.828,351.480 312.932 C 351.909 312.036,352.670 310.915,353.169 310.442 C 353.669 309.968,354.081 309.362,354.085 309.096 C 354.089 308.829,354.586 308.086,355.190 307.445 C 355.793 306.804,357.320 305.181,358.582 303.838 C 359.845 302.496,360.961 301.397,361.064 301.397 C 361.439 301.397,363.673 299.016,363.673 298.616 C 363.673 298.389,363.942 298.204,364.271 298.204 C 364.601 298.204,364.870 298.027,364.870 297.812 C 364.870 297.597,365.319 297.308,365.868 297.170 C 366.417 297.032,366.866 296.759,366.866 296.564 C 366.866 296.368,367.136 296.208,367.465 296.208 C 367.794 296.208,368.064 295.938,368.064 295.609 C 368.064 295.279,368.333 295.010,368.663 295.010 C 368.992 295.010,369.261 294.741,369.261 294.411 C 369.261 294.082,369.597 293.812,370.007 293.812 C 370.417 293.812,371.961 292.645,373.438 291.218 C 374.915 289.790,376.286 288.623,376.485 288.623 C 376.684 288.623,376.846 288.454,376.846 288.247 C 376.846 288.040,377.740 286.939,378.832 285.801 C 379.924 284.662,380.924 283.394,381.054 282.983 C 381.185 282.572,381.459 282.236,381.664 282.236 C 381.868 282.236,382.036 281.697,382.036 281.038 C 382.036 280.240,382.236 279.840,382.635 279.840 C 383.000 279.840,383.234 279.468,383.234 278.885 C 383.234 278.360,383.503 277.826,383.832 277.700 C 384.162 277.574,384.431 277.051,384.431 276.539 C 384.431 276.028,384.605 275.435,384.817 275.223 C 385.029 275.011,385.253 273.811,385.316 272.556 C 385.383 271.194,385.630 270.196,385.928 270.080 C 386.250 269.954,386.427 269.036,386.427 267.490 C 386.427 265.525,386.320 265.136,385.828 265.325 C 385.425 265.479,385.230 266.112,385.230 267.259 C 385.230 268.288,384.992 269.161,384.631 269.461 C 384.301 269.734,384.032 270.375,384.032 270.884 C 384.032 271.393,383.872 271.908,383.677 272.029 C 383.482 272.149,383.208 272.704,383.068 273.260 C 382.787 274.380,380.453 278.366,379.956 278.576 C 379.783 278.649,379.641 278.952,379.641 279.250 C 379.641 279.902,372.900 286.804,370.659 288.446 C 369.780 289.090,368.972 289.707,368.862 289.818 C 368.752 289.929,367.495 290.908,366.068 291.993 C 360.614 296.139,352.649 304.634,350.164 308.954 C 348.765 311.387,345.309 318.279,345.309 318.637 C 345.309 318.859,345.022 319.697,344.670 320.499 C 344.318 321.300,343.874 322.315,343.682 322.754 C 343.025 324.260,340.918 330.950,340.918 331.529 C 340.918 331.848,340.624 332.788,340.264 333.619 C 339.904 334.450,339.470 335.489,339.298 335.928 C 334.908 347.163,328.210 353.563,317.565 356.694 C 316.248 357.081,314.721 357.549,314.172 357.733 C 313.127 358.083,309.912 358.695,306.188 359.251 C 304.087 359.565,303.155 359.787,298.204 361.156 C 293.062 362.578,292.292 362.865,287.824 365.017 C 280.692 368.453,276.144 371.829,268.149 379.621 C 256.219 391.249,249.600 394.810,239.920 394.810 C 235.981 394.810,226.901 392.939,222.555 391.232 C 220.937 390.596,215.798 389.277,209.780 387.952 C 206.620 387.257,193.850 387.247,190.619 387.937 C 183.093 389.545,178.236 390.827,174.451 392.205 C 164.752 395.735,154.119 395.423,146.542 391.388 C 142.549 389.261,140.784 387.860,134.520 381.847 C 126.736 374.373,121.111 369.774,116.966 367.495 C 116.198 367.073,115.479 366.623,115.369 366.497 C 115.150 366.245,113.551 365.464,110.180 363.961 C 107.459 362.748,101.049 360.806,96.806 359.908 C 95.050 359.536,92.847 359.064,91.910 358.858 C 90.974 358.652,89.872 358.483,89.461 358.483 C 88.744 358.483,87.378 358.115,81.920 356.450 C 72.604 353.607,65.512 347.257,61.843 338.472 C 61.350 337.292,60.797 336.157,60.613 335.948 C 60.430 335.740,60.279 335.252,60.279 334.864 C 60.279 334.476,60.025 333.569,59.714 332.848 C 59.402 332.127,58.850 330.459,58.485 329.142 C 58.121 327.824,57.671 326.387,57.486 325.948 C 57.300 325.509,56.844 324.251,56.473 323.154 C 56.102 322.056,55.563 320.619,55.274 319.960 C 54.986 319.301,54.444 318.044,54.070 317.166 C 52.602 313.717,50.581 309.781,50.055 309.344 C 49.750 309.091,49.501 308.717,49.501 308.513 C 49.501 306.211,39.508 296.073,30.684 289.421 C 23.521 284.022,16.983 275.671,15.995 270.659 C 15.843 269.890,15.506 269.306,15.245 269.361 C 14.921 269.430,14.770 268.711,14.770 267.089 C 14.770 264.874,14.427 263.949,13.828 264.548 "
        stroke="none"
        fill="#7c9ca4"
        fill-rule="evenodd"
    ></path>
    </g>
</svg>