<svg xmlns="http://www.w3.org/2000/svg" viewBox="0 0 100 100" width="100" height="100">
  <!-- Car Database CLI: the record it stores, on a terminal-dark tile. -->
  <defs>
    <linearGradient id="cardb-bg" x1="0" y1="0" x2="1" y2="1">
      <stop offset="0%" stop-color="#475569" />
      <stop offset="100%" stop-color="#111827" />
    </linearGradient>
  </defs>
  <rect width="100" height="100" rx="22" fill="url(#cardb-bg)" />
  <g transform="translate(0 -5)">
    <path
      d="M18 64v-9a5 5 0 0 1 4-5l10-2 8-9a7 7 0 0 1 5-2h16a7 7 0 0 1 5 2l8 9 10 2a5 5 0 0 1 4 5v9z"
      fill="#ffffff"
    />
    <g fill="#ffffff">
      <circle cx="33" cy="65" r="8" />
      <circle cx="69" cy="65" r="8" />
    </g>
    <g fill="#111827">
      <circle cx="33" cy="65" r="3.4" />
      <circle cx="69" cy="65" r="3.4" />
    </g>
  </g>
</svg>
