<svg xmlns="http://www.w3.org/2000/svg" width="400" height="398.922"><g fill-rule="evenodd"><path d="M196.841 56.154c-2.265.485-4.783 2.735-6.31 5.639-.352.67-.497 4.661-.527 14.476l-.041 13.551-1.568.251c-.863.138-1.569.407-1.569.599 0 .191-.449.348-.998.348-.621 0-.998.226-.998.599a.6.6 0 01-.598.599c-.33 0-.599.176-.599.391 0 .216-.449.504-.998.642-.549.138-.998.411-.998.607 0 .195-.27.356-.599.356-.329 0-.599.173-.599.385 0 .522-2.264 2.808-2.781 2.808-.227 0-.412.27-.412.599 0 .329-.27.599-.599.599a.6.6 0 00-.599.599c0 .329-.147.598-.326.598-.179 0-.729.719-1.223 1.597-.494.878-1.066 1.597-1.271 1.597-.206 0-.374.449-.374.998 0 .549-.179.998-.399.998-.219 0-.399.415-.399.922 0 .507-.264 1.27-.586 1.696-.323.427-.592 1.365-.599 2.085-.008.787-.252 1.402-.612 1.54-.498.191-.598 1.326-.598 6.786 0 5.46.1 6.595.598 6.787.391.15.599.77.599 1.784 0 .854.178 1.554.395 1.554.217 0 .509.718.65 1.597.14.878.412 1.596.603 1.596.192 0 .348.65.348 1.443 0 1.477-.447 2.463-9.671 21.312-2.418 4.94-4.904 10.06-5.526 11.377-1.836 3.891-9.74 20.155-13.839 28.475-2.09 4.245-4.022 7.802-4.292 7.906-.533.204-4.79-2.568-7.983-5.2a290.306 290.306 0 00-2.994-2.438c-3.259-2.592-15.575-15.64-15.575-16.502a.605.605 0 00-.375-.531c-.398-.141-5.212-6.676-5.216-7.081-.017-1.541-4.141-1.949-6.117-.606-14.014 9.523-21.374 15.758-21.415 18.141-.06 3.471 20.098 26.413 29.73 33.836.219.169 1.567 1.195 2.994 2.28 1.427 1.085 2.655 2.113 2.728 2.285.073.173.372.313.665.313.293 0 .592.147.665.326.074.179 1.965 1.528 4.203 2.998l4.07 2.672-.51 1.294c-1.15 2.914-1.633 3.888-1.929 3.888-.171 0-.311.287-.311.638 0 .35-.69 2.012-1.532 3.692-2.768 5.52-8.531 17.383-9.533 19.622-.54 1.208-1.147 2.509-1.347 2.891-.762 1.45-2.889 5.748-3.509 7.089-.355.769-.736 1.487-.846 1.597-.11.11-.489.828-.842 1.597l-1.934 4.191c-3.047 6.595-3.207 7.334-3.242 14.942-.017 3.638-.164 8.771-.327 11.406-.425 6.876.03 8.419 2.896 9.804 2.888 1.395 3.711 1.054 10.071-4.172 2.435-2 5.207-4.265 6.16-5.034 8.216-6.621 8.263-6.684 14.335-19.161.695-1.427 1.418-2.865 1.607-3.194.188-.329.944-1.856 1.678-3.393.734-1.537 1.469-2.854 1.634-2.928.165-.073.3-.408.3-.744s2.044-4.768 4.543-9.847c2.5-5.08 5.207-10.673 6.017-12.429.811-1.757 1.829-3.823 2.263-4.591.435-.768.978-1.891 1.208-2.495.448-1.178 1.51-1.418 3.215-.726.505.205 1.995.663 3.312 1.018 1.318.355 2.935.835 3.593 1.068.659.232 1.916.575 2.795.761.878.186 2.854.628 4.391.982 1.537.355 3.962.81 5.389 1.012 1.427.203 2.864.484 3.194.625.329.141 2.305.401 4.391.576 2.086.176 5.319.51 7.186.742 4.272.533 16.954.535 21.956.005 2.085-.221 5.319-.553 7.185-.738 1.867-.185 3.663-.45 3.992-.589.33-.139 1.767-.418 3.194-.621a77.047 77.047 0 005.389-1.012c1.537-.354 3.513-.805 4.391-1.003 2.18-.49 5.104-1.354 5.589-1.651.22-.134 1.118-.374 1.996-.532.878-.158 1.812-.465 2.074-.682 1.233-1.019 2.295-.178 3.868 3.06 3.478 7.167 9.347 19.21 12.838 26.348 4.331 8.854 8.166 16.919 8.166 17.173 0 1.602 5.279 7.888 9.381 11.17 1.097.878 2.191 1.776 2.429 1.996.239.22 1.216 1.028 2.172 1.796 2.148 1.727 5.114 4.2 6.178 5.151 3.905 3.489 7.061 3.578 9.584.27l.995-1.304v-9.492c0-9.004-.619-16.515-1.548-18.776-.441-1.074-2.381-5.219-4.437-9.482-.927-1.922-1.584-3.757-1.46-4.079.123-.322.066-.683-.127-.803-.193-.119-1.693-2.954-3.334-6.3-8.158-16.643-11.897-24.333-13.244-27.24-1.341-2.896-4.129-8.633-13.387-27.545a4914.706 4914.706 0 01-12.854-26.547c-5.275-10.967-10.083-20.566-10.364-20.688-.162-.07-.651-.879-1.086-1.796-.435-.917-2.931-6.069-5.547-11.448l-5.63-11.577c-.481-.988-1.09-2.122-1.353-2.519-.392-.59-.352-.817.219-1.241.384-.286.699-.983.699-1.55 0-.567.179-1.141.399-1.277.219-.136.399-.583.399-.993 0-.411.27-1.016.599-1.345.371-.371.599-1.351.599-2.575 0-1.269.214-2.153.599-2.472.445-.37.598-1.359.598-3.87 0-2.466-.161-3.534-.598-3.972-.373-.372-.599-1.353-.599-2.595 0-1.242-.226-2.222-.599-2.594-.329-.33-.599-1.125-.599-1.768s-.18-1.169-.399-1.169c-.22 0-.399-.455-.399-1.011 0-.556-.27-1.114-.599-1.24-.329-.127-.599-.66-.599-1.185 0-.583-.233-.956-.599-.956a.6.6 0 01-.599-.598c0-.33-.14-.599-.313-.599-.172 0-.605-.494-.963-1.098-.357-.604-1.187-1.609-1.844-2.233-2.887-2.744-3.245-3.056-3.502-3.056-.15 0-.688-.45-1.197-.998-.509-.549-1.298-.998-1.755-.998-.456 0-.933-.27-1.06-.599-.126-.33-.659-.599-1.185-.599-.525 0-.955-.16-.955-.356 0-.196-.449-.469-.998-.606l-.998-.251V77.509c0-14.293-.387-16.274-3.796-19.425-1.697-1.568-6.448-2.55-9.343-1.93m6.752 44.245c.273.33.913.599 1.422.599 2.502 0 10.155 6 10.155 7.962 0 .451.179.82.399.82.219 0 .399.43.399.956 0 .525.27 1.058.599 1.185.432.166.599.843.599 2.438 0 1.214.179 2.208.399 2.208.219 0 .399.708.399 1.573s-.18 1.684-.399 1.82c-.22.136-.399 1.14-.399 2.232 0 1.396-.178 2.053-.599 2.215-.329.126-.599.639-.599 1.139 0 1.919-5.119 7.787-6.794 7.787-.435 0-.791.18-.791.4 0 .219-.449.399-.998.399-.621 0-.998.226-.998.599 0 .434-.447.598-1.625.598-.913 0-1.888.263-2.224.599-.382.382-1.367.599-2.717.599-1.396 0-2.288-.204-2.615-.599-.315-.379-1.196-.599-2.402-.599-1.324 0-1.974-.182-2.134-.598-.126-.33-.602-.599-1.058-.599-.866 0-1.315-.288-3.264-2.096-.651-.604-1.316-1.098-1.477-1.098-.389 0-2.041-2.248-2.041-2.778a.408.408 0 00-.399-.415c-.219 0-.399-.43-.399-.956 0-.525-.27-1.058-.599-1.185-.329-.126-.599-.697-.599-1.269 0-.571-.269-1.308-.598-1.638-.456-.455-.599-1.59-.599-4.733s.143-4.278.599-4.733c.329-.33.598-1.039.598-1.577 0-.537.27-1.201.599-1.474.329-.274.599-.745.599-1.047 0-.303.18-.55.399-.55.22 0 .399-.258.399-.573 0-.315 1-1.572 2.222-2.794s2.479-2.222 2.794-2.222c.315 0 .573-.18.573-.399 0-.22.43-.399.955-.399.526 0 1.059-.27 1.186-.599.15-.392.772-.599 1.796-.599s1.646-.207 1.796-.599c.179-.466.971-.599 3.587-.599 2.497 0 3.484.154 3.854.599m-3.194 48.555c0 .571 1.665 4.047 15.369 32.084 2.361 4.83 4.795 9.86 5.408 11.178.614 1.317 2.864 5.988 5 10.379 5.803 11.928 5.864 12.062 5.696 12.568-.189.565-4.116 1.971-5.558 1.99-.567.007-1.166.147-1.33.312-.369.369-4.62 1.206-8.617 1.696-1.646.202-4.161.551-5.589.775-3.341.524-18.18.528-21.556.005-1.428-.22-3.943-.575-5.589-.788-2.707-.35-4.494-.684-10.485-1.96-1.046-.222-2.247-.589-2.668-.815-.422-.225-1.126-.41-1.565-.41-1.768 0-1.413-1.473 2.053-8.512 1.857-3.772 4.1-8.384 4.985-10.25 1.516-3.196 3.072-6.403 13.366-27.545 2.299-4.721 4.756-9.841 5.461-11.378.705-1.536 1.442-3.063 1.637-3.393.195-.329.857-1.58 1.47-2.779 1.681-3.288 1.877-3.608 2.208-3.608.167 0 .304.203.304.451" fill="#217be6"/><path d="M308.084 151.329c-.384.224-.699.646-.699.937 0 .292-.269.754-.598 1.027-.689.572-3.793 5.135-3.793 5.576 0 .163-.404.742-.898 1.288s-1.244 1.605-1.667 2.354c-.422.749-.881 1.451-1.019 1.561-.138.11-.661.875-1.163 1.702-1.332 2.191-4.035 2.858-4.035.996 0-.167-.257-.303-.571-.303-.313 0-.808-.224-1.098-.499-.445-.421-3.258-1.868-8.843-4.547-.621-.299-1.44-.543-1.82-.543-.379 0-1.038-.264-1.464-.586-.427-.322-1.272-.592-1.879-.599-.606-.007-1.415-.173-1.796-.369-2.879-1.483-20.91-2.246-24.92-1.055-1.136.337-2.651.613-3.367.613-.716 0-1.412.18-1.548.399-.136.22-.73.406-1.321.414-.591.008-1.523.271-2.072.584-.549.314-1.392.577-1.873.585-1.521.025-1.372.527 2.439 8.236 2.052 4.151 4.81 9.792 6.13 12.537 4.728 9.834 9.78 20.267 12.853 26.547 9.258 18.912 12.046 24.649 13.387 27.545.814 1.756 3.456 7.235 5.871 12.175 11.924 24.388 10.608 22.272 12.808 20.594.745-.568 1.461-1.033 1.592-1.033.13 0 .832-.552 1.559-1.226.727-.674 1.771-1.466 2.32-1.76 4.75-2.542 14.538-16.262 17.663-24.758 1.364-3.712 1.599-4.451 1.771-5.589.1-.659.332-1.557.517-1.996.185-.439.531-2.146.769-3.793 1.15-7.974.762-7.434 4.927-6.861 4.783.659 15.918 1.195 16.968.817 1.828-.658 1.011-3.132-1.041-3.15-.8-.007-3.251-.273-5.446-.591-2.196-.318-6.171-.582-8.834-.586-5.574-.009-5.524.02-5.882-3.401-.138-1.318-.529-3.922-.868-5.789a197.576 197.576 0 01-.85-4.99c-.128-.878-.48-1.951-.782-2.384-.302-.433-.549-1.276-.549-1.872 0-.597-.166-1.188-.368-1.313-.203-.126-.486-.763-.63-1.416-.393-1.792-4.246-9.201-6.548-12.594-1.119-1.65-2.035-3.09-2.035-3.201 0-.111-2.111-2.365-4.69-5.009-5.169-5.296-5.383-5.695-3.91-7.284.558-.602 1.015-1.181 1.015-1.286 0-.105.988-1.633 2.196-3.396 1.208-1.763 2.196-3.349 2.196-3.523 0-.175.404-.764.898-1.31s1.241-1.65 1.659-2.453c.419-.804.872-1.462 1.008-1.462.135 0 .584-.628.997-1.396 1.144-2.124-.578-3.78-2.666-2.564m-30.241 25.763c3.575 3.23 1.45 8.651-3.391 8.651-3.284 0-4.997-1.681-4.978-4.883.029-4.796 4.836-6.96 8.369-3.768m23.47 49.541c3.729 2.418 3.652 6.62-.163 8.871-4.887 2.884-9.983-3.556-6.288-7.947.559-.665 1.35-1.21 1.757-1.21.406 0 .85-.179.986-.399.44-.712 1.997-.424 3.708.685" fill="#04e37c"/><path d="M194.311 3.868c-.384.1-.698.349-.698.552 0 .204-.904.37-2.009.37-1.417 0-2.076.177-2.238.599-.126.33-.66.599-1.185.599-.583 0-.955.233-.955.599 0 .432-.444.599-1.597.599-.879 0-1.597.179-1.597.399 0 .219-.455.399-1.011.399-.555 0-1.114.269-1.24.599-.126.329-.48.599-.786.599-.306 0-.556.269-.556.598 0 .373-.377.599-.998.599-.549 0-.998.18-.998.399 0 .22-.449.4-.998.4-.621 0-.998.226-.998.598a.6.6 0 01-.599.599.6.6 0 00-.598.599c0 .366-.373.599-.956.599-.525 0-1.058.269-1.185.599-.126.329-.684.598-1.24.598-.556 0-1.011.18-1.011.4 0 .219-.269.399-.599.399a.6.6 0 00-.598.599c0 .372-.377.598-.998.598s-.998.227-.998.599c0 .373-.377.599-.998.599-.549 0-.998.18-.998.399 0 .22-.635.399-1.41.399-.885 0-1.495.223-1.64.599-.148.387-.766.599-1.741.599-.975 0-1.593.213-1.741.599-.152.395-.777.599-1.839.599-.885 0-1.609.179-1.609.399 0 .231-1.269.399-3.007.399-2.304 0-3.06.14-3.236.599-.2.519-2.501.599-17.353.599-14.954 0-17.123.076-17.123.598 0 .433-.443.599-1.597.599-1.153 0-1.597.167-1.597.599 0 .399-.399.599-1.197.599-.659 0-1.198.18-1.198.399 0 .22-.449.399-.998.399-.621 0-.998.227-.998.599 0 .363-.371.599-.942.599-.539 0-1.263.427-1.691.998-.413.549-.977.998-1.254.998s-.504.269-.504.599c0 .372-.377.599-.998.599s-.998.226-.998.598c0 .33-.183.599-.406.599-.621 0-3.187 2.783-3.187 3.456 0 .689-.945 1.734-1.568 1.734-.235 0-.428.539-.428 1.197 0 .659-.192 1.198-.428 1.198-.761 0-1.568 1.114-1.568 2.167 0 .646-.222 1.027-.599 1.027-.372 0-.598.377-.598.998s-.227.998-.599.998a.6.6 0 00-.599.598c0 .33-.18.599-.399.599-.22 0-.399.449-.399.998 0 .621-.227.998-.599.998-.399 0-.599.399-.599 1.198 0 .658-.204 1.197-.452 1.197-.671 0-1.943 1.609-1.943 2.457 0 .405-.18.737-.399.737-.22 0-.4.269-.4.599 0 .329-.193.599-.43.599-.558 0-2.763 2.205-2.763 2.763 0 .237-.194.43-.43.43-.559 0-2.764 2.205-2.764 2.764 0 .236-.194.43-.431.43-.56 0-3.96 3.399-3.96 3.96 0 .237-.404.437-.898.444-1.03.014-2.296.857-2.296 1.528 0 .25-.424.455-.942.455-.539 0-1.263.427-1.691.998-.418.557-1.155.998-1.666.998-.503 0-1.019.27-1.145.599-.127.329-.48.599-.786.599-.306 0-.556.269-.556.598 0 .373-.377.599-.998.599-.549 0-.998.18-.998.399 0 .22-.449.4-.998.4-.621 0-.998.226-.998.598 0 .4-.399.599-1.198.599-.798 0-1.197.2-1.197.599 0 .433-.444.599-1.597.599s-1.597.166-1.597.599c0 .372-.377.599-.998.599-.549 0-.998.179-.998.399 0 .219-.455.399-1.011.399-.555 0-1.113.269-1.24.599-.126.329-.659.599-1.185.599-.583 0-.955.233-.955.598 0 .373-.377.599-.998.599-.549 0-.998.18-.998.399 0 .22-.27.4-.599.4a.6.6 0 00-.599.598c0 .333-.355.599-.798.599-.832 0-2.395 1.303-2.395 1.996 0 .22-.194.399-.43.399-.753 0-2.764 2.302-2.764 3.163 0 .471-.259.829-.599.829a.601.601 0 00-.599.599.6.6 0 01-.598.599c-.373 0-.599.377-.599.998 0 .549-.166.998-.368.998-.202 0-.486.539-.63 1.198-.145.658-.429 1.197-.631 1.197s-.367.719-.367 1.597c0 1.153-.167 1.597-.599 1.597-.421 0-.599.424-.599 1.426 0 .784-.269 1.695-.599 2.024-.417.417-.598 1.438-.598 3.365 0 1.578-.172 2.766-.4 2.766-.246 0-.399 2.062-.399 5.389 0 4.524-.096 5.389-.599 5.389-.49 0-.598.688-.598 3.792 0 3.105-.109 3.793-.599 3.793-.46 0-.599.51-.599 2.196 0 1.207-.18 2.195-.399 2.195-.22 0-.399.988-.399 2.196 0 1.685-.14 2.195-.599 2.195-.433 0-.599.444-.599 1.597s-.166 1.597-.599 1.597c-.372 0-.599.377-.599.998 0 .549-.177.998-.394.998-.217 0-.51.719-.65 1.597s-.412 1.597-.604 1.597c-.191 0-.348.269-.348.598a.6.6 0 01-.599.599c-.399 0-.598.399-.598 1.198 0 .798-.2 1.197-.599 1.197-.373 0-.599.377-.599.998 0 .549-.18.998-.399.998-.22 0-.399.27-.399.599a.6.6 0 01-.599.599c-.373 0-.599.377-.599.998s-.226.998-.599.998a.6.6 0 00-.599.599c0 .329-.179.599-.399.599-.219 0-.399.449-.399.998 0 .621-.226.998-.599.998a.6.6 0 00-.599.598.6.6 0 01-.598.599c-.33 0-.599.193-.599.428 0 .553-1.016 1.568-1.568 1.568-.236 0-.428.539-.428 1.198 0 .659-.178 1.197-.395 1.197-.78 0-2 1.394-2 2.285 0 .5-.18.909-.4.909-.219 0-.399.27-.399.599a.6.6 0 01-.599.599c-.372 0-.598.377-.598.998s-.227.998-.599.998c-.373 0-.599.377-.599.998 0 .549-.18.998-.399.998-.22 0-.399.539-.399 1.197 0 .799-.2 1.198-.599 1.198-.433 0-.599.443-.599 1.597 0 1.153-.166 1.596-.599 1.596-.47 0-.599.552-.599 2.572 0 1.414-.179 2.682-.399 2.818-.498.307-.533 4.99-.037 4.99.199 0 .49.943.647 2.096.157 1.152.469 2.212.693 2.354.225.142.543 1.04.708 1.996.296 1.724.822 3.37 1.847 5.79.294.692.533 1.376.533 1.521 0 .27 1.755 4.264 2.405 5.474 2.608 4.857 5.982 16.246 5.98 20.19-.001 1.153.178 2.096.398 2.096.658 0 .451 1.27-.3 1.839-.665.505-.665.531 0 .543.956.018 1.048 4.983.1 5.347-.488.187-.599 1.155-.599 5.245 0 4.089-.11 5.057-.598 5.245-.445.17-.599.878-.599 2.748 0 1.584-.175 2.577-.472 2.676-.3.1-.537 1.497-.648 3.826-.096 2.018-.342 3.668-.545 3.668-.207 0-.34 1.747-.302 3.961.055 3.182.176 3.92.618 3.75.42-.161.553.248.563 1.728.007 1.068.276 2.287.599 2.714.322.426.586 1.156.586 1.622 0 4.658 7.548 13.557 19.213 22.652 6.913 5.39 12.138 11.277 15.854 17.865 1.202 2.129 3.656 7.104 3.669 7.435.008.192.361 1.068.785 1.946.424.878.777 1.824.785 2.101.007.278.175.817.372 1.198.618 1.196 1.537 3.795 2.222 6.282.363 1.317.829 2.707 1.036 3.088.206.382.375.942.375 1.246 0 .746 2.339 6.084 3.476 7.933.504.819.916 1.602.916 1.739 0 .448 2.5 3.519 4.256 5.229 2.89 2.812 9.074 6.497 12.311 7.334.658.17 2.455.661 3.992 1.091 1.536.43 4.501 1.095 6.586 1.479 18.552 3.414 26.732 7.652 40.618 21.043 6.662 6.424 6.671 6.433 10.123 8.983 8.023 5.927 19.681 7.299 30.896 3.636 15.874-5.185 28.09-6.509 38.428-4.164 3.958.897 8.851 2.234 12.01 3.28 18.231 6.039 27.939 3.625 42.576-10.587 9.173-8.906 13.485-12.2 20.395-15.575 7.018-3.427 11.208-4.712 21.521-6.599 3.985-.729 5.995-1.22 8.397-2.052.885-.306 1.816-.557 2.068-.557.74 0 5.727-2.398 8.01-3.852 5.438-3.464 9.174-8.496 12.254-16.507.38-.988.839-2.089 1.021-2.446.182-.358.457-1.346.61-2.196.154-.85.398-1.726.543-1.945.145-.22.591-1.477.992-2.795.401-1.317.878-2.754 1.06-3.193.183-.439.725-1.787 1.205-2.994 4.82-12.117 11.936-21.308 22.722-29.35 7.29-5.435 15.569-14.705 15.569-17.433 0-.371.166-.778.369-.903.202-.125.489-.777.636-1.448.148-.671.52-1.701.827-2.29.307-.589.56-1.661.561-2.381.002-.795.238-1.401.601-1.54.715-.274.909-9.725.2-9.725-.228 0-.399-1.188-.399-2.766 0-1.926-.182-2.948-.599-3.365-.427-.427-.599-1.467-.599-3.621 0-2.421-.119-3.023-.599-3.023-.503 0-.599-.878-.604-5.489-.006-5.79-.249-7.756-.842-6.82-.245.386-.34.294-.344-.332-.003-.476.218-.94.493-1.032.357-.12.504-1.408.517-4.524.011-2.603.27-5.322.643-6.753.845-3.246 3.006-9.536 4.114-11.976.9-1.982 3.615-8.451 4.188-9.98 1.104-2.948 1.345-3.754 1.51-5.074.103-.815.438-1.691.745-1.945.307-.255.558-1.154.558-1.998 0-1.158.209-1.645.853-1.99.935-.5.909-6.37-.03-6.683-.24-.08-.423-1.257-.423-2.715 0-1.92-.153-2.632-.599-2.804-.33-.126-.599-.659-.599-1.185 0-.583-.233-.955-.599-.955-.432 0-.599-.444-.599-1.597 0-.878-.179-1.597-.399-1.597-.219 0-.399-.269-.399-.599a.6.6 0 00-.599-.598c-.374 0-.599-.379-.599-1.011 0-.556-.269-1.114-.598-1.24-.33-.127-.599-.584-.599-1.016 0-.829-2.03-3.121-2.764-3.121-.236 0-.43-.508-.43-1.13 0-.797-.294-1.287-.998-1.664-.549-.294-.998-.773-.998-1.065 0-.293-.269-.532-.599-.532-.372 0-.598-.377-.598-.998s-.227-.998-.599-.998a.6.6 0 01-.599-.599c0-.329-.18-.598-.399-.598-.22 0-.399-.27-.399-.599a.6.6 0 00-.599-.599c-.373 0-.599-.377-.599-.998s-.226-.998-.599-.998c-.377 0-.599-.38-.599-1.027 0-1.052-.806-2.167-1.568-2.167-.235 0-.428-.539-.428-1.197 0-.799-.199-1.198-.598-1.198-.373 0-.599-.377-.599-.998 0-.549-.18-.998-.399-.998-.22 0-.4-.346-.4-.77 0-.423-.269-1.039-.599-1.368-.329-.33-.598-1.157-.598-1.838 0-.733-.245-1.332-.599-1.468-.39-.15-.599-.771-.599-1.784 0-1.115-.169-1.554-.599-1.554-.432 0-.599-.444-.599-1.597 0-.878-.179-1.597-.399-1.597-.225 0-.399-1.131-.399-2.595 0-2.04-.128-2.595-.599-2.595-.49 0-.599-.687-.599-3.792 0-3.105-.108-3.792-.598-3.792-.503 0-.599-.865-.599-5.39 0-3.326-.153-5.389-.399-5.389-.23 0-.4-1.248-.4-2.945 0-2.131-.165-3.082-.598-3.442-.344-.285-.599-1.156-.599-2.045 0-1.11-.17-1.548-.599-1.548-.43 0-.599-.439-.599-1.554 0-1.013-.208-1.634-.599-1.784-.329-.126-.598-.594-.598-1.041 0-.446-.18-.81-.4-.81-.219 0-.399-.27-.399-.599a.6.6 0 00-.599-.599c-.372 0-.598-.377-.598-.998s-.227-.998-.599-.998c-.329 0-.599-.194-.599-.43 0-.559-2.205-2.764-2.764-2.764-.236 0-.43-.269-.43-.598 0-.373-.377-.599-.998-.599s-.998-.226-.998-.599c0-.329-.25-.599-.556-.599-.306 0-.659-.269-.786-.599-.126-.329-.594-.598-1.04-.598-.446 0-.811-.18-.811-.4 0-.219-.27-.399-.599-.399a.6.6 0 01-.599-.599c0-.365-.372-.598-.955-.598-.526 0-1.059-.27-1.185-.599-.127-.33-.685-.599-1.24-.599-.556 0-1.011-.18-1.011-.399 0-.22-.449-.399-.998-.399-.621 0-.998-.227-.998-.599 0-.433-.444-.599-1.597-.599s-1.597-.166-1.597-.599c0-.399-.399-.599-1.197-.599-.799 0-1.198-.199-1.198-.599 0-.372-.377-.598-.998-.598-.549 0-.998-.18-.998-.4 0-.219-.449-.399-.998-.399-.621 0-.998-.226-.998-.599 0-.329-.25-.598-.556-.598-.306 0-.659-.27-.786-.599-.126-.329-.684-.599-1.24-.599-.556 0-1.011-.18-1.011-.399 0-.22-.449-.399-.998-.399-.621 0-.998-.227-.998-.599a.6.6 0 00-.598-.599c-.33 0-.599-.192-.599-.428 0-.761-1.115-1.568-2.167-1.568-.647 0-1.027-.222-1.027-.599 0-.329-.18-.599-.399-.599-.22 0-.399-.269-.399-.598 0-.33-.189-.599-.419-.599-.23 0-.834-.449-1.343-.998-.508-.549-1.129-.998-1.378-.998a.444.444 0 01-.453-.43c0-.559-2.205-2.764-2.764-2.764-.236 0-.43-.269-.43-.599 0-.329-.179-.598-.399-.598-.219 0-.399-.27-.399-.599a.6.6 0 00-.599-.599c-.329 0-.599-.18-.599-.399 0-.22-.269-.399-.599-.399-.38 0-.598-.383-.598-1.052 0-.61-.42-1.442-.998-1.977-.549-.509-.998-1.209-.998-1.556 0-.346-.27-.733-.599-.86-.329-.126-.599-.48-.599-.786 0-.306-.269-.556-.599-.556-.372 0-.599-.377-.599-.998 0-.549-.179-.998-.399-.998-.219 0-.399-.449-.399-.998 0-.621-.226-.998-.599-.998a.6.6 0 01-.599-.599.6.6 0 00-.598-.598c-.377 0-.599-.381-.599-1.027 0-1.053-.807-2.167-1.568-2.167-.236 0-.428-.424-.428-.942 0-.539-.427-1.263-.998-1.692-.549-.412-.998-.976-.998-1.253 0-.277-.27-.504-.599-.504-.373 0-.599-.377-.599-.998s-.226-.998-.599-.998a.6.6 0 01-.598-.599.601.601 0 00-.599-.599c-.33 0-.599-.177-.599-.395 0-.713-1.36-2-2.113-2-.81 0-1.879-.893-1.879-1.568 0-.236-.269-.428-.599-.428a.601.601 0 01-.599-.599c0-.369-.374-.599-.974-.599-.536 0-1.086-.179-1.221-.399-.136-.219-.685-.399-1.221-.399-.6 0-.975-.23-.975-.599 0-.46-.51-.599-2.195-.599-1.686 0-2.196-.139-2.196-.599 0-.522-2.169-.598-17.123-.598-14.852 0-17.153-.08-17.353-.599-.176-.459-.932-.599-3.236-.599-1.738 0-3.007-.168-3.007-.399 0-.22-.699-.399-1.554-.399-1.013 0-1.634-.209-1.784-.599-.151-.395-.776-.599-1.839-.599-1.164 0-1.609-.165-1.609-.599 0-.432-.444-.599-1.597-.599-.878 0-1.597-.179-1.597-.399 0-.219-.449-.399-.998-.399-.621 0-.998-.226-.998-.599 0-.372-.377-.599-.998-.599s-.998-.226-.998-.598a.6.6 0 00-.598-.599c-.33 0-.599-.18-.599-.399 0-.22-.455-.4-1.011-.4-.556 0-1.114-.269-1.24-.598-.127-.33-.66-.599-1.185-.599-.583 0-.956-.233-.956-.599a.6.6 0 00-.598-.599.6.6 0 01-.599-.599c0-.372-.377-.598-.998-.598-.549 0-.998-.18-.998-.4 0-.219-.449-.399-.998-.399-.621 0-.998-.226-.998-.599 0-.329-.25-.598-.556-.598-.306 0-.66-.27-.786-.599-.126-.33-.685-.599-1.24-.599-.556 0-1.011-.18-1.011-.399 0-.22-.718-.399-1.597-.399-1.153 0-1.597-.167-1.597-.599 0-.373-.377-.599-.998-.599s-.998-.226-.998-.599c0-.453-.491-.599-2.024-.599-1.267 0-2.249-.224-2.623-.598-.582-.582-9.86-.836-11.82-.324m9.895 52.262c2.388 1.108 3.772 2.469 5.154 5.069l1.019 1.917v25.017l1.497.673c2.759 1.242 4.092 1.992 4.092 2.303 0 .169.365.308.811.308.446 0 .914.27 1.041.599.126.329.407.599.625.599 2.168 0 11.495 12.953 11.495 15.964 0 .388.27 1.35.599 2.138.851 2.037.849 13.144-.003 14.778-.328.629-.596 1.64-.596 2.246 0 .607-.269 1.327-.599 1.6-.329.274-.598.82-.598 1.214 0 .395-.309 1.256-.687 1.914-.659 1.148-.653 1.265.158 2.926.465.952 1.517 3.168 2.339 4.924.821 1.757 3.159 6.607 5.196 10.779 2.036 4.171 3.804 7.903 3.928 8.292.304.956 1.385 1.316 2.279.758.771-.482 2.955-1.094 5.948-1.666.988-.189 2.336-.52 2.994-.737 5.08-1.671 22.579-.895 26.641 1.182.382.195 1.111.354 1.621.354s1.276.264 1.702.587c.426.322 1.083.591 1.46.598 1.486.028 11.206 4.862 12.622 6.277.419.419 2.143.4 2.277-.026.236-.746 1.649-3.044 1.872-3.044.169 0 .308-.199.308-.442s.539-1.122 1.198-1.954c.658-.831 1.197-1.629 1.197-1.773 0-.298 3.135-4.913 3.893-5.729.274-.296.499-.692.499-.879 0-.6 2.434-2.796 3.098-2.796 2.518 0 3.112 3.622.917 5.589-.481.43-2.818 4.034-2.818 4.344 0 .181-.404.776-.898 1.322-.494.545-1.244 1.604-1.667 2.353-.422.749-.871 1.452-.998 1.561-.525.457-3.223 4.681-3.223 5.047 0 .218 1.393 1.822 3.096 3.564 1.703 1.741 3.498 3.659 3.988 4.262 1.669 2.052 5.291 7.044 5.291 7.293 0 .136.449.836.998 1.555.549.72.998 1.584.998 1.921 0 .337.27.836.599 1.109.329.273.599.718.599.987 0 .27.417 1.281.927 2.247s1.251 2.744 1.645 3.952c.395 1.207.883 2.518 1.084 2.914.202.395.553 1.562.78 2.594 1.301 5.909 1.619 7.778 1.822 10.711l.224 3.245 2.847.433c1.565.238 5.271.527 8.236.641 6.36.245 9.95.836 10.647 1.752 1.531 2.013-.502 4.295-3.462 3.886-4.062-.561-9.247-.98-13.573-1.097l-4.591-.124-.246 2.393c-.35 3.4-1.825 10.317-2.765 12.971-1.855 5.236-2.862 7.585-3.253 7.585-.177 0-.322.263-.322.584 0 .616-3.388 6.422-4.277 7.331-.286.292-.712.891-.948 1.332-1.789 3.343-10.931 11.776-17.046 15.725-.159.103.53 1.714 2.723 6.365 4.513 9.574 4.316 8.524 4.457 23.707l.121 12.905-1.748 1.554c-3.025 2.69-6.616 2.18-10.223-1.45a13.774 13.774 0 00-1.667-1.398c-.914-.622-5.654-4.446-9.316-7.516-2.702-2.264-6.276-5.944-6.912-7.118-.523-.964-1.405-2.748-6.865-13.897-2.043-4.172-4.56-9.382-5.593-11.577-1.034-2.196-4.014-8.326-6.624-13.622-2.61-5.296-4.745-9.81-4.745-10.031 0-1.172-1.133-1.314-3.848-.482a221.458 221.458 0 01-4.934 1.446c-1.208.334-2.744.768-3.415.966-1.836.542-4.901 1.179-7.424 1.541-1.24.179-2.462.452-2.714.608-.253.157-1.932.448-3.733.649-1.8.2-4.351.528-5.669.729-3.271.497-28.12.511-31.337.017a118.986 118.986 0 00-4.591-.608c-1.097-.115-3.343-.478-4.99-.806-1.646-.329-3.982-.789-5.189-1.023a81.052 81.052 0 01-4.192-.948c-4.915-1.284-7.344-1.964-9.468-2.65-3.201-1.033-3.159-1.052-4.637 2.16-.732 1.591-3.183 6.664-5.446 11.275-2.262 4.611-4.786 9.821-5.607 11.577-11.805 25.24-12.674 26.591-21.996 34.186a998.405 998.405 0 00-7.704 6.335c-5.558 4.649-9.79 4.504-12.08-.414-1.143-2.455-.397-24.64.959-28.53.743-2.131 3.134-7.143 14.282-29.94 2.362-4.831 4.872-10.04 5.579-11.577a202.126 202.126 0 012.843-5.868c1.535-3.027 1.895-4.312 1.21-4.312-.497 0-11.851-8.172-14.508-10.442a375.608 375.608 0 00-2.681-2.254c-2.448-2.041-13.836-13.413-15.869-15.847a234.79 234.79 0 01-2.993-3.664 543.685 543.685 0 00-2.234-2.795c-6.919-8.573-7.35-11.9-2.01-15.524.947-.642 1.811-1.276 1.921-1.409.11-.132 3.924-2.962 8.475-6.288 11.246-8.218 11.642-8.241 16.915-.966 6.142 8.472 14.11 17.09 19.72 21.326.768.581 1.756 1.388 2.196 1.795 1.713 1.586 5.354 4.108 6.258 4.335.942.237 3.858-5.006 8.997-16.171 2.206-4.794 3.521-7.391 3.806-7.518.165-.073.3-.456.3-.849 0-.394.269-.94.598-1.214.33-.273.599-.693.599-.932 0-.239.738-1.969 1.639-3.843a956.872 956.872 0 002.296-4.806c.361-.768.791-1.457.955-1.53.165-.073.297-.342.294-.599-.004-.256 1.542-3.609 3.434-7.451 1.892-3.843 3.892-7.974 4.443-9.182.929-2.036 2.807-5.863 3.675-7.488.204-.383.473-.965.598-1.294.124-.33.386-.869.581-1.198 1.397-2.352 1.42-2.711.315-4.894-.585-1.157-1.064-2.305-1.064-2.551s-.268-.962-.596-1.591c-.328-.629-.598-1.781-.599-2.561-.002-.779-.193-1.608-.426-1.841-1.097-1.096-.001-11.903 1.633-16.103.469-1.208.949-2.51 1.066-2.894.117-.384.352-.699.522-.699.17 0 .422-.449.56-.998.138-.549.427-.998.642-.998.215 0 .391-.206.391-.458 0-1.067 6.625-8.092 8.062-8.548.396-.126.721-.397.721-.602 0-.204.269-.372.599-.372.329 0 .599-.135.599-.299 0-.165 1.257-.903 2.794-1.641l2.794-1.341V76.833c0-16.347 1.078-19.288 7.785-21.255 3.346-.981 4.469-.9 7.599.552m-6.801 45.578c-4.992.297-9.638 3.674-12.656 9.198-1.511 2.767-1.865 10.706-.581 13.046.362.659.659 1.422.66 1.697.001.274.182.499.402.499.219 0 .399.247.399.55 0 1.52 5.204 5.751 8.775 7.134 2.014.78 9.352 1.005 9.788.3.135-.22.53-.399.878-.399 2.203 0 8.023-4.967 9.459-8.073 1.71-3.7 2.587-10.579 1.439-11.289-.219-.135-.399-.517-.399-.847 0-.89-1.784-4.601-2.73-5.677-.451-.514-.875-1.054-.942-1.2-1.276-2.806-8.572-5.293-14.492-4.939m1.918 49.29c-.619.823-4.113 8.162-4.113 8.64 0 .243-.18.442-.4.442-.219 0-.399.243-.399.54 0 .297-1.677 3.935-3.727 8.084-4.754 9.621-6.253 12.815-6.253 13.324 0 .224-.18.407-.399.407-.22 0-.399.337-.399.75 0 .412-.27.973-.599 1.246-.329.273-.599.718-.599.988 0 .269-.467 1.37-1.037 2.446a866.323 866.323 0 00-1.562 2.953c-.289.549-1.278 2.615-2.199 4.591-.92 1.976-3.361 7.013-5.424 11.194-4.187 8.486-4.18 8.465-2.652 8.773.604.121 1.726.426 2.495.677.768.25 2.116.595 2.994.766l4.79.936c13.184 2.582 32.828 2.075 45.709-1.178 1.427-.361 3.179-.755 3.892-.876 1.559-.264 1.711-1.282.538-3.613-1.005-1.997-13.97-28.65-18.405-37.837-.848-1.756-3.242-6.696-5.321-10.978-2.078-4.281-4.291-8.902-4.916-10.269-1.194-2.609-1.403-2.818-2.014-2.006m72.932 25.769c-1.805 1.226-2.368 2.193-2.381 4.093-.03 4.036 5.059 6.025 7.923 3.096 3.601-3.684-1.314-10.059-5.542-7.189m24.101 50.387c-1.786.894-2.463 2.713-1.896 5.089.919 3.846 6.38 4.414 8.294.862 2.214-4.107-2.09-8.11-6.398-5.951" fill="#fbfbfb"/><path d="M199.002 54.962c-8.826 1.631-10.18 4.526-10.18 21.771 0 10.189-.063 11.254-.698 11.765-.506.408-.341.389.599-.066l1.297-.628V75.285c0-13.184-.024-12.992 1.939-15.732 2.889-4.034 10.694-4.839 14.237-1.469 3.256 3.097 3.54 4.454 3.79 18.164l.221 12.175.086-12.653.086-12.654-1.019-1.917c-2.133-4.013-6.89-6.877-10.358-6.237m-19.96 39.118c-.878.787-1.238 1.245-.798 1.018.739-.384 2.944-2.504 2.564-2.467-.093.01-.888.661-1.766 1.449m42.914 1.928c.745.768 1.444 1.397 1.554 1.397.11 0-.41-.629-1.155-1.397-.745-.768-1.444-1.397-1.554-1.397-.109 0 .41.629 1.155 1.397m-46.532 1.896l-1.173 1.298 1.298-1.173c1.209-1.093 1.481-1.422 1.172-1.422-.068 0-.652.584-1.297 1.297m21.283 3.775a5.695 5.695 0 001.796 0c.494-.095.09-.173-.898-.173s-1.392.078-.898.173m4.391 0a5.695 5.695 0 001.796 0c.494-.095.09-.173-.898-.173s-1.392.078-.898.173m-30.574 3.927c-.669 1.468-.541 1.781.182.447.338-.624.539-1.208.448-1.3-.091-.091-.375.293-.63.853m58.542 1.18c.202.44.467 1.068.589 1.398.192.517.226.514.254-.024.017-.342-.248-.971-.59-1.397-.611-.763-.615-.762-.253.023m-14.695 3.471c0 .127.269.745.597 1.374.328.629.591.874.586.545-.006-.33-.274-.948-.597-1.374-.322-.426-.586-.671-.586-.545m16.482 3.316c.003 1.098.08 1.499.172.893.092-.607.089-1.505-.005-1.996-.095-.491-.17.005-.167 1.103m-62.54-.384c-.137.357-.228 1.308-.202 2.113.043 1.348.073 1.307.378-.519.341-2.038.264-2.74-.176-1.594m15.013 1.781c0 .769.082 1.083.183.699.1-.385.1-1.013 0-1.398-.101-.384-.183-.069-.183.699m-.383 3.194c0 .988.078 1.392.173.898a5.7 5.7 0 000-1.797c-.095-.494-.173-.089-.173.899m33.525-.2c.004.878.086 1.191.182.694.095-.497.091-1.215-.008-1.597-.1-.381-.178.025-.174.903m-48.404 3.303c0 .902.162 1.74.361 1.863.206.128.268-.505.145-1.473-.287-2.248-.506-2.417-.506-.39m15.262.09c0 .769.082 1.083.183.699.1-.384.1-1.013 0-1.397-.101-.385-.183-.07-.183.698m47.527 1.397c.003 1.098.08 1.5.172.893.092-.607.089-1.505-.005-1.996-.095-.491-.17.006-.167 1.103m-19.255 6.703c-1.416 1.583-1.962 2.339-1.213 1.681 1.506-1.324 2.011-1.871 3.221-3.493 1.344-1.801.718-1.236-2.008 1.812m-41.523-.116c.006.33.274.948.596 1.374.754.996.749.627-.01-.829-.328-.629-.592-.874-.586-.545m20.145 2.602c.439.358 1.157.827 1.596 1.042l.799.392-.799-.65c-.439-.357-1.157-.826-1.596-1.042l-.799-.392.799.65m-18.489 2.667c-.289.725-.694 1.588-.901 1.917a8.042 8.042 0 00-.602 1.198 13.79 13.79 0 01-.598 1.294c-.868 1.625-2.746 5.452-3.675 7.488-.551 1.208-2.551 5.339-4.443 9.182-1.892 3.842-3.438 7.195-3.434 7.451.003.257-.129.526-.294.599-.164.073-.594.762-.955 1.53-.362.769-1.395 2.931-2.296 4.806-.901 1.874-1.639 3.604-1.639 3.843 0 .239-.269.659-.599.932-.329.274-.598.82-.598 1.214 0 .393-.135.776-.3.849-.285.127-1.6 2.724-3.806 7.518-5.139 11.165-8.055 16.408-8.997 16.171-.904-.227-4.545-2.749-6.258-4.335-.44-.407-1.428-1.214-2.196-1.795-5.61-4.236-13.578-12.854-19.72-21.326-5.273-7.275-5.669-7.252-16.915.966-4.551 3.326-8.365 6.156-8.475 6.288-.11.133-.974.767-1.921 1.409-5.34 3.624-4.909 6.951 2.01 15.524.5.619 1.505 1.877 2.234 2.795a234.79 234.79 0 002.993 3.664c2.033 2.434 13.421 13.806 15.869 15.847.973.811 2.179 1.825 2.681 2.254 2.657 2.27 14.011 10.442 14.508 10.442.685 0 .325 1.285-1.21 4.312a202.126 202.126 0 00-2.843 5.868c-.707 1.537-3.217 6.746-5.579 11.577-11.148 22.797-13.539 27.809-14.282 29.94-1.356 3.89-2.102 26.075-.959 28.53 2.29 4.918 6.522 5.063 12.08.414a998.405 998.405 0 017.704-6.335c9.322-7.595 10.191-8.946 21.996-34.186.821-1.756 3.345-6.966 5.607-11.577 2.263-4.611 4.714-9.684 5.446-11.275 1.478-3.212 1.436-3.193 4.637-2.16 2.124.686 4.553 1.366 9.468 2.65 1.098.287 2.984.714 4.192.948 1.207.234 3.543.694 5.189 1.023 1.647.328 3.893.691 4.99.806 1.098.115 3.164.389 4.591.608 3.217.494 28.066.48 31.337-.017a173.65 173.65 0 015.669-.729c1.801-.201 3.48-.492 3.733-.649.252-.156 1.474-.429 2.714-.608 2.523-.362 5.588-.999 7.424-1.541.671-.198 2.207-.632 3.415-.966 1.207-.333 3.428-.984 4.934-1.446 2.715-.832 3.848-.69 3.848.482 0 .221 2.135 4.735 4.745 10.031 2.61 5.296 5.59 11.426 6.624 13.622 1.033 2.195 3.55 7.405 5.593 11.577 5.46 11.149 6.342 12.933 6.865 13.897.636 1.174 4.21 4.854 6.912 7.118 3.662 3.07 8.402 6.894 9.316 7.516.475.324 1.225.952 1.667 1.398 3.607 3.63 7.198 4.14 10.223 1.45l1.748-1.554-.121-12.905c-.141-15.183.056-14.133-4.457-23.707-2.193-4.651-2.882-6.262-2.723-6.365 6.115-3.949 15.257-12.382 17.046-15.725.236-.441.662-1.04.948-1.332.803-.821 4.277-6.687 4.277-7.222 0-.263-.835.956-1.854 2.708-4.526 7.776-11.773 15.393-19.204 20.185-2.513 1.62-2.488 1.319-.453 5.541 2.029 4.209 3.959 8.336 4.394 9.396.929 2.261 1.548 9.772 1.548 18.776v9.492l-.995 1.304c-2.523 3.308-5.679 3.219-9.584-.27-1.064-.951-4.03-3.424-6.178-5.151-.956-.768-1.933-1.576-2.172-1.796-.238-.22-1.332-1.118-2.429-1.996-4.102-3.282-9.381-9.568-9.381-11.17 0-.256-3.848-8.347-8.216-17.273-3.457-7.067-8.983-18.407-12.788-26.248-1.573-3.238-2.635-4.079-3.868-3.06-.262.217-1.196.524-2.074.682-.878.158-1.776.398-1.996.532-.485.297-3.409 1.161-5.589 1.651-.878.198-2.854.649-4.391 1.003-1.537.355-3.962.81-5.389 1.012-1.427.203-2.864.482-3.194.621-.329.139-2.125.404-3.992.589-1.866.185-5.1.517-7.185.738-5.002.53-17.684.528-21.956-.005-1.867-.232-5.1-.566-7.186-.742-2.086-.175-4.062-.435-4.391-.576-.33-.141-1.767-.422-3.194-.625a77.047 77.047 0 01-5.389-1.012 331.03 331.03 0 00-4.391-.982c-.879-.186-2.136-.529-2.795-.761-.658-.233-2.275-.713-3.593-1.068-1.317-.355-2.807-.813-3.312-1.018-1.705-.692-2.767-.452-3.215.726-.23.604-.773 1.727-1.208 2.495-.434.768-1.452 2.834-2.263 4.591-.81 1.756-3.517 7.349-6.017 12.429-2.499 5.079-4.543 9.511-4.543 9.847 0 .336-.135.671-.3.744-.165.074-.9 1.391-1.634 2.928-.734 1.537-1.49 3.064-1.678 3.393-.189.329-.912 1.767-1.607 3.194-6.072 12.477-6.119 12.54-14.335 19.161-.953.769-3.725 3.034-6.16 5.034-6.36 5.226-7.183 5.567-10.071 4.172-2.866-1.385-3.321-2.928-2.896-9.804.163-2.635.31-7.768.327-11.406.035-7.608.195-8.347 3.242-14.942l1.934-4.191c.353-.769.732-1.487.842-1.597.11-.11.491-.828.846-1.597.62-1.341 2.747-5.639 3.509-7.089.2-.382.807-1.683 1.347-2.891 1.002-2.239 6.765-14.102 9.533-19.622.842-1.68 1.532-3.342 1.532-3.692 0-.351.14-.638.311-.638.296 0 .779-.974 1.929-3.888l.51-1.294-4.07-2.672c-2.238-1.47-4.129-2.819-4.203-2.998-.073-.179-.372-.326-.665-.326-.293 0-.592-.14-.665-.313-.073-.172-1.301-1.2-2.728-2.285a1375.606 1375.606 0 01-2.994-2.28c-9.632-7.423-29.79-30.365-29.73-33.836.041-2.383 7.401-8.618 21.415-18.141 1.976-1.343 6.1-.935 6.117.606.004.405 4.818 6.94 5.216 7.081a.605.605 0 01.375.531c0 .862 12.316 13.91 15.575 16.502.552.439 1.9 1.536 2.994 2.438 3.193 2.632 7.45 5.404 7.983 5.2.526-.202 7.922-15.034 17.942-35.982.918-1.92 8.331-17.149 12.863-26.428 1.202-2.459 2.126-4.849 2.055-5.31-.11-.704-.215-.627-.655.48m55.294-.74c-.121.316.108 1.268.509 2.115.402.847 2.913 6.031 5.581 11.52a3029.385 3029.385 0 015.657 11.677c.902 1.902 1.635 2.099 4.234 1.142.828-.305 2.403-.847 3.501-1.204 1.098-.357 1.457-.571.798-.476-1.966.284-4.568 1.016-5.349 1.504-.894.558-1.975.198-2.279-.758-.124-.389-1.891-4.121-3.926-8.292-2.035-4.172-4.248-8.753-4.918-10.18l-2.402-5.109c-.727-1.543-1.27-2.292-1.406-1.939m-28.522.952c.823.086 2.171.086 2.994 0 .823-.086.15-.157-1.497-.157s-2.32.071-1.497.157m.652 15.281c-.354.206-1.032 1.234-1.505 2.282-.474 1.049-1.024 2.176-1.224 2.505-.2.33-.941 1.857-1.646 3.393-.705 1.537-3.162 6.657-5.461 11.378-10.294 21.142-11.85 24.349-13.366 27.545-.885 1.866-3.128 6.478-4.985 10.25-3.466 7.039-3.821 8.512-2.053 8.512.439 0 1.143.185 1.565.41.421.226 1.622.593 2.668.815 5.991 1.276 7.778 1.61 10.485 1.96 1.646.213 4.161.568 5.589.788 3.376.523 18.215.519 21.556-.005 1.428-.224 3.943-.573 5.589-.775 3.997-.49 8.248-1.327 8.617-1.696.164-.165.763-.305 1.33-.312 1.442-.019 5.369-1.425 5.558-1.99.168-.506.107-.64-5.696-12.568-2.136-4.391-4.386-9.062-5-10.379-.613-1.318-3.047-6.348-5.408-11.178a13672.71 13672.71 0 01-8.081-16.567c-7.927-16.289-7.235-15.124-8.532-14.368m108.261 1.225c-.676.676-1.228 1.381-1.228 1.568 0 .187-.225.583-.499.879-.758.816-3.893 5.431-3.893 5.729 0 .144-.539.942-1.197 1.773-.659.832-1.198 1.711-1.198 1.954 0 .243-.135.443-.299.444-.32.003-1.802 2.421-1.604 2.618.132.133 5.21-7.278 5.456-7.964.088-.245.268-.535.399-.644.132-.11 1.138-1.547 2.236-3.194 2.37-3.556 2.456-3.631 3.985-3.497 2.426.212 2.248 1.656-.74 6.002-1.456 2.117-2.646 4.021-2.646 4.232 0 .21-.185.473-.41.585-.225.112-.196.162.064.112s.764-.621 1.119-1.268c.753-1.37 2.908-4.678 3.238-4.968 1.674-1.476 1.954-3.499.654-4.721-1.247-1.171-1.983-1.094-3.437.36m-106.079 1.676c.625 1.367 2.838 5.988 4.916 10.269 2.079 4.282 4.473 9.222 5.321 10.978 4.435 9.187 17.4 35.84 18.405 37.837 1.173 2.331 1.021 3.349-.538 3.613-.713.121-2.465.515-3.892.876-12.881 3.253-32.525 3.76-45.709 1.178l-4.79-.936a30.676 30.676 0 01-2.994-.766 27.015 27.015 0 00-2.495-.677c-1.528-.308-1.535-.287 2.652-8.773 2.063-4.181 4.504-9.218 5.424-11.194.921-1.976 1.91-4.042 2.199-4.591.288-.549.991-1.878 1.562-2.953.57-1.076 1.037-2.177 1.037-2.446 0-.27.27-.715.599-.988.329-.273.599-.834.599-1.246 0-.413.179-.75.399-.75a.404.404 0 00.399-.407c0-.509 1.499-3.703 6.253-13.324 2.05-4.149 3.727-7.787 3.727-8.084 0-.297.18-.54.399-.54.22 0 .4-.199.4-.442 0-.478 3.494-7.817 4.113-8.64.611-.812.82-.603 2.014 2.006m57.346 3.882c-1.212.189-.173.282 3.193.286 3.806.005 4.517-.067 2.994-.304-2.35-.366-3.741-.362-6.187.018m-8.384 1.033l-1.397.572 1.797-.266c.988-.146 2.784-.391 3.992-.544l2.195-.278-2.595-.029c-1.427-.015-3.223.23-3.992.545m19.162-.194c1.427.173 3.313.415 4.192.538l1.597.224-1.797-.595c-.988-.327-2.874-.569-4.192-.538l-2.395.057 2.595.314m7.785 1.416c1.097.335 2.585.863 3.306 1.173.721.311 1.577.564 1.902.564.325 0 .903.168 1.284.372s1.951.955 3.488 1.667c1.536.713 4.158 2.136 5.824 3.162 2.764 1.703 3.098 1.815 3.793 1.28.717-.553.699-.573-.307-.34-.662.153-1.273.043-1.605-.289-1.404-1.404-11.132-6.236-12.609-6.264-.377-.007-1.034-.276-1.46-.598-.426-.323-1.269-.587-1.873-.587-.604 0-1.209-.179-1.344-.399-.136-.219-.73-.388-1.321-.374-.8.018-.565.18.922.633m25.344 7.209c-1.425 2.101-2.637 3.935-2.694 4.076-.057.141 1.919 2.318 4.391 4.837 4.006 4.081 8.182 9.552 9.864 12.922.318.637.65.946.736.686.087-.261-.308-1.085-.877-1.831-.57-.747-1.036-1.469-1.036-1.605 0-.249-3.622-5.241-5.291-7.293-.49-.603-2.285-2.521-3.988-4.262-1.703-1.742-3.096-3.346-3.096-3.564 0-.347 2.642-4.511 3.203-5.047.457-.437 1.642-2.473 1.514-2.601-.075-.075-1.302 1.582-2.726 3.682m-31.703 11.042c-1.258 1.187-1.426 1.575-1.426 3.303 0 5.155 6.176 6.997 9.181 2.738.31-.439-.034-.214-.763.499-3.014 2.947-8.019.999-8.019-3.121 0-1.803.582-2.738 2.595-4.17.439-.312.587-.573.328-.58-.259-.007-1.112.592-1.896 1.331m5.56-.751c.439.313 1.203.977 1.697 1.476.494.5.898.696.898.438 0-.509-2.439-2.515-3.032-2.494-.199.007-.002.268.437.58m2.704 4.197c0 .988.077 1.393.173.899a5.7 5.7 0 000-1.797c-.096-.494-.173-.09-.173.898M4.85 187.126c-.043 1.231.097 1.696.51 1.696.313 0 .652.315.752.699.163.622.188.625.229.028.025-.368-.209-.925-.52-1.236-.312-.312-.644-1.088-.739-1.725-.132-.888-.186-.763-.232.538m389.96.25c0 .303-.269.774-.598 1.047-.33.273-.578.879-.553 1.346.042.774.064.781.243.08.108-.424.446-1.021.752-1.326.531-.531.775-1.697.356-1.697-.11 0-.2.248-.2.55m-79.84 2.315c0 .092.687 1.596 1.526 3.342.84 1.746 1.775 3.962 2.078 4.925.303.963.62 1.547.703 1.298.182-.547-.929-3.591-2.19-6.002-.506-.966-.919-1.977-.919-2.247 0-.269-.27-.714-.599-.987-.329-.273-.599-.421-.599-.329m4.574 10.908c.892 2.376 2.063 8.682 2.464 13.268.328 3.757.22 3.7 7.811 4.125 3.58.2 7.945.449 9.702.551 2.488.146 2.841.108 1.597-.172-.878-.198-4.112-.467-7.186-.597-3.074-.131-6.87-.432-8.435-.671l-2.847-.433-.224-3.245c-.203-2.943-.492-4.641-1.841-10.814-.238-1.089-.637-2.166-.887-2.395-.333-.305-.374-.202-.154.383m-303.57 16.999c.004.531.183 1.234.399 1.564.276.421.316.184.136-.799-.316-1.721-.543-2.046-.535-.765m367.56.566c-.694 3.292-.705 3.528-.091 1.869.35-.948.571-2.026.49-2.395-.091-.417-.242-.217-.399.526m-39.821 1.397c.964.965.978 1.163.157 2.334-.625.893-.77.911-5.689.715-3.485-.139-4.244-.104-2.452.113 1.427.172 3.584.445 4.793.606 2.509.333 4.399-.661 4.375-2.3-.014-1.005-.865-2.267-1.528-2.267-.25 0-.096.36.344.799m-21.306 2.858c-.564 2.912-1.044 6.339-1.004 7.168.065 1.34.712-1.594 1.067-4.837l.284-2.594 3.993.139c5.025.176 4.85-.152-.283-.527-3.845-.281-3.877-.276-4.057.651m60.52 2.331c0 .769.082 1.083.183.699.1-.384.1-1.013 0-1.397-.101-.384-.183-.07-.183.698m-366.114.687c-.037 1.344.074 1.637.552 1.454.645-.248.841-1.741.229-1.741-.203 0-.452-.315-.552-.699-.101-.384-.204.059-.229.986m279.889.925c-4.004 1.608-3.849 7.265.255 9.29 4.461 2.201 8.925-3.897 5.654-7.723-.65-.76-1.189-1.275-1.198-1.144-.008.131.34.648.774 1.149 3.127 3.605-.92 9.209-5.167 7.157-5.018-2.424-2.834-9.447 2.655-8.537 1.13.187 1.368.143.924-.171-.722-.509-2.656-.52-3.897-.021m-279.936 2.58c0 .976.181 1.397.599 1.397s.599-.421.599-1.397-.181-1.397-.599-1.397-.599.421-.599 1.397m365.769-.334c-.275.11-.496.59-.493 1.066.005.656.091.73.359.308.283-.448.391-.408.546.2.118.459.212.247.24-.541.026-.714.002-1.284-.053-1.266-.055.017-.325.122-.599.233m-365.337 3.059c-.621 1.169-.497 1.602.314 1.1.287-.177.461-.737.387-1.244-.134-.917-.137-.916-.701.144m303.285 1.467a614.12 614.12 0 00-.923 3.593l-.249.998.61-.998c.335-.549.616-1.414.624-1.923.008-.508.205-1.281.438-1.717.233-.436.368-1.188.3-1.67-.076-.529-.394.155-.8 1.717m-1.879 6.259c-.509 1.441-1.925 4.767-2.308 5.417-.096.165-.02.3.17.3.191 0 .663-.764 1.051-1.697.387-.933.981-2.354 1.319-3.159.338-.804.546-1.67.461-1.924-.085-.254-.397.224-.693 1.063M14.77 268.596c0 .403.26.732.578.732.436 0 .481-.179.185-.732-.215-.402-.475-.732-.577-.732-.102 0-.186.33-.186.732m360.664 15.336l-1.981 2.096 2.096-1.981c1.947-1.841 2.279-2.211 1.981-2.211-.063 0-1.006.943-2.096 2.096m-348.687 2.021c0 .069.583.653 1.297 1.298l1.297 1.172-1.172-1.297c-1.093-1.21-1.422-1.481-1.422-1.173m11.576 9.656c.745.768 1.444 1.397 1.554 1.397.11 0-.41-.629-1.154-1.397-.745-.769-1.444-1.397-1.554-1.397-.11 0 .41.628 1.154 1.397m320.152 2.894l-3.784 3.892 3.892-3.784c3.615-3.515 4.074-4 3.784-4-.059 0-1.81 1.751-3.892 3.892m-229.533 78.144c.745.768 1.444 1.397 1.554 1.397.11 0-.41-.629-1.155-1.397-.745-.769-1.444-1.397-1.554-1.397-.109 0 .41.628 1.155 1.397m137.126 4.591c-2.628 2.634-4.688 4.79-4.578 4.79.109 0 2.349-2.156 4.977-4.79 2.628-2.635 4.688-4.791 4.578-4.791-.109 0-2.349 2.156-4.977 4.791m-72.954 6.269a5.695 5.695 0 001.796 0c.494-.095.09-.173-.898-.173s-1.392.078-.898.173m12.175-.006c.385.1 1.013.1 1.398 0 .384-.101.069-.183-.699-.183s-1.083.082-.699.183m-16.067.523c-.803.257-.842.322-.2.331.439.007 1.158-.142 1.597-.331 1.017-.437-.033-.437-1.397 0m46.307 6.416c.965.281 8.591.448 7.784.17-.219-.076-2.285-.21-4.59-.299-2.306-.089-3.743-.031-3.194.129m-76.946.265c1.043.082 2.749.082 3.792 0 1.043-.083.19-.15-1.896-.15s-2.939.067-1.896.15" fill="#9ac8f8"/><path d="M186.775 89.395c-3.84 1.944-6.437 3.783-9.101 6.445-3.691 3.687-5.599 6.778-8.018 12.988-.18.465-.628 2.755-.994 5.09-.92 5.866-.139 11.277 2.444 16.93.329.719.85 1.887 1.157 2.595l.56 1.288.016-1.697c.008-.933-.141-1.697-.333-1.697-.191 0-.463-.718-.603-1.596-.141-.879-.433-1.597-.65-1.597-.217 0-.395-.7-.395-1.554 0-1.014-.208-1.634-.599-1.784-.498-.192-.598-1.327-.598-6.787s.1-6.595.598-6.786c.36-.138.604-.753.612-1.54.007-.72.276-1.658.599-2.085.322-.426.586-1.189.586-1.696 0-.507.18-.922.399-.922.22 0 .399-.449.399-.998 0-.549.168-.998.374-.998.205 0 .777-.719 1.271-1.597.494-.878 1.044-1.597 1.223-1.597.179 0 .326-.269.326-.598a.6.6 0 01.599-.599c.329 0 .599-.27.599-.599 0-.329.185-.599.412-.599.517 0 2.781-2.286 2.781-2.808 0-.212.27-.385.599-.385.329 0 .599-.161.599-.356 0-.196.449-.469.998-.607.549-.138.998-.426.998-.642 0-.215.269-.391.599-.391a.6.6 0 00.598-.599c0-.373.377-.599.998-.599.549 0 .998-.157.998-.348 0-.192.731-.465 1.625-.608 1.216-.195 1.592-.425 1.497-.916-.198-1.021-.752-.977-3.173.249m23.205-.381c0 .511.354.88.998 1.042.549.137.998.41.998.606s.43.356.955.356c.526 0 1.059.269 1.185.599.127.329.604.599 1.06.599.457 0 1.246.449 1.755.998.509.548 1.047.998 1.197.998.149 0 .702.404 1.227.898 2.924 2.748 3.528 3.392 4.119 4.391.358.604.791 1.098.963 1.098.173 0 .313.269.313.599a.6.6 0 00.599.598c.366 0 .599.373.599.956 0 .525.27 1.058.599 1.185.329.126.599.684.599 1.24 0 .556.179 1.011.399 1.011.219 0 .399.526.399 1.169s.27 1.438.599 1.768c.373.372.599 1.352.599 2.594 0 1.242.226 2.223.599 2.595.437.438.598 1.506.598 3.972 0 2.511-.153 3.5-.598 3.87-.385.319-.599 1.203-.599 2.472 0 1.224-.228 2.204-.599 2.575-.329.329-.599.934-.599 1.345 0 .41-.18.857-.399.993-.22.136-.399.71-.399 1.277s-.299 1.248-.664 1.515c-.393.288-.561.753-.412 1.142.527 1.373.73 1.085 3.229-4.593.352-.802.641-1.914.641-2.472 0-.557.162-1.114.361-1.237 1.068-.66.835-11.14-.35-15.789-1.982-7.769-12.612-19.797-17.627-19.944-.357-.01-.873-.288-1.146-.618-.689-.829-1.198-.748-1.198.192m-13.828 11.385c-.15.392-.772.599-1.796.599s-1.646.207-1.796.599c-.127.329-.66.599-1.186.599-.525 0-.955.179-.955.399 0 .219-.258.399-.573.399-.315 0-1.572 1-2.794 2.222s-2.222 2.479-2.222 2.794c0 .315-.179.573-.399.573-.219 0-.399.247-.399.55 0 .302-.27.773-.599 1.047-.329.273-.599.937-.599 1.474 0 .538-.269 1.247-.598 1.577-.456.455-.599 1.59-.599 4.733s.143 4.278.599 4.733c.329.33.598 1.067.598 1.638 0 .572.27 1.143.599 1.269.329.127.599.66.599 1.185 0 .526.18.956.399.956.22 0 .399.186.399.415 0 .53 1.652 2.778 2.041 2.778.161 0 .826.494 1.477 1.098 1.949 1.808 2.398 2.096 3.264 2.096.456 0 .932.269 1.058.599.16.416.81.598 2.134.598 1.206 0 2.087.22 2.402.599.327.395 1.219.599 2.615.599 1.35 0 2.335-.217 2.717-.599.336-.336 1.311-.599 2.224-.599 1.178 0 1.625-.164 1.625-.598 0-.373.377-.599.998-.599.549 0 .998-.18.998-.399 0-.22.356-.4.791-.4 1.675 0 6.794-5.868 6.794-7.787 0-.5.27-1.013.599-1.139.421-.162.599-.819.599-2.215 0-1.092.179-2.096.399-2.232.219-.136.399-.955.399-1.82 0-.865-.18-1.573-.399-1.573-.22 0-.399-.994-.399-2.208 0-1.595-.167-2.272-.599-2.438-.329-.127-.599-.66-.599-1.185 0-.526-.18-.956-.399-.956-.22 0-.399-.369-.399-.82 0-1.962-7.653-7.962-10.155-7.962-.509 0-1.149-.269-1.422-.599-.37-.445-1.357-.599-3.854-.599-2.616 0-3.408.133-3.587.599m10.978 2.554c10.553 5.302 12.668 18.944 4.226 27.263-11.404 11.236-30.622 1.09-28.148-14.86.398-2.559.661-3.368 1.687-5.176.187-.33.457-.869.601-1.198 2.767-6.333 14.514-9.607 21.634-6.029m-7.622 46.263c-.125.478.037.713.492.713s.617-.235.492-.713c-.102-.392-.324-.713-.492-.713-.168 0-.39.321-.492.713m59.674 8.365c1.482.077 3.907.077 5.389 0 1.482-.076.269-.139-2.695-.139s-4.176.063-2.694.139m44.61 17.469c1.857 1.866 3.466 3.393 3.576 3.393.109 0-1.32-1.527-3.176-3.393-1.857-1.866-3.466-3.393-3.576-3.393-.109 0 1.32 1.527 3.176 3.393m-299.8 10.555c0 1.085.18 2.084.399 2.219.248.154.399-.594.399-1.972 0-1.221-.179-2.219-.399-2.219-.219 0-.399.887-.399 1.972m391.079-.288c-.127.488-.135 1.27-.018 1.739.124.492-.047 1.115-.402 1.47-.339.339-.735 1.357-.88 2.262-.145.905-.419 1.741-.61 1.859-.191.118-.348.518-.349.89-.001.371-.271 1.189-.599 1.818-.328.629-.596 1.32-.596 1.536 0 .217-.294 1.049-.652 1.851a719.49 719.49 0 00-1.397 3.154c-.41.933-1.086 2.46-1.501 3.393a52.597 52.597 0 00-1.433 3.693c-.372 1.098-.841 2.308-1.041 2.689-.2.381-.365 1.01-.366 1.397-.001.388-.271 1.219-.599 1.848-.328.629-.599 1.707-.602 2.395-.003.689-.277 2.03-.608 2.981-.409 1.174-.518 2.366-.34 3.708.323 2.435 1.11 2.386 1.263-.079.06-.971.27-2.125.467-2.564.197-.439.458-1.515.58-2.392.122-.876.406-1.655.631-1.73.224-.075.408-.839.408-1.699 0-1.124.169-1.564.599-1.564.373 0 .599-.377.599-.998 0-.549.177-.998.394-.998.217 0 .51-.719.65-1.597s.412-1.597.604-1.597c.191 0 .348-.538.348-1.197 0-.799.199-1.198.599-1.198.339 0 .598-.358.598-.827 0-.454.27-1.096.599-1.425.33-.33.599-1.125.599-1.768s.18-1.169.399-1.169c.22 0 .399-.52.399-1.155 0-.659.258-1.254.599-1.385.408-.156.599-.794.599-1.996s.191-1.84.599-1.996c.447-.171.599-.885.599-2.814 0-1.421.179-2.694.399-2.83.492-.304.535-4.591.046-4.591-.194 0-.457.399-.584.886M4.79 191.189c0 1.572.202 2.568.599 2.966.336.336.599 1.311.599 2.224 0 1.178.165 1.625.599 1.625.432 0 .599.444.599 1.597 0 .878.179 1.597.399 1.597.219 0 .399.414.399.921 0 .507.264 1.271.586 1.697.322.426.592 1.095.599 1.486.007.391.282.814.611.941.342.131.599.726.599 1.385 0 .635.18 1.154.399 1.154.22 0 .401.315.402.699.001.384.271 1.213.599 1.842.328.629.596 1.482.596 1.896 0 .414.27.753.599.753.407 0 .603.416.612 1.297.007.714.276 1.647.598 2.073.323.426.586 1.269.586 1.872 0 .604.18 1.209.4 1.345.219.136.399 1.1.399 2.143 0 1.043.251 2.24.559 2.66.933 1.277 1.337-3.306.487-5.531-.356-.932-.647-2.103-.647-2.604 0-.989-1.03-4.63-1.626-5.745-.203-.381-.37-1.02-.37-1.42 0-.4-.264-1.076-.586-1.503-.322-.426-.592-.987-.599-1.246-.011-.431-.809-2.291-3.437-8.023-.532-1.158-.967-2.36-.967-2.671 0-.31-.179-.675-.399-.811-.22-.135-.399-.523-.399-.861 0-.338-.254-1.181-.564-1.873-.31-.692-.677-1.931-.816-2.755-.43-2.545-1.415-1.94-1.415.87m314.204 8.835c-.018.342.247.971.589 1.397.611.762.615.762.253-.024a24.63 24.63 0 01-.589-1.397c-.192-.517-.226-.514-.253.024m3.51 17.241c.364.465 1.034.678 1.996.635l1.448-.064-1.395-.168c-.768-.093-1.666-.378-1.997-.635-.522-.406-.529-.376-.052.232m17.915 1.779a5.7 5.7 0 001.797 0c.494-.095.089-.173-.899-.173s-1.392.078-.898.173m-17.161 2.396c.497.096 1.215.092 1.597-.008.382-.1-.025-.178-.903-.174-.878.005-1.19.087-.694.182m8.379.805c.713.088 1.881.088 2.595 0 .713-.089.129-.161-1.298-.161s-2.011.072-1.297.161m7.784.385a3.258 3.258 0 001.397 0c.385-.1.07-.182-.698-.182-.769 0-1.083.082-.699.182m-35.536 8.508c0 .768.082 1.083.183.698.1-.384.1-1.013 0-1.397-.101-.384-.183-.07-.183.699m-287.119 0c0 .439.084.798.186.798s.378-.359.613-.798c.341-.638.303-.799-.186-.799-.346 0-.613.347-.613.799m-2.938 33.41c-.391.392-.303 4.038.103 4.289.198.122.485 1.48.64 3.018.154 1.538.442 2.796.639 2.796s.359.634.359 1.409c0 .885.223 1.496.599 1.64.329.126.598.66.598 1.185 0 .583.234.955.599.955.351 0 .604.372.612.899.014 1.029.857 2.295 1.528 2.295.25 0 .455.359.455.798 0 .439.719 1.517 1.597 2.396.878.878 1.597 1.776 1.597 1.996 0 .219.162.399.361.399.199 0 1.57 1.167 3.047 2.595 1.477 1.427 3.021 2.594 3.431 2.594.41 0 .746.27.746.599 0 .33.188.599.418.599.23 0 .814.424 1.297.943.484.518 1.284 1.069 1.778 1.224.494.155.898.45.898.654 0 .205.269.373.599.373a.6.6 0 01.598.598c0 .33.155.599.344.599.378 0 7.241 6.696 7.241 7.065 0 .126.449.645.998 1.154.549.508.998 1.07.998 1.247 0 .178.449.807.998 1.399.549.592.998 1.264.998 1.493 0 .229.27.417.599.417.375 0 .599.378.599 1.01 0 .556.269 1.114.599 1.24.329.127.598.42.598.652 0 .713 1.332 3.485 1.674 3.485.177 0 .322.337.322.749 0 .413.27.974.599 1.247.33.273.599.924.599 1.446 0 .522.18.949.399.949.22 0 .401.314.402.699.001.384.271 1.213.599 1.842.328.629.596 1.488.596 1.908 0 .421.269.869.599.996.39.149.599.77.599 1.783 0 1.116.169 1.555.598 1.555.433 0 .599.443.599 1.596 0 .879.18 1.597.399 1.597.22 0 .4.706.4 1.568 0 .863.269 1.838.598 2.168.33.329.599 1.06.599 1.625 0 .646.222 1.026.599 1.026.382 0 .599.385.599 1.064 0 1.206 1.184 4.126 1.673 4.126.178 0 .323.25.323.556 0 .306.269.66.599.786.329.126.598.595.598 1.041 0 .446.17.811.377.811s.695.539 1.084 1.197c.389.659.938 1.198 1.22 1.198.282 0 .513.269.513.599a.6.6 0 00.599.598c.329 0 .599.193.599.428 0 .533 1.007 1.568 1.525 1.568.212 0 .489.27.615.599.126.33.496.599.821.599.325 0 1.08.453 1.678 1.008.598.554 1.505 1.112 2.016 1.241.511.128.93.393.93.589 0 .195.718.356 1.596.356 1.154 0 1.597.166 1.597.598 0 .352.372.604.898.612.494.007 1.247.276 1.673.599.427.322 1.46.586 2.296.586.836 0 1.52.179 1.52.399 0 .228 1.184.399 2.752.399 2.078 0 2.808.147 2.982.599.168.439.86.599 2.594.599s2.427.16 2.595.599c.162.422.821.598 2.238.598 1.105 0 2.009.18 2.009.4 0 .219.404.4.898.401.494.002 1.413.271 2.042.599.629.328 1.642.596 2.253.596.617 0 1.211.266 1.339.599.142.371.75.599 1.596.599.847 0 1.455.228 1.597.599.127.329.595.599 1.041.599.446 0 .811.179.811.399 0 .219.539.399 1.197.399.799 0 1.198.2 1.198.599 0 .329.27.599.599.599.329 0 .599.176.599.391 0 .216.449.505.998.642.549.138.998.411.998.607s.449.356.998.356c.621 0 .998.226.998.598a.6.6 0 00.598.599.6.6 0 01.599.599c0 .329.27.599.599.599.329 0 .599.16.599.356 0 .196.449.468.998.606.549.138.998.427.998.642 0 .216.269.392.599.392.329 0 .599.193.599.43 0 .559 2.204 2.764 2.763 2.764.237 0 .43.269.43.598 0 .33.166.599.369.599.479 0 2.825 2.346 2.825 2.825 0 .203.269.369.599.369.329 0 .598.239.598.531 0 .292.449.772.998 1.066.549.293.998.773.998 1.065 0 .292.174.531.386.531.212 0 .937.539 1.61 1.198.674.659 1.489 1.198 1.811 1.198.321 0 .585.179.585.399 0 .219.269.399.598.399.33 0 .599.196.599.435 0 .57 1.642 1.93 2.35 1.947.304.007.969.462 1.478 1.011.582.629 1.359.998 2.098.998.676 0 1.272.255 1.404.599.127.329.567.599.98.599.412 0 1.361.312 2.108.694 1.157.591 2.544.695 9.343.695 6.798 0 8.185-.104 9.342-.695.748-.382 1.947-.694 2.667-.694.719 0 1.576-.27 1.906-.599.329-.329 1.105-.605 1.725-.612.619-.006 1.475-.276 1.901-.598.426-.323 1.369-.586 2.096-.586.726 0 1.321-.18 1.321-.4 0-.219.705-.399 1.568-.399.863 0 1.838-.269 2.167-.599.387-.387 1.375-.598 2.795-.598 1.419 0 2.407-.212 2.794-.599.494-.495 2.069-.599 9.039-.599s8.545.104 9.039.599c.387.387 1.375.599 2.794.599 1.42 0 2.408.211 2.795.598.329.33 1.304.599 2.167.599.863 0 1.568.18 1.568.399 0 .22.607.4 1.349.4.741 0 1.572.269 1.845.598.273.33 1.116.599 1.874.599.757 0 1.646.27 1.975.599.33.329 1.187.599 1.906.599.72 0 1.829.258 2.467.573 2.55 1.262 19.216 1.144 19.644-.14.079-.238.656-.433 1.28-.433.625 0 1.406-.27 1.735-.599.329-.329.838-.599 1.13-.599.293 0 1.016-.449 1.608-.998.592-.549 1.404-.998 1.804-.998.744 0 2.102-1.292 2.102-2 0-.217.368-.395.817-.395.45 0 1.234-.449 1.743-.998.508-.549 1.129-.998 1.378-.998.249 0 .453-.27.453-.599 0-.329.174-.599.385-.599.522 0 2.809-2.264 2.809-2.781 0-.227.269-.412.598-.412a.6.6 0 00.599-.599c0-.329.193-.599.428-.599.553 0 1.568-1.015 1.568-1.568 0-.235.27-.428.599-.428a.6.6 0 00.599-.599c0-.329.193-.598.43-.598.236 0 .955-.526 1.597-1.167.641-.642 1.166-1.361 1.166-1.597 0-.237.317-.43.703-.43.387 0 1.187-.449 1.779-.998.592-.549 1.264-.998 1.493-.998.229 0 .417-.27.417-.599 0-.336.356-.599.811-.599.446 0 .914-.269 1.04-.599.127-.329.48-.598.786-.598.306 0 .556-.16.556-.356 0-.196.449-.469.998-.607.549-.137.998-.426.998-.642 0-.215.27-.391.599-.391.329 0 .599-.27.599-.599 0-.399.399-.599 1.198-.599.658 0 1.197-.16 1.197-.355 0-.195.629-.472 1.397-.617.769-.144 1.398-.433 1.398-.643 0-.209.337-.381.749-.381s.973-.269 1.247-.599c.273-.329.993-.599 1.6-.599.606 0 1.617-.268 2.246-.596.629-.328 1.548-.597 2.042-.599.494-.001.898-.182.898-.401 0-.22.904-.4 2.009-.4 1.417 0 2.076-.176 2.238-.598.17-.445.877-.599 2.739-.599 1.862 0 2.569-.155 2.739-.599.172-.448.888-.599 2.837-.599 1.472 0 2.608-.174 2.608-.399 0-.22.684-.399 1.52-.399s1.869-.264 2.296-.586c.426-.323 1.246-.592 1.823-.599.577-.007 1.273-.282 1.546-.612.274-.329.924-.598 1.446-.598.522 0 .951-.135.954-.3.002-.164.99-.738 2.195-1.274 1.206-.536 2.192-1.119 2.192-1.297 0-.178.269-.323.599-.323a.6.6 0 00.598-.599c0-.329.193-.599.428-.599.553 0 1.568-1.015 1.568-1.568 0-.235.27-.428.599-.428a.6.6 0 00.599-.598c0-.33.201-.599.446-.599.616 0 2.732-2.459 2.748-3.194.007-.329.461-1.023 1.008-1.542.548-.519 1.103-1.373 1.234-1.897.132-.523.399-.952.595-.952.196 0 .356-.719.356-1.597 0-1.153.166-1.597.599-1.597.34 0 .599-.358.599-.827 0-.454.269-1.096.599-1.425.329-.33.598-1.215.598-1.968 0-.753.18-1.368.4-1.368.219 0 .399-.899.399-1.996 0-1.509.146-1.996.599-1.996.432 0 .598-.444.598-1.597 0-1.154.167-1.597.599-1.597.399 0 .599-.399.599-1.198 0-.658.164-1.197.364-1.197.2 0 .486-.719.634-1.597.148-.878.434-1.597.634-1.597s.364-.43.364-.955c0-.526.269-1.059.599-1.185.329-.127.599-.685.599-1.241 0-.555.176-1.01.391-1.01.216 0 .505-.449.642-.998.138-.549.411-.998.607-.998.195 0 .356-.449.356-.998 0-.549.224-1 .499-1.003.274-.002.85-.738 1.28-1.634.429-.896 1.19-2.017 1.689-2.49.5-.474.912-1.08.916-1.346.004-.267.501-1.01 1.105-1.651l3.392-3.607c1.263-1.342 2.379-2.441 2.482-2.441.375 0 2.609-2.381 2.609-2.781 0-.227.269-.412.598-.412.33 0 .599-.177.599-.392 0-.215.449-.504.998-.642.549-.138.998-.411.998-.606 0-.196.27-.356.599-.356.329 0 .599-.27.599-.599a.6.6 0 01.599-.599.6.6 0 00.598-.599c0-.329.336-.599.746-.599s1.954-1.167 3.431-2.594c1.477-1.428 2.848-2.595 3.047-2.595a.37.37 0 00.361-.376c0-.207.894-1.308 1.986-2.446 1.092-1.139 2.092-2.407 2.222-2.818.131-.411.405-.747.61-.747.204 0 .372-.539.372-1.198 0-.798.2-1.198.599-1.198.365 0 .599-.372.599-.955 0-.525.269-1.059.598-1.185.33-.126.599-.649.599-1.161 0-.511.174-1.104.386-1.316.212-.212.436-1.412.499-2.667.067-1.362.314-2.36.612-2.476.322-.126.499-1.044.499-2.59 0-1.965-.107-2.354-.599-2.165-.403.154-.598.787-.598 1.934 0 1.029-.238 1.902-.599 2.202-.33.273-.599.914-.599 1.423s-.16 1.024-.355 1.145c-.195.12-.469.675-.609 1.231-.281 1.12-2.615 5.106-3.112 5.316-.173.073-.315.376-.315.674 0 .652-6.741 7.554-8.982 9.196-.879.644-1.687 1.261-1.797 1.372-.11.111-1.367 1.09-2.794 2.175-5.454 4.146-13.419 12.641-15.904 16.961-1.399 2.433-4.855 9.325-4.855 9.683 0 .222-.287 1.06-.639 1.862l-.988 2.255c-.657 1.506-2.764 8.196-2.764 8.775 0 .319-.294 1.259-.654 2.09-.36.831-.794 1.87-.966 2.309-4.39 11.235-11.088 17.635-21.733 20.766-1.317.387-2.844.855-3.393 1.039-1.045.35-4.26.962-7.984 1.518-2.101.314-3.033.536-7.984 1.905-5.142 1.422-5.912 1.709-10.38 3.861-7.132 3.436-11.68 6.812-19.675 14.604-11.93 11.628-18.549 15.189-28.229 15.189-3.939 0-13.019-1.871-17.365-3.578-1.618-.636-6.757-1.955-12.775-3.28-3.16-.695-15.93-.705-19.161-.015-7.526 1.608-12.383 2.89-16.168 4.268-9.699 3.53-20.332 3.218-27.909-.817-3.993-2.127-5.758-3.528-12.022-9.541-7.784-7.474-13.409-12.073-17.554-14.352-.768-.422-1.487-.872-1.597-.998-.219-.252-1.818-1.033-5.189-2.536-2.721-1.213-9.131-3.155-13.374-4.053a872.509 872.509 0 01-4.896-1.05c-.936-.206-2.038-.375-2.449-.375-.717 0-2.083-.368-7.541-2.033-9.316-2.843-16.408-9.193-20.077-17.978-.493-1.18-1.046-2.315-1.23-2.524-.183-.208-.334-.696-.334-1.084 0-.388-.254-1.295-.565-2.016-.312-.721-.864-2.389-1.229-3.706-.364-1.318-.814-2.755-.999-3.194-.186-.439-.642-1.697-1.013-2.794-.371-1.098-.91-2.535-1.199-3.194-.288-.659-.83-1.916-1.204-2.794-1.468-3.449-3.489-7.385-4.015-7.822-.305-.253-.554-.627-.554-.831 0-2.302-9.993-12.44-18.817-19.092-7.163-5.399-13.701-13.75-14.689-18.762-.152-.769-.489-1.353-.75-1.298-.324.069-.475-.65-.475-2.272 0-2.215-.343-3.14-.942-2.541" fill="#7c9ca4"/></g></svg>